{
.appVersion = "1131";
DisplayStrings = (
"\012Hepta Slab\012ABCDEFGHIJKLMNOPQRSTUVWXYZ\012/a.sc/b.sc/c.sc/d.sc/e.sc/f.sc/g.sc/h.sc/i.sc/j.sc/k.sc/l.sc/m.sc/n.sc/o.sc/p.sc/q.sc/r.sc/s.sc/t.sc/u.sc/v.sc/w.sc/x.sc/y.sc/z.sc \012a/a.ss02 bcdef/f.ss01 g/g.ss02 h/idotless i/jdotless jklmnopqrst/t.ss01 uvwxyz\012f/f_f/f_f_i/f_f_l/fi/fl/fi.ss01/fl.ss01  & 0123456789 /uniE0FF"
);
classes = (
{
automatic = 1;

glyphs = (
{
color = 9;
glyphname = A;
lastChange = "2018-04-25 04:02:17 +0000";
layers = (
{
anchors = (
{
name = bottom;
position = "{446, 0}";
},
{
name = ogonek;
position = "{774, 0}";
},
{
name = top;
position = "{446, 732}";
}
);
layerId = "67AEAADB-8447-4819-9D92-8BB76BD22042";
paths = (
{
closed = 1;
nodes = (
"239 278 LINE",
"239 273 LINE",
"653 273 LINE",
"653 278 LINE"
);
},
{
closed = 1;
nodes = (
"450 752 LINE",
"442 752 LINE",
"119 5 LINE",
"30 5 LINE",
"30 0 LINE",
"351 0 LINE",
"351 5 LINE",
"125 5 LINE",
"448 752 LINE",
"442 746 LINE",
"451 746 LINE",
"444 752 LINE",
"767 5 LINE",
"541 5 LINE",
"541 0 LINE",
"862 0 LINE",
"862 5 LINE",
"773 5 LINE"
);
}
);
width = 892;
},
{
anchors = (
{
name = bottom;
position = "{425, 0}";
},
{
name = ogonek;
position = "{721, 0}";
},
{
name = top;
position = "{425, 772}";
}
);
layerId = "BE4E587A-F76C-447B-AA28-A45E40876AAF";
leftMetricsKey = "=H-8";
paths = (
{
closed = 1;
nodes = (
"194 440 LINE",
"194 263 LINE",
"650 263 LINE",
"650 440 LINE"
);
},
{
closed = 1;
nodes = (
"606 772 LINE",
"268 772 LINE",
"65 207 LINE",
"13 207 LINE",
"13 0 LINE",
"385 0 LINE",
"385 207 LINE",
"310 207 LINE",
"461 720 LINE",
"376 560 LINE",
"474 560 LINE",
"372 720 LINE",
"523 207 LINE",
"460 207 LINE",
"460 0 LINE",
"856 0 LINE",
"856 207 LINE",
"809 207 LINE"
);
}
);
width = 869;
},
{
anchors = (
{
name = bottom;
position = "{397, 0}";
},
{
name = ogonek;
position = "{717, 0}";
},
{
name = top;
position = "{397, 732}";
}
);
layerId = "2C5E45D0-97E8-45AA-A5B2-946753DF54E1";
leftMetricsKey = "=H-16";
paths = (
{
closed = 1;
nodes = (
"197 320 LINE",
"197 231 LINE",
"597 231 LINE",
"597 320 LINE"
);
},
{
closed = 1;
nodes = (
"456 752 LINE",
"338 752 LINE",
"73 93 LINE",
"7 93 LINE",
"7 0 LINE",
"322 0 LINE",
"322 93 LINE",
"175 93 LINE",
"406 670 LINE",
"344 628 LINE",
"442 628 LINE",
"380 670 LINE",
"611 93 LINE",
"464 93 LINE",
"464 0 LINE",
"787 0 LINE",
"787 93 LINE",
"721 93 LINE"
);
}
);
width = 794;
}
);
leftKerningGroup = A;
rightKerningGroup = A;
rightMetricsKey = "=|";
unicode = 0041;
},
{
glyphname = AE;
lastChange = "2018-04-25 04:03:10 +0000";
layers = (
{
anchors = (
{
name = bottom;
position = "{710, 0}";
},
{
name = top;
position = "{710, 732}";
}
);
layerId = "67AEAADB-8447-4819-9D92-8BB76BD22042";
leftMetricsKey = "=A-16";
paths = (
{
closed = 1;
nodes = (
"1262 0 LINE",
"1262 187 LINE",
"1257 187 LINE",
"1257 5 LINE",
"712 5 LINE",
"712 747 LINE",
"1248 747 LINE",
"1248 565 LINE",
"1253 565 LINE",
"1253 752 LINE",
"330 752 LINE",
"330 747 LINE",
"707 747 LINE",
"707 5 LINE",
"558 5 LINE",
"558 0 LINE"
);
},
{
closed = 1;
nodes = (
"355 0 LINE",
"355 5 LINE",
"129 5 LINE",
"620 752 LINE",
"614 752 LINE",
"123 5 LINE",
"14 5 LINE",
"14 0 LINE"
);
},
{
closed = 1;
nodes = (
"710 273 LINE",
"710 278 LINE",
"308 278 LINE",
"308 273 LINE"
);
},
{
closed = 1;
nodes = (
"1063 377 LINE",
"1063 382 LINE",
"709 382 LINE",
"709 377 LINE"
);
}
);
width = 1294;
},
{
anchors = (
{
name = bottom;
position = "{599, 0}";
},
{
name = top;
position = "{599, 732}";
}
);
layerId = "2C5E45D0-97E8-45AA-A5B2-946753DF54E1";
leftMetricsKey = "=A-11";
paths = (
{
closed = 1;
nodes = (
"1146 0 LINE",
"1146 227 LINE",
"1044 227 LINE",
"1044 93 LINE",
"648 93 LINE",
"648 659 LINE",
"1035 659 LINE",
"1035 525 LINE",
"1137 525 LINE",
"1137 752 LINE",
"198 752 LINE",
"198 659 LINE",
"546 659 LINE",
"546 93 LINE",
"436 93 LINE",
"436 0 LINE"
);
},
{
closed = 1;
nodes = (
"302 0 LINE",
"302 93 LINE",
"174 93 LINE",
"475 722 LINE",
"363 722 LINE",
"62 93 LINE",
"-4 93 LINE",
"-4 0 LINE"
);
},
{
closed = 1;
nodes = (
"610 230 LINE",
"610 320 LINE",
"200 320 LINE",
"200 230 LINE"
);
},
{
closed = 1;
nodes = (
"946 334 LINE",
"946 424 LINE",
"604 424 LINE",
"604 334 LINE"
);
}
);
width = 1197;
},
{
anchors = (
{
name = bottom;
position = "{721, 0}";
},
{
name = top;
position = "{721, 772}";
}
);
layerId = "BE4E587A-F76C-447B-AA28-A45E40876AAF";
leftMetricsKey = "=A-7";
paths = (
{
closed = 1;
nodes = (
"1325 0 LINE",
"1325 327 LINE",
"1067 327 LINE",
"1067 207 LINE",
"847 207 LINE",
"847 565 LINE",
"1058 565 LINE",
"1058 445 LINE",
"1316 445 LINE",
"1316 772 LINE",
"163 772 LINE",
"163 565 LINE",
"589 565 LINE",
"589 207 LINE",
"532 207 LINE",
"532 0 LINE"
);
},
{
closed = 1;
nodes = (
"422 0 LINE",
"422 207 LINE",
"359 207 LINE",
"656 772 LINE",
"422 772 LINE",
"73 207 LINE",
"6 207 LINE",
"6 0 LINE"
);
},
{
closed = 1;
nodes = (
"702 252 LINE",
"702 429 LINE",
"246 429 LINE",
"246 252 LINE"
);
},
{
closed = 1;
nodes = (
"1000 300 LINE",
"1000 477 LINE",
"716 477 LINE",
"716 300 LINE"
);
}
);
width = 1358;
},
{
anchors = (
{
name = top;
position = "{629, 732}";
}
);
associatedMasterId = "2C5E45D0-97E8-45AA-A5B2-946753DF54E1";
layerId = "77E4ACB9-B57D-420A-BA58-EB5078A5F5A8";
leftMetricsKey = "=A-11";
name = "Mar 14 18, 13:56";
paths = (
{
closed = 1;
nodes = (
"1113 0 LINE",
"1113 227 LINE",
"1011 227 LINE",
"1011 93 LINE",
"762 93 LINE",
"569 659 LINE",
"1002 659 LINE",
"1002 525 LINE",
"1104 525 LINE",
"1104 752 LINE",
"202 752 LINE",
"202 659 LINE",
"467 659 LINE",
"660 93 LINE",
"530 93 LINE",
"530 0 LINE"
);
},
{
closed = 1;
nodes = (
"349 0 LINE",
"349 93 LINE",
"222 93 LINE",
"471 722 LINE",
"354 722 LINE",
"116 93 LINE",
"50 93 LINE",
"50 0 LINE"
);
},
{
closed = 1;
nodes = (
"614 242 LINE",
"614 332 LINE",
"224 332 LINE",
"224 242 LINE"
);
},
{
closed = 1;
nodes = (
"913 339 LINE",
"913 429 LINE",
"608 429 LINE",
"608 339 LINE"
);
}
);
width = 1205;
}
);
leftKerningGroup = A;
leftMetricsKey = "A-16";
rightKerningGroup = E;
rightMetricsKey = E;
unicode = 00C6;
},
{
color = 6;
glyphname = B;
lastChange = "2018-04-25 04:04:05 +0000";
layers = (
{
anchors = (
{
name = bottom;
position = "{376, 0}";
},
{
name = top;
position = "{376, 732}";
}
);
layerId = "67AEAADB-8447-4819-9D92-8BB76BD22042";
paths = (
{
closed = 1;
nodes = (
"393 747 LINE SMOOTH",
"548 747 OFFCURVE",
"642 691 OFFCURVE",
"642 565 CURVE SMOOTH",
"642 446 OFFCURVE",
"558 388 OFFCURVE",
"402 388 CURVE SMOOTH",
"172 388 LINE",
"172 385 LINE",
"400 385 LINE SMOOTH",
"561 385 OFFCURVE",
"647 442 OFFCURVE",
"647 565 CURVE SMOOTH",
"647 694 OFFCURVE",
"551 752 OFFCURVE",
"393 752 CURVE SMOOTH",
"280 752 LINE",
"278 747 LINE"
);
},
{
closed = 1;
nodes = (
"290 0 LINE",
"407 0 LINE SMOOTH",
"574 0 OFFCURVE",
"675 67 OFFCURVE",
"675 195 CURVE SMOOTH",
"675 348 OFFCURVE",
"534 386 OFFCURVE",
"401 386 CURVE SMOOTH",
"172 386 LINE",
"172 383 LINE",
"401 383 LINE SMOOTH",
"531 383 OFFCURVE",
"670 344 OFFCURVE",
"670 195 CURVE SMOOTH",
"670 70 OFFCURVE",
"571 5 OFFCURVE",
"407 5 CURVE SMOOTH",
"290 5 LINE"
);
},
{
closed = 1;
nodes = (
"169 747 LINE",
"169 5 LINE",
"20 5 LINE",
"20 0 LINE",
"323 0 LINE",
"323 5 LINE",
"174 5 LINE",
"174 747 LINE",
"323 747 LINE",
"323 752 LINE",
"20 752 LINE",
"20 747 LINE"
);
}
);
width = 752;
},
{
anchors = (
{
name = bottom;
position = "{404, 0}";
},
{
name = top;
position = "{404, 772}";
}
);
layerId = "BE4E587A-F76C-447B-AA28-A45E40876AAF";
rightMetricsKey = "=O-4";
paths = (
{
closed = 1;
nodes = (
"454 565 LINE SMOOTH",
"496 565 OFFCURVE",
"517 549 OFFCURVE",
"517 521 CURVE SMOOTH",
"517 493 OFFCURVE",
"496 478 OFFCURVE",
"454 478 CURVE SMOOTH",
"251 478 LINE",
"251 385 LINE",
"459 385 LINE SMOOTH",
"666 385 OFFCURVE",
"776 444 OFFCURVE",
"776 574 CURVE SMOOTH",
"776 705 OFFCURVE",
"664 772 OFFCURVE",
"480 772 CURVE SMOOTH",
"378 772 LINE",
"378 565 LINE"
);
},
{
closed = 1;
nodes = (
"368 0 LINE",
"513 0 LINE SMOOTH",
"694 0 OFFCURVE",
"804 75 OFFCURVE",
"804 211 CURVE SMOOTH",
"804 355 OFFCURVE",
"686 410 OFFCURVE",
"474 410 CURVE SMOOTH",
"251 410 LINE",
"251 301 LINE",
"474 301 LINE SMOOTH",
"521 301 OFFCURVE",
"545 284 OFFCURVE",
"545 254 CURVE SMOOTH",
"545 225 OFFCURVE",
"518 207 OFFCURVE",
"473 207 CURVE SMOOTH",
"368 207 LINE"
);
},
{
closed = 1;
nodes = (
"78 565 LINE",
"78 207 LINE",
"21 207 LINE",
"21 0 LINE",
"406 0 LINE",
"406 207 LINE",
"336 207 LINE",
"336 565 LINE",
"406 565 LINE",
"406 772 LINE",
"21 772 LINE",
"21 565 LINE"
);
}
);
width = 811;
},
{
anchors = (
{
name = bottom;
position = "{345, 0}";
},
{
name = top;
position = "{345, 732}";
}
);
layerId = "2C5E45D0-97E8-45AA-A5B2-946753DF54E1";
rightMetricsKey = "=O+12";
paths = (
{
closed = 1;
nodes = (
"398 659 LINE SMOOTH",
"484 659 OFFCURVE",
"542 622 OFFCURVE",
"542 547 CURVE SMOOTH",
"542 483 OFFCURVE",
"505 424 OFFCURVE",
"405 424 CURVE SMOOTH",
"206 424 LINE",
"206 374 LINE",
"403 374 LINE SMOOTH",
"565 374 OFFCURVE",
"651 430 OFFCURVE",
"651 558 CURVE SMOOTH",
"651 685 OFFCURVE",
"563 752 OFFCURVE",
"418 752 CURVE SMOOTH",
"323 752 LINE",
"323 659 LINE"
);
},
{
closed = 1;
nodes = (
"313 0 LINE",
"451 0 LINE SMOOTH",
"593 0 OFFCURVE",
"679 76 OFFCURVE",
"679 207 CURVE SMOOTH",
"679 348 OFFCURVE",
"581 399 OFFCURVE",
"404 399 CURVE SMOOTH",
"206 399 LINE",
"206 334 LINE",
"404 334 LINE SMOOTH",
"524 334 OFFCURVE",
"570 282 OFFCURVE",
"570 215 CURVE SMOOTH",
"570 135 OFFCURVE",
"506 93 OFFCURVE",
"410 93 CURVE SMOOTH",
"313 93 LINE"
);
},
{
closed = 1;
nodes = (
"133 659 LINE",
"133 93 LINE",
"23 93 LINE",
"23 0 LINE",
"345 0 LINE",
"345 93 LINE",
"235 93 LINE",
"235 659 LINE",
"345 659 LINE",
"345 752 LINE",
"23 752 LINE",
"23 659 LINE"
);
}
);
width = 732;
},
{
associatedMasterId = "67AEAADB-8447-4819-9D92-8BB76BD22042";
layerId = "11D755FA-889B-4325-AD99-A151548A5F9E";
name = "{20off}";
paths = (
{
closed = 1;
nodes = (
"394 733 LINE SMOOTH",
"538 733 OFFCURVE",
"626 680 OFFCURVE",
"626 562 CURVE SMOOTH",
"626 452 OFFCURVE",
"549 394 OFFCURVE",
"402 394 CURVE SMOOTH",
"177 394 LINE",
"177 381 LINE",
"400 381 LINE SMOOTH",
"562 381 OFFCURVE",
"648 438 OFFCURVE",
"648 562 CURVE SMOOTH",
"648 692 OFFCURVE",
"553 752 OFFCURVE",
"397 752 CURVE SMOOTH",
"287 752 LINE",
"285 733 LINE"
);
},
{
closed = 1;
nodes = (
"294 0 LINE",
"414 0 LINE SMOOTH",
"577 0 OFFCURVE",
"676 68 OFFCURVE",
"676 198 CURVE SMOOTH",
"676 350 OFFCURVE",
"542 390 OFFCURVE",
"401 390 CURVE SMOOTH",
"177 390 LINE",
"177 376 LINE",
"401 376 LINE SMOOTH",
"530 376 OFFCURVE",
"654 335 OFFCURVE",
"654 198 CURVE SMOOTH",
"654 80 OFFCURVE",
"561 19 OFFCURVE",
"407 19 CURVE SMOOTH",
"294 19 LINE"
);
},
{
closed = 1;
nodes = (
"163 733 LINE",
"163 19 LINE",
"20 19 LINE",
"20 0 LINE",
"327 0 LINE",
"327 19 LINE",
"184 19 LINE",
"184 733 LINE",
"327 733 LINE",
"327 752 LINE",
"20 752 LINE",
"20 733 LINE"
);
}
);
width = 749;
}
);
leftKerningGroup = H;
leftMetricsKey = H;
rightKerningGroup = B;
unicode = 0042;
},
{
color = 5;
glyphname = C;
lastChange = "2018-04-25 04:04:25 +0000";
layers = (
{
anchors = (
{
name = bottom;
position = "{419, 0}";
},
{
name = top;
position = "{419, 732}";
}
);
layerId = "67AEAADB-8447-4819-9D92-8BB76BD22042";
rightMetricsKey = "=O-12";
paths = (
{
closed = 1;
nodes = (
"603 -7 OFFCURVE",
"742 114 OFFCURVE",
"778 297 CURVE",
"773 298 LINE",
"738 117 OFFCURVE",
"600 -2 OFFCURVE",
"417 -2 CURVE SMOOTH",
"206 -2 OFFCURVE",
"52 154 OFFCURVE",
"52 378 CURVE SMOOTH",
"52 599 OFFCURVE",
"195 754 OFFCURVE",
"420 754 CURVE SMOOTH",
"603 754 OFFCURVE",
"732 654 OFFCURVE",
"767 457 CURVE",
"771 480 LINE",
"766 480 LINE",
"729 657 OFFCURVE",
"606 759 OFFCURVE",
"420 759 CURVE SMOOTH",
"192 759 OFFCURVE",
"47 602 OFFCURVE",
"47 378 CURVE SMOOTH",
"47 151 OFFCURVE",
"203 -7 OFFCURVE",
"417 -7 CURVE SMOOTH"
);
},
{
closed = 1;
nodes = (
"772 457 LINE",
"772 752 LINE",
"767 752 LINE",
"767 457 LINE"
);
}
);
width = 813;
},
{
anchors = (
{
name = bottom;
position = "{435, 0}";
},
{
name = top;
position = "{425, 732}";
}
);
associatedMasterId = "67AEAADB-8447-4819-9D92-8BB76BD22042";
layerId = "51254500-A0C0-4125-AB1B-C82D69DD8A34";
rightMetricsKey = "=O-12";
name = "Light [9 off]";
paths = (
{
closed = 1;
nodes = (
"607 -7 OFFCURVE",
"744 113 OFFCURVE",
"778 297 CURVE",
"773 298 LINE",
"738 117 OFFCURVE",
"602 -2 OFFCURVE",
"420 -2 CURVE SMOOTH",
"208 -2 OFFCURVE",
"52 154 OFFCURVE",
"52 378 CURVE SMOOTH",
"52 599 OFFCURVE",
"193 754 OFFCURVE",
"421 754 CURVE SMOOTH",
"600 754 OFFCURVE",
"731 654 OFFCURVE",
"767 457 CURVE",
"771 507 LINE",
"766 507 LINE",
"718 663 OFFCURVE",
"601 759 OFFCURVE",
"421 759 CURVE SMOOTH",
"190 759 OFFCURVE",
"47 602 OFFCURVE",
"47 378 CURVE SMOOTH",
"47 151 OFFCURVE",
"205 -7 OFFCURVE",
"420 -7 CURVE SMOOTH"
);
},
{
closed = 1;
nodes = (
"772 457 LINE",
"772 752 LINE",
"767 752 LINE",
"767 457 LINE"
);
}
);
width = 813;
},
{
anchors = (
{
name = bottom;
position = "{421, 0}";
},
{
name = top;
position = "{421, 732}";
}
);
layerId = "2C5E45D0-97E8-45AA-A5B2-946753DF54E1";
rightMetricsKey = "=O-8";
paths = (
{
closed = 1;
nodes = (
"611 -12 OFFCURVE",
"751 102 OFFCURVE",
"788 277 CURVE",
"683 299 LINE",
"656 171 OFFCURVE",
"556 88 OFFCURVE",
"421 88 CURVE SMOOTH",
"261 88 OFFCURVE",
"150 207 OFFCURVE",
"150 378 CURVE SMOOTH",
"150 547 OFFCURVE",
"261 663 OFFCURVE",
"421 663 CURVE SMOOTH",
"557 663 OFFCURVE",
"658 582 OFFCURVE",
"687 457 CURVE",
"714 546 LINE",
"683 546 LINE",
"661 684 OFFCURVE",
"572 763 OFFCURVE",
"418 763 CURVE SMOOTH",
"198 763 OFFCURVE",
"41 604 OFFCURVE",
"41 378 CURVE SMOOTH",
"41 151 OFFCURVE",
"199 -12 OFFCURVE",
"421 -12 CURVE SMOOTH"
);
},
{
closed = 1;
nodes = (
"789 457 LINE",
"789 752 LINE",
"687 752 LINE",
"687 457 LINE"
);
}
);
width = 822;
},
{
associatedMasterId = "2C5E45D0-97E8-45AA-A5B2-946753DF54E1";
layerId = "ABEBCFEB-F4FD-4F73-B8D5-68177E2D0DDB";
rightMetricsKey = "=O+2";
name = "Jan 3 18, 14:47";
paths = (
{
closed = 1;
nodes = (
"788 457 LINE",
"788 752 LINE",
"686 752 LINE",
"686 457 LINE"
);
},
{
closed = 1;
nodes = (
"686 4 LINE",
"788 4 LINE",
"788 285 LINE",
"686 285 LINE"
);
},
{
closed = 1;
nodes = (
"262 93 OFFCURVE",
"150 209 OFFCURVE",
"150 378 CURVE SMOOTH",
"150 547 OFFCURVE",
"261 663 OFFCURVE",
"421 663 CURVE SMOOTH",
"556 663 OFFCURVE",
"657 582 OFFCURVE",
"686 457 CURVE",
"713 546 LINE",
"682 546 LINE",
"660 684 OFFCURVE",
"571 763 OFFCURVE",
"418 763 CURVE SMOOTH",
"198 763 OFFCURVE",
"41 604 OFFCURVE",
"41 378 CURVE SMOOTH",
"41 152 OFFCURVE",
"199 -7 OFFCURVE",
"422 -7 CURVE SMOOTH",
"572 -7 OFFCURVE",
"660 67 OFFCURVE",
"682 196 CURVE",
"713 196 LINE",
"686 285 LINE",
"657 168 OFFCURVE",
"557 93 OFFCURVE",
"425 93 CURVE SMOOTH"
);
}
);
width = 831;
},
{
anchors = (
{
name = bottom;
position = "{421, 0}";
},
{
name = top;
position = "{426, 772}";
}
);
layerId = "BE4E587A-F76C-447B-AA28-A45E40876AAF";
rightMetricsKey = "=O-2";
paths = (
{
closed = 1;
nodes = (
"649 -14 OFFCURVE",
"810 123 OFFCURVE",
"837 327 CURVE",
"573 364 LINE",
"563 283 OFFCURVE",
"505 229 OFFCURVE",
"426 229 CURVE SMOOTH",
"339 229 OFFCURVE",
"278 294 OFFCURVE",
"278 388 CURVE SMOOTH",
"278 480 OFFCURVE",
"339 543 OFFCURVE",
"430 543 CURVE SMOOTH",
"497 543 OFFCURVE",
"552 508 OFFCURVE",
"573 452 CURVE",
"613 549 LINE",
"565 549 LINE",
"555 709 OFFCURVE",
"487 786 OFFCURVE",
"361 786 CURVE SMOOTH",
"181 786 OFFCURVE",
"11 622 OFFCURVE",
"11 388 CURVE SMOOTH",
"11 151 OFFCURVE",
"181 -14 OFFCURVE",
"426 -14 CURVE SMOOTH"
);
},
{
closed = 1;
nodes = (
"831 452 LINE",
"831 772 LINE",
"573 772 LINE",
"573 452 LINE"
);
}
);
width = 846;
},
{
anchors = (
{
name = bottom;
position = "{433, 0}";
},
{
name = top;
position = "{424, 732}";
}
);
associatedMasterId = "67AEAADB-8447-4819-9D92-8BB76BD22042";
layerId = "01D47734-01C8-4EB1-A4C9-66D12580BF4B";
rightMetricsKey = "=O-12";
name = "{18}";
paths = (
{
closed = 1;
nodes = (
"604 -8 OFFCURVE",
"743 112 OFFCURVE",
"779 294 CURVE",
"760 298 LINE",
"727 125 OFFCURVE",
"594 11 OFFCURVE",
"418 11 CURVE SMOOTH",
"214 11 OFFCURVE",
"66 161 OFFCURVE",
"66 378 CURVE SMOOTH",
"66 592 OFFCURVE",
"204 741 OFFCURVE",
"420 741 CURVE SMOOTH",
"597 741 OFFCURVE",
"722 644 OFFCURVE",
"756 457 CURVE",
"763 523 LINE",
"754 523 LINE",
"717 662 OFFCURVE",
"601 760 OFFCURVE",
"420 760 CURVE SMOOTH",
"193 760 OFFCURVE",
"46 602 OFFCURVE",
"46 378 CURVE SMOOTH",
"46 151 OFFCURVE",
"202 -8 OFFCURVE",
"418 -8 CURVE SMOOTH"
);
},
{
closed = 1;
nodes = (
"774 457 LINE",
"774 752 LINE",
"756 752 LINE",
"756 457 LINE"
);
}
);
width = 813;
}
);
leftKerningGroup = O;
leftMetricsKey = O;
rightKerningGroup = C;
unicode = 0043;
},
{
color = 6;
glyphname = D;
lastChange = "2018-04-25 04:09:28 +0000";
layers = (
{
anchors = (
{
name = bottom;
position = "{393, 0}";
},
{
name = top;
position = "{393, 732}";
}
);
layerId = "67AEAADB-8447-4819-9D92-8BB76BD22042";
paths = (
{
closed = 1;
nodes = (
"381 0 LINE SMOOTH",
"624 0 OFFCURVE",
"778 155 OFFCURVE",
"778 378 CURVE SMOOTH",
"778 598 OFFCURVE",
"624 752 OFFCURVE",
"381 752 CURVE SMOOTH",
"288 752 LINE",
"288 747 LINE",
"381 747 LINE SMOOTH",
"622 747 OFFCURVE",
"773 595 OFFCURVE",
"773 378 CURVE SMOOTH",
"773 158 OFFCURVE",
"622 5 OFFCURVE",
"381 5 CURVE SMOOTH",
"286 5 LINE",
"286 0 LINE"
);
},
{
closed = 1;
nodes = (
"297 0 LINE",
"297 5 LINE",
"174 5 LINE",
"174 747 LINE",
"297 747 LINE",
"297 752 LINE",
"20 752 LINE",
"20 747 LINE",
"169 747 LINE",
"169 5 LINE",
"20 5 LINE",
"20 0 LINE"
);
}
);
width = 825;
},
{
anchors = (
{
name = bottom;
position = "{398, 0}";
},
{
name = top;
position = "{398, 772}";
}
);
layerId = "BE4E587A-F76C-447B-AA28-A45E40876AAF";
paths = (
{
closed = 1;
nodes = (
"411 0 LINE",
"666 0 OFFCURVE",
"836 159 OFFCURVE",
"836 388 CURVE SMOOTH",
"836 613 OFFCURVE",
"666 771 OFFCURVE",
"411 772 CURVE",
"334 772 LINE",
"334 565 LINE",
"405 565 LINE",
"508 565 OFFCURVE",
"569 493 OFFCURVE",
"569 388 CURVE SMOOTH",
"569 281 OFFCURVE",
"508 206 OFFCURVE",
"405 207 CURVE",
"334 207 LINE",
"334 0 LINE"
);
},
{
closed = 1;
nodes = (
"373 0 LINE",
"373 207 LINE",
"336 207 LINE",
"336 565 LINE",
"373 565 LINE",
"373 772 LINE",
"21 772 LINE",
"21 565 LINE",
"78 565 LINE",
"78 207 LINE",
"21 207 LINE",
"21 0 LINE"
);
}
);
width = 847;
},
{
anchors = (
{
name = bottom;
position = "{389, 0}";
},
{
name = top;
position = "{389, 732}";
}
);
layerId = "2C5E45D0-97E8-45AA-A5B2-946753DF54E1";
paths = (
{
closed = 1;
nodes = (
"391 0 LINE SMOOTH",
"622 0 OFFCURVE",
"781 155 OFFCURVE",
"781 378 CURVE SMOOTH",
"781 598 OFFCURVE",
"622 752 OFFCURVE",
"391 752 CURVE SMOOTH",
"333 752 LINE",
"333 659 LINE",
"391 659 LINE SMOOTH",
"558 659 OFFCURVE",
"673 545 OFFCURVE",
"673 378 CURVE SMOOTH",
"673 210 OFFCURVE",
"558 93 OFFCURVE",
"391 93 CURVE SMOOTH",
"333 93 LINE",
"333 0 LINE"
);
},
{
closed = 1;
nodes = (
"365 0 LINE",
"365 93 LINE",
"235 93 LINE",
"235 659 LINE",
"365 659 LINE",
"365 752 LINE",
"23 752 LINE",
"23 659 LINE",
"133 659 LINE",
"133 93 LINE",
"23 93 LINE",
"23 0 LINE"
);
}
);
width = 822;
}
);
leftKerningGroup = H;
leftMetricsKey = H;
rightKerningGroup = O;
rightMetricsKey = O;
unicode = 0044;
},
{
glyphname = Eth;
lastChange = "2018-04-20 14:30:27 +0000";
layers = (
{
components = (
{
name = D;
transform = "{1, 0, 0, 1, 12, 0}";
}
);
layerId = "67AEAADB-8447-4819-9D92-8BB76BD22042";
leftMetricsKey = "=D+12";
paths = (
{
closed = 1;
nodes = (
"75 382 LINE",
"75 377 LINE",
"456 377 LINE",
"456 382 LINE"
);
}
);
width = 837;
},
{
components = (
{
name = D;
transform = "{1, 0, 0, 1, 14, 0}";
}
);
layerId = "2C5E45D0-97E8-45AA-A5B2-946753DF54E1";
leftMetricsKey = "=D+14";
paths = (
{
closed = 1;
nodes = (
"63 424 LINE",
"63 334 LINE",
"458 334 LINE",
"458 424 LINE"
);
}
);
width = 836;
},
{
components = (
{
name = D;
transform = "{1, 0, 0, 1, 5, 0}";
}
);
layerId = "BE4E587A-F76C-447B-AA28-A45E40876AAF";
paths = (
{
closed = 1;
nodes = (
"21 477 LINE",
"21 300 LINE",
"429 300 LINE",
"429 477 LINE"
);
}
);
width = 852;
}
);
leftKerningGroup = H;
leftMetricsKey = D;
rightKerningGroup = O;
rightMetricsKey = D;
unicode = 00D0;
},
{
glyphname = E;
lastChange = "2018-04-25 04:10:38 +0000";
layers = (
{
anchors = (
{
name = bottom;
position = "{408, 0}";
},
{
name = ogonek;
position = "{801, 0}";
},
{
name = top;
position = "{408, 732}";
}
);
layerId = "67AEAADB-8447-4819-9D92-8BB76BD22042";
rightMetricsKey = "=H+12";
paths = (
{
closed = 1;
nodes = (
"171 382 LINE",
"171 377 LINE",
"512 377 LINE",
"512 382 LINE"
);
},
{
closed = 1;
nodes = (
"706 5 LINE",
"174 5 LINE",
"174 747 LINE",
"697 747 LINE",
"697 565 LINE",
"702 565 LINE",
"702 752 LINE",
"20 752 LINE",
"20 747 LINE",
"169 747 LINE",
"169 5 LINE",
"20 5 LINE",
"20 0 LINE",
"711 0 LINE",
"711 187 LINE",
"706 187 LINE"
);
}
);
width = 743;
},
{
anchors = (
{
name = bottom;
position = "{427, 0}";
},
{
name = ogonek;
position = "{814, 0}";
},
{
name = top;
position = "{427, 772}";
}
);
layerId = "BE4E587A-F76C-447B-AA28-A45E40876AAF";
rightMetricsKey = "=H+12";
paths = (
{
closed = 1;
nodes = (
"205 477 LINE",
"205 300 LINE",
"489 300 LINE",
"489 477 LINE"
);
},
{
closed = 1;
nodes = (
"556 207 LINE",
"336 207 LINE",
"336 565 LINE",
"547 565 LINE",
"547 445 LINE",
"805 445 LINE",
"805 772 LINE",
"21 772 LINE",
"21 565 LINE",
"78 565 LINE",
"78 207 LINE",
"21 207 LINE",
"21 0 LINE",
"814 0 LINE",
"814 327 LINE",
"556 327 LINE"
);
}
);
width = 847;
},
{
anchors = (
{
name = bottom;
position = "{395, 0}";
},
{
name = ogonek;
position = "{733, 0}";
},
{
name = top;
position = "{395, 732}";
}
);
layerId = "2C5E45D0-97E8-45AA-A5B2-946753DF54E1";
leftMetricsKey = "=H";
rightMetricsKey = "=H+28";
paths = (
{
closed = 1;
nodes = (
"191 424 LINE",
"191 334 LINE",
"533 334 LINE",
"533 424 LINE"
);
},
{
closed = 1;
nodes = (
"631 93 LINE",
"235 93 LINE",
"235 659 LINE",
"622 659 LINE",
"622 525 LINE",
"724 525 LINE",
"724 752 LINE",
"23 752 LINE",
"23 659 LINE",
"133 659 LINE",
"133 93 LINE",
"23 93 LINE",
"23 0 LINE",
"733 0 LINE",
"733 227 LINE",
"631 227 LINE"
);
}
);
width = 784;
}
);
leftKerningGroup = H;
leftMetricsKey = H;
rightKerningGroup = E;
unicode = 0045;
},
{
glyphname = F;
lastChange = "2018-04-25 04:11:17 +0000";
layers = (
{
anchors = (
{
name = bottom;
position = "{365, 0}";
},
{
name = top;
position = "{365, 732}";
}
);
layerId = "67AEAADB-8447-4819-9D92-8BB76BD22042";
rightMetricsKey = "=H-2";
paths = (
{
closed = 1;
nodes = (
"171 382 LINE",
"171 377 LINE",
"495 377 LINE",
"495 382 LINE"
);
},
{
closed = 1;
nodes = (
"20 752 LINE",
"20 747 LINE",
"169 747 LINE",
"169 5 LINE",
"20 5 LINE",
"20 0 LINE",
"337 0 LINE",
"337 5 LINE",
"174 5 LINE",
"174 747 LINE",
"665 747 LINE",
"665 565 LINE",
"670 565 LINE",
"670 752 LINE"
);
}
);
width = 688;
},
{
anchors = (
{
name = bottom;
position = "{420, 0}";
},
{
name = top;
position = "{420, 772}";
}
);
layerId = "BE4E587A-F76C-447B-AA28-A45E40876AAF";
rightMetricsKey = "=H-12";
paths = (
{
closed = 1;
nodes = (
"205 477 LINE",
"205 300 LINE",
"471 300 LINE",
"471 477 LINE"
);
},
{
closed = 1;
nodes = (
"21 772 LINE",
"21 565 LINE",
"78 565 LINE",
"78 207 LINE",
"21 207 LINE",
"21 0 LINE",
"451 0 LINE",
"451 207 LINE",
"336 207 LINE",
"336 565 LINE",
"523 565 LINE",
"523 435 LINE",
"781 435 LINE",
"781 772 LINE"
);
}
);
width = 790;
},
{
anchors = (
{
name = bottom;
position = "{365, 0}";
},
{
name = top;
position = "{365, 732}";
}
);
layerId = "2C5E45D0-97E8-45AA-A5B2-946753DF54E1";
leftMetricsKey = "=H";
rightMetricsKey = "=H-6";
paths = (
{
closed = 1;
nodes = (
"191 424 LINE",
"191 334 LINE",
"488 334 LINE",
"488 424 LINE"
);
},
{
closed = 1;
nodes = (
"23 752 LINE",
"23 659 LINE",
"133 659 LINE",
"133 93 LINE",
"23 93 LINE",
"23 0 LINE",
"373 0 LINE",
"373 93 LINE",
"235 93 LINE",
"235 659 LINE",
"580 659 LINE",
"580 525 LINE",
"682 525 LINE",
"682 752 LINE"
);
}
);
width = 699;
}
);
leftKerningGroup = H;
leftMetricsKey = H;
rightKerningGroup = F;
unicode = 0046;
},
{
color = 7;
glyphname = G;
lastChange = "2018-04-27 00:18:23 +0000";
layers = (
{
anchors = (
{
name = bottom;
position = "{415, 0}";
},
{
name = top;
position = "{415, 732}";
}
);
layerId = "67AEAADB-8447-4819-9D92-8BB76BD22042";
rightMetricsKey = "=H-8";
paths = (
{
closed = 1;
nodes = (
"610 -7 OFFCURVE",
"756 132 OFFCURVE",
"777 340 CURVE",
"773 341 LINE",
"751 134 OFFCURVE",
"607 -2 OFFCURVE",
"417 -2 CURVE SMOOTH",
"206 -2 OFFCURVE",
"52 154 OFFCURVE",
"52 378 CURVE SMOOTH",
"52 599 OFFCURVE",
"197 754 OFFCURVE",
"425 754 CURVE SMOOTH",
"608 754 OFFCURVE",
"732 654 OFFCURVE",
"767 457 CURVE",
"771 480 LINE",
"766 480 LINE",
"730 655 OFFCURVE",
"612 759 OFFCURVE",
"425 759 CURVE SMOOTH",
"194 759 OFFCURVE",
"47 602 OFFCURVE",
"47 378 CURVE SMOOTH",
"47 151 OFFCURVE",
"203 -7 OFFCURVE",
"417 -7 CURVE SMOOTH"
);
},
{
closed = 1;
nodes = (
"778 0 LINE",
"778 343 LINE",
"773 343 LINE",
"773 324 LINE",
"773 0 LINE"
);
},
{
closed = 1;
nodes = (
"872 340 LINE",
"872 345 LINE",
"478 345 LINE",
"478 340 LINE"
);
},
{
closed = 1;
nodes = (
"772 457 LINE",
"772 752 LINE",
"767 752 LINE",
"767 457 LINE"
);
}
);
width = 884;
},
{
anchors = (
{
name = bottom;
position = "{453, 0}";
},
{
name = top;
position = "{453, 772}";
}
);
layerId = "BE4E587A-F76C-447B-AA28-A45E40876AAF";
paths = (
{
closed = 1;
nodes = (
"605 -14 OFFCURVE",
"713 91 OFFCURVE",
"737 327 CURVE",
"625 334 LINE",
"594 267 OFFCURVE",
"520 223 OFFCURVE",
"439 223 CURVE SMOOTH",
"337 223 OFFCURVE",
"278 290 OFFCURVE",
"278 388 CURVE SMOOTH",
"278 480 OFFCURVE",
"341 543 OFFCURVE",
"434 543 CURVE SMOOTH",
"500 543 OFFCURVE",
"553 512 OFFCURVE",
"573 462 CURVE",
"613 559 LINE",
"565 559 LINE",
"555 712 OFFCURVE",
"487 786 OFFCURVE",
"363 786 CURVE SMOOTH",
"181 786 OFFCURVE",
"11 622 OFFCURVE",
"11 388 CURVE SMOOTH",
"11 151 OFFCURVE",
"181 -14 OFFCURVE",
"418 -14 CURVE SMOOTH"
);
},
{
closed = 1;
nodes = (
"837 0 LINE",
"837 368 LINE",
"579 368 LINE",
"579 226 LINE",
"693 0 LINE"
);
},
{
closed = 1;
nodes = (
"892 277 LINE",
"892 436 LINE",
"404 436 LINE",
"404 277 LINE"
);
},
{
closed = 1;
nodes = (
"831 462 LINE",
"831 772 LINE",
"573 772 LINE",
"573 462 LINE"
);
}
);
width = 905;
},
{
anchors = (
{
name = bottom;
position = "{420, 0}";
},
{
name = top;
position = "{428, 732}";
}
);
layerId = "2C5E45D0-97E8-45AA-A5B2-946753DF54E1";
rightMetricsKey = "=H-19";
paths = (
{
closed = 1;
nodes = (
"598 -11 OFFCURVE",
"733 103 OFFCURVE",
"770 277 CURVE",
"692 299 LINE",
"662 172 OFFCURVE",
"560 89 OFFCURVE",
"421 89 CURVE SMOOTH",
"261 89 OFFCURVE",
"150 208 OFFCURVE",
"150 378 CURVE SMOOTH",
"150 547 OFFCURVE",
"261 663 OFFCURVE",
"421 663 CURVE SMOOTH",
"556 663 OFFCURVE",
"657 582 OFFCURVE",
"686 457 CURVE",
"713 546 LINE",
"682 546 LINE",
"660 684 OFFCURVE",
"571 763 OFFCURVE",
"418 763 CURVE SMOOTH",
"198 763 OFFCURVE",
"41 604 OFFCURVE",
"41 378 CURVE SMOOTH",
"41 153 OFFCURVE",
"198 -11 OFFCURVE",
"416 -11 CURVE SMOOTH"
);
},
{
closed = 1;
nodes = (
"792 0 LINE",
"792 368 LINE",
"690 368 LINE",
"690 116 LINE",
"727 0 LINE"
);
},
{
closed = 1;
nodes = (
"901 278 LINE",
"901 371 LINE",
"494 371 LINE",
"494 278 LINE"
);
},
{
closed = 1;
nodes = (
"788 457 LINE",
"788 752 LINE",
"686 752 LINE",
"686 457 LINE"
);
}
);
width = 905;
},
{
associatedMasterId = "2C5E45D0-97E8-45AA-A5B2-946753DF54E1";
layerId = "5EAA0A0D-DF81-4506-9706-629629C5BCC5";
rightMetricsKey = "=H-20";
name = "Dec 25 17, 01:58";
paths = (
{
closed = 1;
nodes = (
"789 0 LINE",
"789 368 LINE",
"687 368 LINE",
"687 0 LINE"
);
},
{
closed = 1;
nodes = (
"902 278 LINE",
"902 371 LINE",
"495 371 LINE",
"495 278 LINE"
);
},
{
closed = 1;
nodes = (
"789 457 LINE",
"789 752 LINE",
"687 752 LINE",
"687 457 LINE"
);
},
{
closed = 1;
nodes = (
"263 89 OFFCURVE",
"152 206 OFFCURVE",
"151 376 CURVE SMOOTH",
"151 546 OFFCURVE",
"262 663 OFFCURVE",
"422 663 CURVE SMOOTH",
"557 663 OFFCURVE",
"658 582 OFFCURVE",
"687 457 CURVE",
"714 546 LINE",
"683 546 LINE",
"661 684 OFFCURVE",
"572 763 OFFCURVE",
"419 763 CURVE SMOOTH",
"199 763 OFFCURVE",
"42 603 OFFCURVE",
"42 376 CURVE SMOOTH",
"42 149 OFFCURVE",
"199 -11 OFFCURVE",
"419 -11 CURVE SMOOTH",
"572 -11 OFFCURVE",
"661 68 OFFCURVE",
"683 206 CURVE",
"714 206 LINE",
"687 295 LINE",
"658 170 OFFCURVE",
"557 89 OFFCURVE",
"422 89 CURVE SMOOTH"
);
}
);
width = 912;
},
{
anchors = (
{
name = bottom;
position = "{363, 0}";
},
{
name = top;
position = "{418, 732}";
}
);
associatedMasterId = "67AEAADB-8447-4819-9D92-8BB76BD22042";
layerId = "6F48D09F-76B3-4A76-9440-FF62DA06DCD1";
rightMetricsKey = "=H-8";
name = "Light [9off]";
paths = (
{
closed = 1;
nodes = (
"612 -7 OFFCURVE",
"756 130 OFFCURVE",
"777 340 CURVE",
"773 341 LINE",
"751 134 OFFCURVE",
"607 -2 OFFCURVE",
"417 -2 CURVE SMOOTH",
"206 -2 OFFCURVE",
"52 154 OFFCURVE",
"52 378 CURVE SMOOTH",
"52 599 OFFCURVE",
"197 754 OFFCURVE",
"425 754 CURVE SMOOTH",
"606 754 OFFCURVE",
"732 654 OFFCURVE",
"767 457 CURVE",
"771 507 LINE",
"766 507 LINE",
"732 657 OFFCURVE",
"612 759 OFFCURVE",
"425 759 CURVE SMOOTH",
"194 759 OFFCURVE",
"47 602 OFFCURVE",
"47 378 CURVE SMOOTH",
"47 151 OFFCURVE",
"203 -7 OFFCURVE",
"417 -7 CURVE SMOOTH"
);
},
{
closed = 1;
nodes = (
"778 0 LINE",
"778 343 LINE",
"773 343 LINE",
"773 324 LINE",
"773 0 LINE"
);
},
{
closed = 1;
nodes = (
"872 340 LINE",
"872 345 LINE",
"478 345 LINE",
"478 340 LINE"
);
},
{
closed = 1;
nodes = (
"772 457 LINE",
"772 752 LINE",
"767 752 LINE",
"767 457 LINE"
);
}
);
width = 884;
},
{
anchors = (
{
name = bottom;
position = "{371, 0}";
},
{
name = top;
position = "{419, 732}";
}
);
associatedMasterId = "67AEAADB-8447-4819-9D92-8BB76BD22042";
layerId = "E0455018-4226-4935-B6A7-31F7B5D68DAA";
rightMetricsKey = "=H-8";
name = "{18}";
paths = (
{
closed = 1;
nodes = (
"608 -8 OFFCURVE",
"753 128 OFFCURVE",
"776 331 CURVE",
"762 335 LINE",
"739 139 OFFCURVE",
"600 11 OFFCURVE",
"418 11 CURVE SMOOTH",
"214 11 OFFCURVE",
"66 162 OFFCURVE",
"66 378 CURVE SMOOTH",
"66 592 OFFCURVE",
"206 741 OFFCURVE",
"424 741 CURVE SMOOTH",
"601 741 OFFCURVE",
"722 644 OFFCURVE",
"756 457 CURVE",
"763 523 LINE",
"754 523 LINE",
"717 661 OFFCURVE",
"606 760 OFFCURVE",
"424 760 CURVE SMOOTH",
"195 760 OFFCURVE",
"46 602 OFFCURVE",
"46 378 CURVE SMOOTH",
"46 151 OFFCURVE",
"202 -8 OFFCURVE",
"417 -8 CURVE SMOOTH"
);
},
{
closed = 1;
nodes = (
"780 0 LINE",
"780 346 LINE",
"761 346 LINE",
"761 295 LINE",
"767 0 LINE"
);
},
{
closed = 1;
nodes = (
"876 331 LINE",
"876 349 LINE",
"480 349 LINE",
"480 331 LINE"
);
},
{
closed = 1;
nodes = (
"774 457 LINE",
"774 752 LINE",
"756 752 LINE",
"756 457 LINE"
);
}
);
width = 888;
}
);
leftKerningGroup = O;
leftMetricsKey = O;
rightKerningGroup = G;
rightMetricsKey = "=H-8";
unicode = 0047;
},
{
glyphname = H;
lastChange = "2018-04-25 04:12:35 +0000";
layers = (
{
anchors = (
{
name = bottom;
position = "{457, 0}";
},
{
name = top;
position = "{456, 732}";
}
);
layerId = "67AEAADB-8447-4819-9D92-8BB76BD22042";
leftMetricsKey = "=l-19";
paths = (
{
closed = 1;
nodes = (
"171 382 LINE",
"171 377 LINE",
"741 377 LINE",
"741 382 LINE"
);
},
{
closed = 1;
nodes = (
"169 747 LINE",
"169 5 LINE",
"20 5 LINE",
"20 0 LINE",
"322 0 LINE",
"322 5 LINE",
"174 5 LINE",
"174 747 LINE",
"322 747 LINE",
"322 752 LINE",
"20 752 LINE",
"20 747 LINE"
);
},
{
closed = 1;
nodes = (
"740 747 LINE",
"740 5 LINE",
"591 5 LINE",
"591 0 LINE",
"893 0 LINE",
"893 5 LINE",
"745 5 LINE",
"745 747 LINE",
"893 747 LINE",
"893 752 LINE",
"591 752 LINE",
"591 747 LINE"
);
}
);
width = 913;
},
{
anchors = (
{
name = bottom;
position = "{438, 0}";
},
{
name = top;
position = "{438, 772}";
}
);
layerId = "BE4E587A-F76C-447B-AA28-A45E40876AAF";
leftMetricsKey = "=l+4";
rightMetricsKey = "=|l+4";
paths = (
{
closed = 1;
nodes = (
"205 477 LINE",
"205 300 LINE",
"661 300 LINE",
"661 477 LINE"
);
},
{
closed = 1;
nodes = (
"78 565 LINE",
"78 207 LINE",
"21 207 LINE",
"21 0 LINE",
"393 0 LINE",
"393 207 LINE",
"336 207 LINE",
"336 565 LINE",
"393 565 LINE",
"393 772 LINE",
"21 772 LINE",
"21 565 LINE"
);
},
{
closed = 1;
nodes = (
"540 565 LINE",
"540 207 LINE",
"483 207 LINE",
"483 0 LINE",
"855 0 LINE",
"855 207 LINE",
"798 207 LINE",
"798 565 LINE",
"855 565 LINE",
"855 772 LINE",
"483 772 LINE",
"483 565 LINE"
);
}
);
width = 876;
},
{
anchors = (
{
name = bottom;
position = "{439, 0}";
},
{
name = top;
position = "{439, 732}";
}
);
layerId = "2C5E45D0-97E8-45AA-A5B2-946753DF54E1";
leftMetricsKey = "=l-6";
rightMetricsKey = "=|";
paths = (
{
closed = 1;
nodes = (
"191 424 LINE",
"191 334 LINE",
"677 334 LINE",
"677 424 LINE"
);
},
{
closed = 1;
nodes = (
"133 659 LINE",
"133 93 LINE",
"23 93 LINE",
"23 0 LINE",
"345 0 LINE",
"345 93 LINE",
"235 93 LINE",
"235 659 LINE",
"345 659 LINE",
"345 752 LINE",
"23 752 LINE",
"23 659 LINE"
);
},
{
closed = 1;
nodes = (
"643 659 LINE",
"643 93 LINE",
"533 93 LINE",
"533 0 LINE",
"855 0 LINE",
"855 93 LINE",
"745 93 LINE",
"745 659 LINE",
"855 659 LINE",
"855 752 LINE",
"533 752 LINE",
"533 659 LINE"
);
}
);
width = 878;
}
);
leftKerningGroup = H;
leftMetricsKey = l;
rightKerningGroup = H;
rightMetricsKey = "=|";
unicode = 0048;
},
{
glyphname = Hbar;
lastChange = "2018-04-20 14:15:34 +0000";
layers = (
{
components = (
{
name = H;
},
{
name = strokelongcomb;
transform = "{1, 0, 0, 1, 6, 0}";
}
);
layerId = "67AEAADB-8447-4819-9D92-8BB76BD22042";
width = 913;
},
{
components = (
{
name = H;
},
{
name = strokelongcomb;
transform = "{1, 0, 0, 1, 21, 0}";
}
);
layerId = "2C5E45D0-97E8-45AA-A5B2-946753DF54E1";
width = 878;
},
{
associatedMasterId = "BE4E587A-F76C-447B-AA28-A45E40876AAF";
components = (
{
name = H;
}
);
layerId = "72445A26-9631-4F42-ACC4-6356C4616E5A";
name = "Feb 18 18, 21:24";
paths = (
{
closed = 1;
nodes = (
"16 479 LINE",
"16 302 LINE",
"850 302 LINE",
"850 479 LINE"
);
}
);
width = 866;
},
{
components = (
{
name = H;
},
{
name = strokelongcomb;
transform = "{1, 0, 0, 1, -11, 0}";
}
);
layerId = "BE4E587A-F76C-447B-AA28-A45E40876AAF";
width = 876;
}
);
leftKerningGroup = H;
leftMetricsKey = H;
rightKerningGroup = H;
rightMetricsKey = H;
unicode = 0126;
},
{
glyphname = I;
lastChange = "2018-04-25 04:13:45 +0000";
layers = (
{
anchors = (
{
name = bottom;
position = "{172, 0}";
},
{
name = ogonek;
position = "{175, 0}";
},
{
name = top;
position = "{173, 732}";
}
);
layerId = "67AEAADB-8447-4819-9D92-8BB76BD22042";
paths = (
{
closed = 1;
nodes = (
"169 747 LINE",
"169 5 LINE",
"20 5 LINE",
"20 0 LINE",
"323 0 LINE",
"323 5 LINE",
"174 5 LINE",
"174 747 LINE",
"323 747 LINE",
"323 752 LINE",
"20 752 LINE",
"20 747 LINE"
);
}
);
width = 343;
},
{
anchors = (
{
name = bottom;
position = "{213, 0}";
},
{
name = ogonek;
position = "{285, 0}";
},
{
name = top;
position = "{213, 752}";
}
);
layerId = "BE4E587A-F76C-447B-AA28-A45E40876AAF";
paths = (
{
closed = 1;
nodes = (
"78 565 LINE",
"78 207 LINE",
"21 207 LINE",
"21 0 LINE",
"393 0 LINE",
"393 207 LINE",
"336 207 LINE",
"336 565 LINE",
"393 565 LINE",
"393 772 LINE",
"21 772 LINE",
"21 565 LINE"
);
}
);
width = 414;
},
{
anchors = (
{
name = bottom;
position = "{184, 0}";
},
{
name = ogonek;
position = "{258, 0}";
},
{
name = top;
position = "{184, 732}";
}
);
layerId = "2C5E45D0-97E8-45AA-A5B2-946753DF54E1";
paths = (
{
closed = 1;
nodes = (
"133 659 LINE",
"133 93 LINE",
"23 93 LINE",
"23 0 LINE",
"345 0 LINE",
"345 93 LINE",
"235 93 LINE",
"235 659 LINE",
"345 659 LINE",
"345 752 LINE",
"23 752 LINE",
"23 659 LINE"
);
}
);
width = 368;
}
);
leftKerningGroup = H;
leftMetricsKey = H;
rightKerningGroup = H;
rightMetricsKey = H;
unicode = 0049;
},
{
color = 6;
glyphname = J;
lastChange = "2018-04-25 04:14:27 +0000";
layers = (
{
anchors = (
{
name = bottom;
position = "{214, 0}";
},
{
name = top;
position = "{392, 724}";
}
);
layerId = "67AEAADB-8447-4819-9D92-8BB76BD22042";
leftMetricsKey = "=|F";
rightMetricsKey = "=H-18";
paths = (
{
closed = 1;
nodes = (
"329 -7 OFFCURVE",
"396 73 OFFCURVE",
"396 219 CURVE SMOOTH",
"396 747 LINE",
"545 747 LINE",
"545 752 LINE",
"222 752 LINE",
"222 747 LINE",
"391 747 LINE",
"391 219 LINE SMOOTH",
"391 75 OFFCURVE",
"326 -2 OFFCURVE",
"204 -2 CURVE SMOOTH",
"83 -2 OFFCURVE",
"23 76 OFFCURVE",
"23 219 CURVE SMOOTH",
"23 280 LINE",
"18 280 LINE",
"18 219 LINE SMOOTH",
"18 73 OFFCURVE",
"80 -7 OFFCURVE",
"204 -7 CURVE SMOOTH"
);
}
);
width = 547;
},
{
anchors = (
{
name = bottom;
position = "{300, 0}";
},
{
name = top;
position = "{444, 772}";
}
);
layerId = "BE4E587A-F76C-447B-AA28-A45E40876AAF";
leftMetricsKey = "=|F";
rightMetricsKey = "=H-6";
paths = (
{
closed = 1;
nodes = (
"494 -10 OFFCURVE",
"579 105 OFFCURVE",
"579 278 CURVE SMOOTH",
"579 565 LINE",
"636 565 LINE",
"636 772 LINE",
"235 772 LINE",
"235 565 LINE",
"321 565 LINE",
"321 279 LINE SMOOTH",
"321 250 OFFCURVE",
"313 233 OFFCURVE",
"294 233 CURVE SMOOTH",
"275 233 OFFCURVE",
"267 250 OFFCURVE",
"267 279 CURVE SMOOTH",
"267 312 LINE",
"9 312 LINE",
"9 279 LINE SMOOTH",
"9 98 OFFCURVE",
"93 -10 OFFCURVE",
"294 -10 CURVE SMOOTH"
);
}
);
width = 651;
},
{
anchors = (
{
name = bottom;
position = "{280, 0}";
},
{
name = top;
position = "{390, 732}";
}
);
layerId = "2C5E45D0-97E8-45AA-A5B2-946753DF54E1";
leftMetricsKey = "=|F";
rightMetricsKey = "=H-16";
paths = (
{
closed = 1;
nodes = (
"377 -10 OFFCURVE",
"443 81 OFFCURVE",
"443 226 CURVE SMOOTH",
"443 659 LINE",
"553 659 LINE",
"553 752 LINE",
"209 752 LINE",
"209 659 LINE",
"341 659 LINE",
"341 227 LINE SMOOTH",
"341 134 OFFCURVE",
"303 90 OFFCURVE",
"230 90 CURVE SMOOTH",
"157 90 OFFCURVE",
"119 136 OFFCURVE",
"119 227 CURVE SMOOTH",
"119 280 LINE",
"17 280 LINE",
"17 227 LINE SMOOTH",
"17 75 OFFCURVE",
"80 -10 OFFCURVE",
"231 -10 CURVE SMOOTH"
);
}
);
width = 560;
}
);
leftKerningGroup = J;
rightKerningGroup = J;
unicode = 004A;
},
{
glyphname = K;
lastChange = "2018-04-25 04:15:09 +0000";
layers = (
{
anchors = (
{
name = bottom;
position = "{435, 0}";
},
{
name = top;
position = "{435, 732}";
}
);
layerId = "67AEAADB-8447-4819-9D92-8BB76BD22042";
paths = (
{
closed = 1;
nodes = (
"169 747 LINE",
"169 5 LINE",
"20 5 LINE",
"20 0 LINE",
"323 0 LINE",
"323 5 LINE",
"174 5 LINE",
"174 747 LINE",
"323 747 LINE",
"323 752 LINE",
"20 752 LINE",
"20 747 LINE"
);
},
{
closed = 1;
nodes = (
"414 448 LINE",
"791 5 LINE",
"534 5 LINE",
"534 0 LINE",
"879 0 LINE",
"879 5 LINE",
"797 5 LINE",
"419 450 LINE"
);
},
{
closed = 1;
nodes = (
"172 219 LINE",
"742 747 LINE",
"847 747 LINE",
"847 752 LINE",
"484 752 LINE",
"484 747 LINE",
"735 747 LINE",
"170 224 LINE"
);
}
);
width = 909;
},
{
anchors = (
{
name = bottom;
position = "{462, 0}";
},
{
name = top;
position = "{462, 772}";
}
);
layerId = "BE4E587A-F76C-447B-AA28-A45E40876AAF";
paths = (
{
closed = 1;
nodes = (
"76 565 LINE",
"76 207 LINE",
"21 207 LINE",
"21 0 LINE",
"389 0 LINE",
"389 207 LINE",
"334 207 LINE",
"334 565 LINE",
"389 565 LINE",
"389 772 LINE",
"21 772 LINE",
"21 565 LINE"
);
},
{
closed = 1;
nodes = (
"401 385 LINE",
"538 207 LINE",
"445 207 LINE",
"445 0 LINE",
"929 0 LINE",
"929 207 LINE",
"876 207 LINE",
"638 483 LINE"
);
},
{
closed = 1;
nodes = (
"315 211 LINE",
"844 565 LINE",
"904 565 LINE",
"904 772 LINE",
"445 772 LINE",
"445 565 LINE",
"519 565 LINE",
"219 354 LINE"
);
}
);
width = 942;
},
{
anchors = (
{
name = bottom;
position = "{422, 0}";
},
{
name = top;
position = "{422, 732}";
}
);
layerId = "2C5E45D0-97E8-45AA-A5B2-946753DF54E1";
paths = (
{
closed = 1;
nodes = (
"133 659 LINE",
"133 93 LINE",
"23 93 LINE",
"23 0 LINE",
"345 0 LINE",
"345 93 LINE",
"235 93 LINE",
"235 659 LINE",
"345 659 LINE",
"345 752 LINE",
"23 752 LINE",
"23 659 LINE"
);
},
{
closed = 1;
nodes = (
"363 385 LINE",
"618 93 LINE",
"423 93 LINE",
"423 0 LINE",
"858 0 LINE",
"858 93 LINE",
"748 93 LINE",
"422 463 LINE"
);
},
{
closed = 1;
nodes = (
"214 211 LINE",
"713 659 LINE",
"811 659 LINE",
"811 752 LINE",
"423 752 LINE",
"423 659 LINE",
"579 659 LINE",
"178 295 LINE"
);
}
);
width = 865;
}
);
leftKerningGroup = H;
leftMetricsKey = H;
rightKerningGroup = K;
rightMetricsKey = A;
unicode = 004B;
},
{
glyphname = L;
lastChange = "2018-04-25 04:16:30 +0000";
layers = (
{
anchors = (
{
name = bottom;
position = "{349, 0}";
},
{
name = right;
position = "{361, 369}";
},
{
name = top;
position = "{175, 732}";
}
);
layerId = "67AEAADB-8447-4819-9D92-8BB76BD22042";
paths = (
{
closed = 1;
nodes = (
"169 747 LINE",
"169 5 LINE",
"20 5 LINE",
"20 0 LINE",
"626 0 LINE",
"626 5 LINE",
"174 5 LINE",
"174 747 LINE",
"323 747 LINE",
"323 752 LINE",
"20 752 LINE",
"20 747 LINE"
);
},
{
closed = 1;
nodes = (
"623 245 LINE",
"623 0 LINE",
"628 0 LINE",
"628 245 LINE"
);
}
);
width = 646;
},
{
anchors = (
{
name = bottom;
position = "{393, 0}";
},
{
name = right;
position = "{539, 561}";
},
{
name = top;
position = "{221, 772}";
}
);
layerId = "BE4E587A-F76C-447B-AA28-A45E40876AAF";
paths = (
{
closed = 1;
nodes = (
"78 565 LINE",
"78 207 LINE",
"21 207 LINE",
"21 0 LINE",
"578 0 LINE",
"578 207 LINE",
"336 207 LINE",
"336 565 LINE",
"393 565 LINE",
"393 772 LINE",
"21 772 LINE",
"21 565 LINE"
);
},
{
closed = 1;
nodes = (
"490 368 LINE",
"490 0 LINE",
"748 0 LINE",
"748 368 LINE"
);
}
);
width = 757;
},
{
anchors = (
{
name = bottom;
position = "{340, 0}";
},
{
name = right;
position = "{350, 498}";
},
{
name = top;
position = "{195, 732}";
}
);
layerId = "2C5E45D0-97E8-45AA-A5B2-946753DF54E1";
paths = (
{
closed = 1;
nodes = (
"133 659 LINE",
"133 93 LINE",
"23 93 LINE",
"23 0 LINE",
"580 0 LINE",
"580 93 LINE",
"235 93 LINE",
"235 659 LINE",
"350 659 LINE",
"350 752 LINE",
"23 752 LINE",
"23 659 LINE"
);
},
{
closed = 1;
nodes = (
"540 253 LINE",
"540 0 LINE",
"642 0 LINE",
"642 253 LINE"
);
}
);
width = 659;
}
);
leftKerningGroup = H;
leftMetricsKey = H;
rightKerningGroup = L;
rightMetricsKey = F;
unicode = 004C;
},
{
color = 9;
glyphname = M;
lastChange = "2018-04-27 00:17:47 +0000";
layers = (
{
anchors = (
{
name = bottom;
position = "{538, 0}";
},
{
name = top;
position = "{538, 732}";
}
);
layerId = "67AEAADB-8447-4819-9D92-8BB76BD22042";
paths = (
{
closed = 1;
nodes = (
"542 0 LINE",
"902 752 LINE",
"896 752 LINE",
"536 0 LINE",
"540 0 LINE",
"180 752 LINE",
"174 752 LINE",
"534 0 LINE"
);
},
{
closed = 1;
nodes = (
"323 0 LINE",
"323 5 LINE",
"174 5 LINE",
"174 747 LINE",
"179 747 LINE",
"179 752 LINE",
"20 752 LINE",
"20 747 LINE",
"169 747 LINE",
"169 5 LINE",
"20 5 LINE",
"20 0 LINE"
);
},
{
closed = 1;
nodes = (
"1056 0 LINE",
"1056 5 LINE",
"907 5 LINE",
"907 747 LINE",
"1056 747 LINE",
"1056 752 LINE",
"897 752 LINE",
"897 747 LINE",
"902 747 LINE",
"902 5 LINE",
"753 5 LINE",
"753 0 LINE"
);
}
);
width = 1076;
},
{
anchors = (
{
name = bottom;
position = "{550, 0}";
},
{
name = top;
position = "{550, 772}";
}
);
layerId = "BE4E587A-F76C-447B-AA28-A45E40876AAF";
paths = (
{
closed = 1;
nodes = (
"635 0 LINE",
"808 772 LINE",
"633 772 LINE",
"551 304 LINE",
"620 296 LINE",
"530 772 LINE",
"242 772 LINE",
"415 0 LINE"
);
},
{
closed = 1;
nodes = (
"334 0 LINE",
"334 207 LINE",
"284 207 LINE",
"284 565 LINE",
"315 565 LINE",
"500 772 LINE",
"21 772 LINE",
"21 565 LINE",
"76 565 LINE",
"76 207 LINE",
"21 207 LINE",
"21 0 LINE"
);
},
{
closed = 1;
nodes = (
"1079 0 LINE",
"1079 207 LINE",
"1024 207 LINE",
"1024 565 LINE",
"1079 565 LINE",
"1079 772 LINE",
"633 772 LINE",
"735 565 LINE",
"766 565 LINE",
"766 207 LINE",
"716 207 LINE",
"716 0 LINE"
);
}
);
width = 1100;
},
{
anchors = (
{
name = bottom;
position = "{524, 0}";
},
{
name = top;
position = "{524, 732}";
}
);
layerId = "2C5E45D0-97E8-45AA-A5B2-946753DF54E1";
paths = (
{
closed = 1;
nodes = (
"574 0 LINE",
"811 665 LINE",
"739 752 LINE",
"510 100 LINE",
"538 100 LINE",
"311 752 LINE",
"232 665 LINE",
"466 0 LINE"
);
},
{
closed = 1;
nodes = (
"346 0 LINE",
"346 93 LINE",
"230 93 LINE",
"230 659 LINE",
"296 659 LINE",
"311 752 LINE",
"23 752 LINE",
"23 659 LINE",
"133 659 LINE",
"133 93 LINE",
"23 93 LINE",
"23 0 LINE"
);
},
{
closed = 1;
nodes = (
"1025 0 LINE",
"1025 93 LINE",
"915 93 LINE",
"915 659 LINE",
"1025 659 LINE",
"1025 752 LINE",
"739 752 LINE",
"738 659 LINE",
"813 659 LINE",
"813 93 LINE",
"693 93 LINE",
"693 0 LINE"
);
}
);
width = 1048;
},
{
associatedMasterId = "2C5E45D0-97E8-45AA-A5B2-946753DF54E1";
layerId = "22FEF5ED-B20E-46B2-9016-5B6A811F902C";
name = "Feb 23 18, 15:39";
paths = (
{
closed = 1;
nodes = (
"603 0 LINE",
"840 665 LINE",
"761 752 LINE",
"544 100 LINE",
"603 143 LINE",
"509 143 LINE",
"569 100 LINE",
"345 752 LINE",
"266 665 LINE",
"503 0 LINE"
);
},
{
closed = 1;
nodes = (
"374 0 LINE",
"374 93 LINE",
"264 93 LINE",
"264 659 LINE",
"333 659 LINE",
"345 752 LINE",
"52 752 LINE",
"52 659 LINE",
"162 659 LINE",
"162 93 LINE",
"52 93 LINE",
"52 0 LINE"
);
},
{
closed = 1;
nodes = (
"1054 0 LINE",
"1054 93 LINE",
"944 93 LINE",
"944 659 LINE",
"1054 659 LINE",
"1054 752 LINE",
"761 752 LINE",
"773 659 LINE",
"842 659 LINE",
"842 93 LINE",
"732 93 LINE",
"732 0 LINE"
);
}
);
width = 1106;
},
{
associatedMasterId = "2C5E45D0-97E8-45AA-A5B2-946753DF54E1";
layerId = "F4249821-346D-4DA1-AFD4-D7AAE9727346";
name = "Mar 7 18, 11:32";
paths = (
{
closed = 1;
nodes = (
"597 0 LINE",
"834 665 LINE",
"768 752 LINE",
"541 100 LINE",
"565 100 LINE",
"339 752 LINE",
"257 665 LINE",
"492 0 LINE"
);
},
{
closed = 1;
nodes = (
"371 0 LINE",
"371 93 LINE",
"255 93 LINE",
"255 659 LINE",
"324 659 LINE",
"339 752 LINE",
"52 752 LINE",
"52 659 LINE",
"162 659 LINE",
"162 93 LINE",
"52 93 LINE",
"52 0 LINE"
);
},
{
closed = 1;
nodes = (
"1048 0 LINE",
"1048 93 LINE",
"938 93 LINE",
"938 659 LINE",
"1048 659 LINE",
"1048 752 LINE",
"768 752 LINE",
"763 659 LINE",
"836 659 LINE",
"836 93 LINE",
"716 93 LINE",
"716 0 LINE"
);
}
);
width = 1100;
},
{
anchors = (
{
name = bottom;
position = "{565, 0}";
},
{
name = top;
position = "{565, 772}";
}
);
associatedMasterId = "BE4E587A-F76C-447B-AA28-A45E40876AAF";
layerId = "660F5FE8-C05B-4930-8F85-9BB411D6AECF";
name = "Bold ]250]";
paths = (
{
closed = 1;
nodes = (
"665 0 LINE",
"838 772 LINE",
"633 772 LINE",
"551 304 LINE",
"620 296 LINE",
"560 772 LINE",
"272 772 LINE",
"445 0 LINE"
);
},
{
closed = 1;
nodes = (
"364 0 LINE",
"364 207 LINE",
"314 207 LINE",
"314 565 LINE",
"345 565 LINE",
"530 772 LINE",
"21 772 LINE",
"21 565 LINE",
"76 565 LINE",
"76 207 LINE",
"21 207 LINE",
"21 0 LINE"
);
},
{
closed = 1;
nodes = (
"1109 0 LINE",
"1109 207 LINE",
"1054 207 LINE",
"1054 565 LINE",
"1109 565 LINE",
"1109 772 LINE",
"633 772 LINE",
"765 565 LINE",
"796 565 LINE",
"796 207 LINE",
"746 207 LINE",
"746 0 LINE"
);
}
);
width = 1130;
}
);
leftKerningGroup = H;
leftMetricsKey = H;
rightKerningGroup = H;
rightMetricsKey = "=|";
unicode = 004D;
},
{
color = 9;
glyphname = N;
lastChange = "2018-04-25 04:17:38 +0000";
layers = (
{
anchors = (
{
name = bottom;
position = "{448, 0}";
},
{
name = top;
position = "{448, 732}";
}
);
layerId = "67AEAADB-8447-4819-9D92-8BB76BD22042";
paths = (
{
closed = 1;
nodes = (
"747 0 LINE",
"178 752 LINE",
"172 752 LINE",
"741 0 LINE"
);
},
{
closed = 1;
nodes = (
"169 748 LINE",
"169 5 LINE",
"20 5 LINE",
"20 0 LINE",
"322 0 LINE",
"322 5 LINE",
"174 5 LINE",
"174 747 LINE",
"178 747 LINE",
"178 752 LINE",
"20 752 LINE",
"20 748 LINE"
);
},
{
closed = 1;
nodes = (
"744 747 LINE",
"744 5 LINE",
"741 5 LINE",
"744 0 LINE",
"749 0 LINE",
"749 747 LINE",
"897 747 LINE",
"897 752 LINE",
"580 752 LINE",
"580 747 LINE"
);
}
);
width = 903;
},
{
anchors = (
{
name = bottom;
position = "{444, 0}";
},
{
name = top;
position = "{444, 772}";
}
);
layerId = "BE4E587A-F76C-447B-AA28-A45E40876AAF";
paths = (
{
closed = 1;
nodes = (
"745 0 LINE",
"441 772 LINE",
"158 772 LINE",
"462 0 LINE"
);
},
{
closed = 1;
nodes = (
"76 565 LINE",
"76 207 LINE",
"21 207 LINE",
"21 0 LINE",
"339 0 LINE",
"339 207 LINE",
"284 207 LINE",
"284 440 LINE",
"332 440 LINE",
"441 772 LINE",
"21 772 LINE",
"21 565 LINE"
);
},
{
closed = 1;
nodes = (
"618 565 LINE",
"618 336 LINE",
"576 336 LINE",
"655 0 LINE",
"826 0 LINE",
"826 565 LINE",
"881 565 LINE",
"881 772 LINE",
"563 772 LINE",
"563 565 LINE"
);
}
);
width = 888;
},
{
anchors = (
{
name = bottom;
position = "{448, 0}";
},
{
name = top;
position = "{448, 732}";
}
);
layerId = "2C5E45D0-97E8-45AA-A5B2-946753DF54E1";
rightMetricsKey = "=H-12";
paths = (
{
closed = 1;
nodes = (
"752 0 LINE",
"285 752 LINE",
"162 752 LINE",
"629 0 LINE"
);
},
{
closed = 1;
nodes = (
"133 659 LINE",
"133 93 LINE",
"23 93 LINE",
"23 0 LINE",
"338 0 LINE",
"338 93 LINE",
"228 93 LINE",
"228 641 LINE",
"281 641 LINE",
"284 752 LINE",
"23 752 LINE",
"23 659 LINE"
);
},
{
closed = 1;
nodes = (
"671 659 LINE",
"671 140 LINE",
"601 140 LINE",
"629 0 LINE",
"766 0 LINE",
"766 659 LINE",
"876 659 LINE",
"876 752 LINE",
"561 752 LINE",
"561 659 LINE"
);
}
);
width = 887;
},
{
anchors = (
{
name = bottom;
position = "{482, 0}";
},
{
name = top;
position = "{482, 732}";
}
);
associatedMasterId = "2C5E45D0-97E8-45AA-A5B2-946753DF54E1";
layerId = "047D3E99-1A20-4FF1-B7C9-46C9AE164200";
rightMetricsKey = "=H-20";
name = "Feb 23 18, 15:40";
paths = (
{
closed = 1;
nodes = (
"780 0 LINE",
"318 752 LINE",
"198 752 LINE",
"660 0 LINE"
);
},
{
closed = 1;
nodes = (
"162 659 LINE",
"162 93 LINE",
"52 93 LINE",
"52 0 LINE",
"374 0 LINE",
"374 93 LINE",
"264 93 LINE",
"264 641 LINE",
"317 641 LINE",
"317 752 LINE",
"52 752 LINE",
"52 659 LINE"
);
},
{
closed = 1;
nodes = (
"699 659 LINE",
"699 140 LINE",
"629 140 LINE",
"660 0 LINE",
"801 0 LINE",
"801 659 LINE",
"911 659 LINE",
"911 752 LINE",
"589 752 LINE",
"589 659 LINE"
);
}
);
width = 943;
},
{
anchors = (
{
name = bottom;
position = "{482, 0}";
},
{
name = top;
position = "{482, 732}";
}
);
associatedMasterId = "2C5E45D0-97E8-45AA-A5B2-946753DF54E1";
layerId = "37FE45C6-EC4F-4D61-8F2C-F7817D331A03";
rightMetricsKey = "=H-20";
name = "Mar 7 18, 11:34";
paths = (
{
closed = 1;
nodes = (
"789 0 LINE",
"312 752 LINE",
"189 752 LINE",
"666 0 LINE"
);
},
{
closed = 1;
nodes = (
"162 659 LINE",
"162 93 LINE",
"52 93 LINE",
"52 0 LINE",
"365 0 LINE",
"365 93 LINE",
"255 93 LINE",
"255 641 LINE",
"308 641 LINE",
"311 752 LINE",
"52 752 LINE",
"52 659 LINE"
);
},
{
closed = 1;
nodes = (
"708 659 LINE",
"708 140 LINE",
"638 140 LINE",
"666 0 LINE",
"801 0 LINE",
"801 659 LINE",
"911 659 LINE",
"911 752 LINE",
"598 752 LINE",
"598 659 LINE"
);
}
);
width = 943;
}
);
leftKerningGroup = H;
leftMetricsKey = H;
rightKerningGroup = N;
rightMetricsKey = "=|-14";
unicode = 004E;
},
{
color = 4;
glyphname = Eng;
lastChange = "2018-04-20 14:30:24 +0000";
layers = (
{
layerId = "67AEAADB-8447-4819-9D92-8BB76BD22042";
paths = (
{
closed = 1;
nodes = (
"169 748 LINE",
"169 5 LINE",
"20 5 LINE",
"20 0 LINE",
"322 0 LINE",
"322 5 LINE",
"174 5 LINE",
"174 747 LINE",
"178 747 LINE",
"178 752 LINE",
"20 752 LINE",
"20 748 LINE"
);
},
{
closed = 1;
nodes = (
"600 747 LINE",
"764 747 LINE",
"764 -84 LINE SMOOTH",
"764 -172 OFFCURVE",
"716 -212 OFFCURVE",
"644 -212 CURVE SMOOTH",
"629 -212 OFFCURVE",
"616 -210 OFFCURVE",
"605 -207 CURVE",
"603 -212 LINE",
"615 -215 OFFCURVE",
"629 -217 OFFCURVE",
"644 -217 CURVE SMOOTH",
"719 -217 OFFCURVE",
"769 -175 OFFCURVE",
"769 -84 CURVE SMOOTH",
"769 747 LINE",
"917 747 LINE",
"917 752 LINE",
"600 752 LINE"
);
},
{
closed = 1;
nodes = (
"769 0 LINE",
"178 752 LINE",
"172 752 LINE",
"767 -5 LINE"
);
}
);
width = 923;
},
{
layerId = "2C5E45D0-97E8-45AA-A5B2-946753DF54E1";
paths = (
{
closed = 1;
nodes = (
"133 659 LINE",
"133 93 LINE",
"23 93 LINE",
"23 0 LINE",
"338 0 LINE",
"338 93 LINE",
"228 93 LINE",
"228 641 LINE",
"281 641 LINE",
"281 752 LINE",
"23 752 LINE",
"23 659 LINE"
);
},
{
closed = 1;
nodes = (
"553 659 LINE",
"663 659 LINE",
"663 -39 LINE SMOOTH",
"663 -100 OFFCURVE",
"635 -128 OFFCURVE",
"578 -128 CURVE SMOOTH",
"563 -128 OFFCURVE",
"547 -126 OFFCURVE",
"531 -121 CURVE",
"503 -206 LINE",
"533 -215 OFFCURVE",
"560 -220 OFFCURVE",
"592 -220 CURVE SMOOTH",
"706 -220 OFFCURVE",
"758 -152 OFFCURVE",
"758 -42 CURVE SMOOTH",
"758 659 LINE",
"868 659 LINE",
"868 752 LINE",
"553 752 LINE"
);
},
{
closed = 1;
nodes = (
"745 68 LINE",
"281 752 LINE",
"158 752 LINE",
"669 -8 LINE"
);
}
);
width = 879;
},
{
layerId = "BE4E587A-F76C-447B-AA28-A45E40876AAF";
paths = (
{
closed = 1;
nodes = (
"76 565 LINE",
"76 207 LINE",
"21 207 LINE",
"21 0 LINE",
"339 0 LINE",
"339 207 LINE",
"284 207 LINE",
"284 440 LINE",
"332 440 LINE",
"347 772 LINE",
"21 772 LINE",
"21 565 LINE"
);
},
{
closed = 1;
nodes = (
"563 565 LINE",
"618 565 LINE",
"618 -3 LINE SMOOTH",
"618 -26 OFFCURVE",
"606 -37 OFFCURVE",
"577 -37 CURVE SMOOTH",
"568 -37 OFFCURVE",
"558 -36 OFFCURVE",
"550 -34 CURVE",
"509 -214 LINE",
"538 -221 OFFCURVE",
"570 -224 OFFCURVE",
"601 -224 CURVE SMOOTH",
"764 -224 OFFCURVE",
"826 -140 OFFCURVE",
"826 -3 CURVE SMOOTH",
"826 565 LINE",
"881 565 LINE",
"881 772 LINE",
"563 772 LINE"
);
},
{
closed = 1;
nodes = (
"788 209 LINE",
"347 772 LINE",
"75 682 LINE",
"632 -19 LINE"
);
}
);
width = 888;
},
{
associatedMasterId = "2C5E45D0-97E8-45AA-A5B2-946753DF54E1";
layerId = "FB1A8F30-5F79-470A-A46F-EF9FE121BE0F";
name = "Feb 6 18, 15:46";
paths = (
{
closed = 1;
nodes = (
"776 66 LINE",
"318 752 LINE",
"232 697 LINE",
"718 -22 LINE"
);
},
{
closed = 1;
nodes = (
"162 659 LINE",
"162 93 LINE",
"52 93 LINE",
"52 0 LINE",
"374 0 LINE",
"374 93 LINE",
"264 93 LINE",
"264 641 LINE",
"317 641 LINE",
"317 752 LINE",
"52 752 LINE",
"52 659 LINE"
);
},
{
closed = 1;
nodes = (
"589 659 LINE",
"699 659 LINE",
"699 -31 LINE SMOOTH",
"699 -92 OFFCURVE",
"670 -120 OFFCURVE",
"614 -120 CURVE SMOOTH",
"590 -120 OFFCURVE",
"568 -115 OFFCURVE",
"546 -109 CURVE",
"546 -207 LINE",
"574 -215 OFFCURVE",
"600 -220 OFFCURVE",
"630 -220 CURVE SMOOTH",
"747 -220 OFFCURVE",
"801 -149 OFFCURVE",
"801 -34 CURVE SMOOTH",
"801 659 LINE",
"911 659 LINE",
"911 752 LINE",
"589 752 LINE"
);
}
);
width = 943;
},
{
associatedMasterId = "BE4E587A-F76C-447B-AA28-A45E40876AAF";
layerId = "FCC288A5-2804-4E89-8E5E-00E508EEB537";
name = "Mar 13 18, 16:06";
paths = (
{
closed = 1;
nodes = (
"748 0 LINE",
"407 772 LINE",
"211 772 LINE",
"592 0 LINE"
);
},
{
closed = 1;
nodes = (
"71 565 LINE",
"71 207 LINE",
"16 207 LINE",
"16 0 LINE",
"394 0 LINE",
"394 207 LINE",
"329 207 LINE",
"329 541 LINE",
"377 541 LINE",
"387 772 LINE",
"16 772 LINE",
"16 565 LINE"
);
},
{
closed = 1;
nodes = (
"532 565 LINE",
"587 565 LINE",
"587 -3 LINE SMOOTH",
"587 -26 OFFCURVE",
"575 -37 OFFCURVE",
"546 -37 CURVE SMOOTH",
"537 -37 OFFCURVE",
"527 -36 OFFCURVE",
"519 -34 CURVE",
"478 -214 LINE",
"507 -221 OFFCURVE",
"539 -224 OFFCURVE",
"575 -224 CURVE SMOOTH",
"769 -224 OFFCURVE",
"845 -140 OFFCURVE",
"845 -3 CURVE SMOOTH",
"845 565 LINE",
"900 565 LINE",
"900 772 LINE",
"532 772 LINE"
);
}
);
width = 902;
}
);
leftKerningGroup = H;
leftMetricsKey = N;
rightMetricsKey = N;
unicode = 014A;
},
{
color = 6;
glyphname = O;
lastChange = "2018-04-25 04:18:23 +0000";
layers = (
{
anchors = (
{
name = bottom;
position = "{426, 0}";
},
{
name = horn;
position = "{640, 705}";
},
{
name = ogonek;
position = "{557, 11}";
},
{
name = top;
position = "{426, 732}";
}
);
layerId = "67AEAADB-8447-4819-9D92-8BB76BD22042";
leftMetricsKey = "=o-9";
paths = (
{
closed = 1;
nodes = (
"650 -7 OFFCURVE",
"805 151 OFFCURVE",
"805 378 CURVE SMOOTH",
"805 602 OFFCURVE",
"650 759 OFFCURVE",
"426 759 CURVE SMOOTH",
"202 759 OFFCURVE",
"47 602 OFFCURVE",
"47 378 CURVE SMOOTH",
"47 151 OFFCURVE",
"202 -7 OFFCURVE",
"426 -7 CURVE SMOOTH"
);
},
{
closed = 1;
nodes = (
"204 -2 OFFCURVE",
"52 154 OFFCURVE",
"52 378 CURVE SMOOTH",
"52 599 OFFCURVE",
"204 754 OFFCURVE",
"426 754 CURVE SMOOTH",
"648 754 OFFCURVE",
"800 599 OFFCURVE",
"800 378 CURVE SMOOTH",
"800 154 OFFCURVE",
"648 -2 OFFCURVE",
"426 -2 CURVE SMOOTH"
);
}
);
width = 852;
},
{
anchors = (
{
name = bottom;
position = "{434, 0}";
},
{
name = horn;
position = "{554, 766}";
},
{
name = ogonek;
position = "{628, 25}";
},
{
name = top;
position = "{434, 772}";
}
);
layerId = "BE4E587A-F76C-447B-AA28-A45E40876AAF";
leftMetricsKey = "=o-3";
paths = (
{
closed = 1;
nodes = (
"684 -14 OFFCURVE",
"857 151 OFFCURVE",
"857 388 CURVE SMOOTH",
"857 622 OFFCURVE",
"684 786 OFFCURVE",
"434 786 CURVE SMOOTH",
"184 786 OFFCURVE",
"11 622 OFFCURVE",
"11 388 CURVE SMOOTH",
"11 151 OFFCURVE",
"184 -14 OFFCURVE",
"434 -14 CURVE SMOOTH"
);
},
{
closed = 1;
nodes = (
"342 230 OFFCURVE",
"278 295 OFFCURVE",
"278 388 CURVE SMOOTH",
"278 479 OFFCURVE",
"342 542 OFFCURVE",
"434 542 CURVE SMOOTH",
"526 542 OFFCURVE",
"590 479 OFFCURVE",
"590 388 CURVE SMOOTH",
"590 295 OFFCURVE",
"526 230 OFFCURVE",
"434 230 CURVE SMOOTH"
);
}
);
width = 868;
},
{
anchors = (
{
name = bottom;
position = "{431, 0}";
},
{
name = horn;
position = "{527, 754}";
},
{
name = ogonek;
position = "{595, 19}";
},
{
name = top;
position = "{431, 732}";
}
);
layerId = "2C5E45D0-97E8-45AA-A5B2-946753DF54E1";
leftMetricsKey = "=o-8";
paths = (
{
closed = 1;
nodes = (
"662 -12 OFFCURVE",
"821 148 OFFCURVE",
"821 378 CURVE SMOOTH",
"821 605 OFFCURVE",
"662 764 OFFCURVE",
"431 764 CURVE SMOOTH",
"200 764 OFFCURVE",
"41 605 OFFCURVE",
"41 378 CURVE SMOOTH",
"41 148 OFFCURVE",
"200 -12 OFFCURVE",
"431 -12 CURVE SMOOTH"
);
},
{
closed = 1;
nodes = (
"264 88 OFFCURVE",
"149 207 OFFCURVE",
"149 378 CURVE SMOOTH",
"149 548 OFFCURVE",
"264 664 OFFCURVE",
"431 664 CURVE SMOOTH",
"598 664 OFFCURVE",
"713 548 OFFCURVE",
"713 378 CURVE SMOOTH",
"713 207 OFFCURVE",
"598 88 OFFCURVE",
"431 88 CURVE SMOOTH"
);
}
);
width = 862;
}
);
leftKerningGroup = O;
rightKerningGroup = O;
rightMetricsKey = "=|";
unicode = 004F;
},
{
glyphname = Ohorn;
lastChange = "2018-04-13 17:47:32 +0000";
layers = (
{
components = (
{
name = O;
},
{
name = horncomb;
transform = "{1, 0, 0, 1, 600, 178}";
}
);
layerId = "67AEAADB-8447-4819-9D92-8BB76BD22042";
width = 852;
},
{
anchors = (
{
name = _horn;
position = "{527, 754}";
}
);
components = (
{
name = O;
}
);
layerId = "2C5E45D0-97E8-45AA-A5B2-946753DF54E1";
paths = (
{
closed = 1;
nodes = (
"701 880 LINE",
"701 837 LINE SMOOTH",
"701 763 OFFCURVE",
"661 742 OFFCURVE",
"599 742 CURVE SMOOTH",
"580 742 OFFCURVE",
"566 744 OFFCURVE",
"527 754 CURVE",
"634 635 LINE",
"675 691 LINE",
"757 691 OFFCURVE",
"799 743 OFFCURVE",
"799 827 CURVE SMOOTH",
"799 880 LINE"
);
}
);
width = 862;
},
{
components = (
{
name = O;
},
{
name = horncomb;
transform = "{1, 0, 0, 1, 514, 229}";
}
);
layerId = "BE4E587A-F76C-447B-AA28-A45E40876AAF";
width = 868;
}
);
leftKerningGroup = O;
rightKerningGroup = O;
unicode = 01A0;
},
{
glyphname = Oslash;
lastChange = "2018-04-20 14:15:34 +0000";
layers = (
{
components = (
{
name = O;
},
{
name = slashlongcomb;
transform = "{1, 0, 0, 1, 28, -32}";
}
);
layerId = "67AEAADB-8447-4819-9D92-8BB76BD22042";
width = 852;
},
{
components = (
{
name = O;
},
{
name = slashlongcomb;
transform = "{1, 0, 0, 1, 17, 0}";
}
);
layerId = "2C5E45D0-97E8-45AA-A5B2-946753DF54E1";
width = 862;
},
{
components = (
{
name = O;
},
{
name = slashlongcomb;
transform = "{1, 0, 0, 1, 28, 28}";
}
);
layerId = "BE4E587A-F76C-447B-AA28-A45E40876AAF";
width = 868;
},
{
associatedMasterId = "2C5E45D0-97E8-45AA-A5B2-946753DF54E1";
components = (
{
name = O;
}
);
layerId = "6CEF171D-687B-4F8D-ACAF-400EC1BA9329";
name = "Jan 4 18, 17:53";
paths = (
{
closed = 1;
nodes = (
"118 5 LINE",
"802 689 LINE",
"744 747 LINE",
"60 63 LINE"
);
}
);
width = 862;
}
);
leftKerningGroup = O;
leftMetricsKey = O;
rightKerningGroup = O;
rightMetricsKey = O;
unicode = 00D8;
},
{
color = 7;
glyphname = OE;
lastChange = "2018-04-27 00:19:22 +0000";
layers = (
{
anchors = (
{
name = bottom;
position = "{640, 0}";
},
{
name = top;
position = "{640, 732}";
}
);
layerId = "67AEAADB-8447-4819-9D92-8BB76BD22042";
paths = (
{
closed = 1;
nodes = (
"535 3 LINE",
"535 6 LINE",
"706 48 OFFCURVE",
"815 189 OFFCURVE",
"815 378 CURVE SMOOTH",
"815 564 OFFCURVE",
"705 704 OFFCURVE",
"535 746 CURVE",
"535 750 LINE",
"431 759 LINE",
"204 759 OFFCURVE",
"47 602 OFFCURVE",
"47 378 CURVE SMOOTH",
"47 151 OFFCURVE",
"204 -7 OFFCURVE",
"431 -7 CURVE"
);
},
{
closed = 1;
nodes = (
"206 -2 OFFCURVE",
"52 154 OFFCURVE",
"52 378 CURVE SMOOTH",
"52 599 OFFCURVE",
"206 754 OFFCURVE",
"431 754 CURVE SMOOTH",
"656 754 OFFCURVE",
"810 599 OFFCURVE",
"810 378 CURVE SMOOTH",
"810 154 OFFCURVE",
"656 -2 OFFCURVE",
"431 -2 CURVE SMOOTH"
);
},
{
closed = 1;
nodes = (
"482 -7 OFFCURVE",
"517 0 OFFCURVE",
"565 0 CURVE SMOOTH",
"1213 0 LINE",
"1213 187 LINE",
"1208 187 LINE",
"1208 5 LINE",
"522 5 LINE",
"463 -2 LINE",
"431 -7 LINE"
);
},
{
closed = 1;
nodes = (
"1051 377 LINE",
"1051 382 LINE",
"812 382 LINE",
"812 377 LINE"
);
},
{
closed = 1;
nodes = (
"1204 565 LINE",
"1204 752 LINE",
"565 752 LINE SMOOTH",
"517 752 OFFCURVE",
"482 759 OFFCURVE",
"431 759 CURVE",
"464 755 LINE",
"526 747 LINE",
"1199 747 LINE",
"1199 565 LINE"
);
}
);
width = 1245;
},
{
anchors = (
{
name = bottom;
position = "{680, 0}";
},
{
name = top;
position = "{680, 732}";
}
);
layerId = "2C5E45D0-97E8-45AA-A5B2-946753DF54E1";
paths = (
{
closed = 1;
nodes = (
"597 55 LINE",
"597 97 LINE",
"730 108 OFFCURVE",
"821 222 OFFCURVE",
"821 378 CURVE SMOOTH",
"821 531 OFFCURVE",
"730 644 OFFCURVE",
"597 655 CURVE",
"597 704 LINE",
"431 764 LINE",
"200 764 OFFCURVE",
"41 605 OFFCURVE",
"41 378 CURVE SMOOTH",
"41 148 OFFCURVE",
"200 -12 OFFCURVE",
"431 -12 CURVE"
);
},
{
closed = 1;
nodes = (
"265 88 OFFCURVE",
"150 207 OFFCURVE",
"150 378 CURVE SMOOTH",
"150 548 OFFCURVE",
"265 664 OFFCURVE",
"431 664 CURVE SMOOTH",
"596 664 OFFCURVE",
"712 548 OFFCURVE",
"712 378 CURVE SMOOTH",
"712 207 OFFCURVE",
"597 88 OFFCURVE",
"431 88 CURVE SMOOTH"
);
},
{
closed = 1;
nodes = (
"494 -12 OFFCURVE",
"537 0 OFFCURVE",
"645 0 CURVE SMOOTH",
"1261 0 LINE",
"1261 227 LINE",
"1159 227 LINE",
"1159 93 LINE",
"552 93 LINE",
"443 46 LINE",
"431 -12 LINE"
);
},
{
closed = 1;
nodes = (
"1061 334 LINE",
"1061 424 LINE",
"779 424 LINE",
"779 334 LINE"
);
},
{
closed = 1;
nodes = (
"1252 525 LINE",
"1252 752 LINE",
"645 752 LINE SMOOTH",
"537 752 OFFCURVE",
"494 764 OFFCURVE",
"431 764 CURVE",
"438 706 LINE",
"562 659 LINE",
"1150 659 LINE",
"1150 525 LINE"
);
}
);
width = 1312;
},
{
associatedMasterId = "2C5E45D0-97E8-45AA-A5B2-946753DF54E1";
layerId = "B4E20D7F-CD3C-4546-9F14-F33F99BDB661";
name = "Jan 3 18, 01:05";
paths = (
{
closed = 1;
nodes = (
"627 424 LINE",
"627 334 LINE",
"969 334 LINE",
"969 424 LINE"
);
},
{
closed = 1;
nodes = (
"569 659 LINE",
"569 93 LINE",
"547 93 LINE",
"459 0 LINE",
"1107 0 LINE",
"1107 93 LINE",
"671 93 LINE",
"671 659 LINE",
"1098 659 LINE",
"1098 752 LINE",
"459 752 LINE",
"547 659 LINE"
);
},
{
closed = 1;
nodes = (
"1058 752 LINE",
"1058 525 LINE",
"1160 525 LINE",
"1160 752 LINE"
);
},
{
closed = 1;
nodes = (
"1067 227 LINE",
"1067 0 LINE",
"1169 0 LINE",
"1169 227 LINE"
);
},
{
closed = 1;
nodes = (
"464 -12 OFFCURVE",
"507 0 OFFCURVE",
"615 0 CURVE",
"682 30 LINE",
"383 66 LINE",
"401 -12 LINE"
);
},
{
closed = 1;
nodes = (
"372 686 LINE",
"682 722 LINE",
"615 752 LINE",
"507 752 OFFCURVE",
"464 764 OFFCURVE",
"401 764 CURVE"
);
},
{
closed = 1;
nodes = (
"401 88 LINE",
"235 88 OFFCURVE",
"120 207 OFFCURVE",
"120 378 CURVE SMOOTH",
"120 548 OFFCURVE",
"235 664 OFFCURVE",
"401 664 CURVE",
"401 764 LINE",
"170 764 OFFCURVE",
"11 605 OFFCURVE",
"11 378 CURVE SMOOTH",
"11 148 OFFCURVE",
"170 -12 OFFCURVE",
"401 -12 CURVE"
);
},
{
closed = 1;
nodes = (
"436 664 OFFCURVE",
"457 659 OFFCURVE",
"547 659 CURVE",
"682 706 LINE",
"389 742 LINE",
"401 664 LINE"
);
},
{
closed = 1;
nodes = (
"389 10 LINE",
"682 46 LINE",
"547 93 LINE",
"457 93 OFFCURVE",
"436 88 OFFCURVE",
"401 88 CURVE"
);
}
);
width = 1330;
},
{
associatedMasterId = "BE4E587A-F76C-447B-AA28-A45E40876AAF";
layerId = "F3B76260-9BAB-4A31-9F7E-D69395F920B8";
name = "Feb 21 18, 16:44";
paths = (
{
closed = 1;
nodes = (
"650 83 LINE",
"623 120 LINE",
"783 212 OFFCURVE",
"857 284 OFFCURVE",
"857 388 CURVE SMOOTH",
"857 489 OFFCURVE",
"783 560 OFFCURVE",
"623 652 CURVE",
"650 696 LINE",
"434 786 LINE",
"183 786 OFFCURVE",
"11 622 OFFCURVE",
"11 388 CURVE SMOOTH",
"11 151 OFFCURVE",
"183 -14 OFFCURVE",
"434 -14 CURVE"
);
},
{
closed = 1;
nodes = (
"342 229 OFFCURVE",
"278 294 OFFCURVE",
"278 388 CURVE SMOOTH",
"278 480 OFFCURVE",
"342 543 OFFCURVE",
"434 543 CURVE SMOOTH",
"526 543 OFFCURVE",
"590 480 OFFCURVE",
"590 388 CURVE SMOOTH",
"590 294 OFFCURVE",
"526 229 OFFCURVE",
"434 229 CURVE SMOOTH"
);
},
{
closed = 1;
nodes = (
"497 -14 OFFCURVE",
"540 0 OFFCURVE",
"648 0 CURVE SMOOTH",
"1342 0 LINE",
"1342 327 LINE",
"1084 327 LINE",
"1084 207 LINE",
"916 207 LINE",
"796 207 OFFCURVE",
"697 156 OFFCURVE",
"577 71 CURVE",
"446 46 LINE",
"434 -14 LINE"
);
},
{
closed = 1;
nodes = (
"1017 300 LINE",
"1017 477 LINE",
"781 477 LINE",
"781 300 LINE"
);
},
{
closed = 1;
nodes = (
"1333 465 LINE",
"1333 772 LINE",
"648 772 LINE SMOOTH",
"540 772 OFFCURVE",
"497 786 OFFCURVE",
"434 786 CURVE",
"441 726 LINE",
"577 701 LINE",
"697 616 OFFCURVE",
"795 565 OFFCURVE",
"916 565 CURVE",
"1075 565 LINE",
"1075 465 LINE"
);
}
);
width = 1366;
},
{
anchors = (
{
name = bottom;
position = "{706, 0}";
},
{
name = top;
position = "{706, 772}";
}
);
layerId = "BE4E587A-F76C-447B-AA28-A45E40876AAF";
paths = (
{
closed = 1;
nodes = (
"670 173 LINE",
"670 215 LINE",
"781 232 OFFCURVE",
"857 302 OFFCURVE",
"857 388 CURVE SMOOTH",
"857 471 OFFCURVE",
"781 540 OFFCURVE",
"670 557 CURVE",
"670 606 LINE",
"434 786 LINE",
"183 786 OFFCURVE",
"11 622 OFFCURVE",
"11 388 CURVE SMOOTH",
"11 151 OFFCURVE",
"183 -14 OFFCURVE",
"434 -14 CURVE"
);
},
{
closed = 1;
nodes = (
"342 229 OFFCURVE",
"278 294 OFFCURVE",
"278 388 CURVE SMOOTH",
"278 480 OFFCURVE",
"342 543 OFFCURVE",
"434 543 CURVE SMOOTH",
"526 543 OFFCURVE",
"590 480 OFFCURVE",
"590 388 CURVE SMOOTH",
"590 294 OFFCURVE",
"526 229 OFFCURVE",
"434 229 CURVE SMOOTH"
);
},
{
closed = 1;
nodes = (
"497 -14 OFFCURVE",
"540 0 OFFCURVE",
"648 0 CURVE SMOOTH",
"1342 0 LINE",
"1342 327 LINE",
"1084 327 LINE",
"1084 207 LINE",
"527 207 LINE",
"446 46 LINE",
"434 -14 LINE"
);
},
{
closed = 1;
nodes = (
"1017 300 LINE",
"1017 477 LINE",
"781 477 LINE",
"781 300 LINE"
);
},
{
closed = 1;
nodes = (
"1333 465 LINE",
"1333 772 LINE",
"648 772 LINE SMOOTH",
"540 772 OFFCURVE",
"497 786 OFFCURVE",
"434 786 CURVE",
"441 726 LINE",
"527 565 LINE",
"1075 565 LINE",
"1075 465 LINE"
);
}
);
width = 1375;
},
{
anchors = (
{
name = bottom;
position = "{623, 0}";
},
{
name = top;
position = "{623, 752}";
}
);
associatedMasterId = "67AEAADB-8447-4819-9D92-8BB76BD22042";
layerId = "BDF4D79D-E58C-43AA-AA64-3D9536B7A17D";
name = "Light [6]";
paths = (
{
closed = 1;
nodes = (
"552 3 LINE",
"552 6 LINE",
"708 51 OFFCURVE",
"815 190 OFFCURVE",
"815 378 CURVE SMOOTH",
"815 563 OFFCURVE",
"709 701 OFFCURVE",
"554 746 CURVE",
"554 750 LINE",
"431 759 LINE",
"204 759 OFFCURVE",
"47 602 OFFCURVE",
"47 378 CURVE SMOOTH",
"47 151 OFFCURVE",
"204 -7 OFFCURVE",
"431 -7 CURVE"
);
},
{
closed = 1;
nodes = (
"206 -2 OFFCURVE",
"52 154 OFFCURVE",
"52 378 CURVE SMOOTH",
"52 599 OFFCURVE",
"206 754 OFFCURVE",
"431 754 CURVE SMOOTH",
"656 754 OFFCURVE",
"810 599 OFFCURVE",
"810 378 CURVE SMOOTH",
"810 154 OFFCURVE",
"656 -2 OFFCURVE",
"431 -2 CURVE SMOOTH"
);
},
{
closed = 1;
nodes = (
"482 -7 OFFCURVE",
"517 0 OFFCURVE",
"565 0 CURVE SMOOTH",
"1213 0 LINE",
"1213 187 LINE",
"1208 187 LINE",
"1208 5 LINE",
"522 5 LINE",
"463 -2 LINE",
"431 -7 LINE"
);
},
{
closed = 1;
nodes = (
"1051 377 LINE",
"1051 382 LINE",
"812 382 LINE",
"812 377 LINE"
);
},
{
closed = 1;
nodes = (
"1204 565 LINE",
"1204 752 LINE",
"565 752 LINE SMOOTH",
"517 752 OFFCURVE",
"482 759 OFFCURVE",
"431 759 CURVE",
"464 755 LINE",
"526 747 LINE",
"1199 747 LINE",
"1199 565 LINE"
);
}
);
width = 1245;
},
{
associatedMasterId = "2C5E45D0-97E8-45AA-A5B2-946753DF54E1";
components = (
{
alignment = -1;
name = E;
transform = "{1, 0, 0, 1, 442, 0}";
},
{
alignment = -1;
name = D;
transform = "{-1, 0, 0, 1, 860, 0}";
}
);
layerId = "858785A6-E3A3-44FE-8D8B-6ED84D74DC74";
name = "Mar 14 18, 14:26";
width = 1255;
}
);
leftKerningGroup = O;
leftMetricsKey = O;
rightKerningGroup = E;
rightMetricsKey = E;
unicode = 0152;
},
{
color = 6;
glyphname = P;
lastChange = "2018-04-25 04:19:42 +0000";
layers = (
{
anchors = (
{
name = bottom;
position = "{367, 0}";
},
{
name = top;
position = "{367, 732}";
}
);
layerId = "67AEAADB-8447-4819-9D92-8BB76BD22042";
rightMetricsKey = "=F+12";
paths = (
{
closed = 1;
nodes = (
"323 0 LINE",
"323 5 LINE",
"174 5 LINE",
"174 752 LINE",
"20 752 LINE",
"20 747 LINE",
"169 747 LINE",
"169 5 LINE",
"20 5 LINE",
"20 0 LINE"
);
},
{
closed = 1;
nodes = (
"435 377 LINE SMOOTH",
"605 377 OFFCURVE",
"690 448 OFFCURVE",
"690 565 CURVE SMOOTH",
"690 682 OFFCURVE",
"605 752 OFFCURVE",
"435 752 CURVE SMOOTH",
"171 752 LINE",
"171 747 LINE",
"435 747 LINE SMOOTH",
"602 747 OFFCURVE",
"685 679 OFFCURVE",
"685 565 CURVE SMOOTH",
"685 452 OFFCURVE",
"602 382 OFFCURVE",
"435 382 CURVE SMOOTH",
"172 382 LINE",
"172 377 LINE"
);
}
);
width = 720;
},
{
anchors = (
{
name = bottom;
position = "{401, 0}";
},
{
name = top;
position = "{401, 772}";
}
);
layerId = "BE4E587A-F76C-447B-AA28-A45E40876AAF";
rightMetricsKey = "=F+12";
paths = (
{
closed = 1;
nodes = (
"393 0 LINE",
"393 207 LINE",
"336 207 LINE",
"336 772 LINE",
"21 772 LINE",
"21 565 LINE",
"78 565 LINE",
"78 207 LINE",
"21 207 LINE",
"21 0 LINE"
);
},
{
closed = 1;
nodes = (
"447 300 LINE SMOOTH",
"658 300 OFFCURVE",
"773 388 OFFCURVE",
"773 537 CURVE SMOOTH",
"773 684 OFFCURVE",
"665 772 OFFCURVE",
"450 772 CURVE SMOOTH",
"290 772 LINE",
"290 565 LINE",
"440 565 LINE SMOOTH",
"478 565 OFFCURVE",
"504 552 OFFCURVE",
"504 522 CURVE SMOOTH",
"504 492 OFFCURVE",
"482 477 OFFCURVE",
"439 477 CURVE SMOOTH",
"273 477 LINE",
"273 300 LINE"
);
}
);
width = 794;
},
{
anchors = (
{
name = bottom;
position = "{361, 0}";
},
{
name = top;
position = "{361, 732}";
}
);
layerId = "2C5E45D0-97E8-45AA-A5B2-946753DF54E1";
rightMetricsKey = "=F+12";
paths = (
{
closed = 1;
nodes = (
"345 0 LINE",
"345 93 LINE",
"235 93 LINE",
"235 752 LINE",
"23 752 LINE",
"23 659 LINE",
"133 659 LINE",
"133 93 LINE",
"23 93 LINE",
"23 0 LINE"
);
},
{
closed = 1;
nodes = (
"416 334 LINE SMOOTH",
"639 334 OFFCURVE",
"682 458 OFFCURVE",
"682 547 CURVE SMOOTH",
"682 676 OFFCURVE",
"595 752 OFFCURVE",
"423 752 CURVE SMOOTH",
"209 752 LINE",
"209 659 LINE",
"419 659 LINE SMOOTH",
"515 659 OFFCURVE",
"578 623 OFFCURVE",
"578 540 CURVE SMOOTH",
"578 462 OFFCURVE",
"523 424 OFFCURVE",
"421 424 CURVE SMOOTH",
"221 424 LINE",
"221 334 LINE"
);
}
);
width = 711;
},
{
associatedMasterId = "67AEAADB-8447-4819-9D92-8BB76BD22042";
layerId = "63AA5395-74B9-4844-978E-A61BF9631CDC";
name = "Dec 23 17, 15:53";
paths = (
{
closed = 1;
nodes = (
"412 595 LINE SMOOTH",
"479 595 OFFCURVE",
"523 569 OFFCURVE",
"523 506 CURVE SMOOTH",
"523 442 OFFCURVE",
"484 412 OFFCURVE",
"411 412 CURVE SMOOTH",
"278 412 LINE",
"278 254 LINE",
"401 254 LINE SMOOTH",
"601 254 OFFCURVE",
"709 362 OFFCURVE",
"709 506 CURVE SMOOTH",
"709 655 OFFCURVE",
"611 752 OFFCURVE",
"416 752 CURVE SMOOTH",
"295 752 LINE",
"295 595 LINE"
);
},
{
closed = 1;
nodes = (
"127 595 LINE",
"127 157 LINE",
"33 157 LINE",
"33 0 LINE",
"399 0 LINE",
"399 157 LINE",
"305 157 LINE",
"305 752 LINE",
"33 752 LINE",
"33 595 LINE"
);
}
);
width = 727;
}
);
leftKerningGroup = H;
leftMetricsKey = H;
rightKerningGroup = P;
rightMetricsKey = "F+12";
unicode = 0050;
},
{
color = 7;
glyphname = Thorn;
lastChange = "2018-04-27 00:19:51 +0000";
layers = (
{
anchors = (
{
name = bottom;
position = "{340, 0}";
},
{
name = top;
position = "{340, 732}";
}
);
layerId = "67AEAADB-8447-4819-9D92-8BB76BD22042";
paths = (
{
closed = 1;
nodes = (
"169 747 LINE",
"169 5 LINE",
"20 5 LINE",
"20 0 LINE",
"335 0 LINE",
"335 5 LINE",
"174 5 LINE",
"174 747 LINE",
"335 747 LINE",
"335 752 LINE",
"20 752 LINE",
"20 747 LINE"
);
},
{
closed = 1;
nodes = (
"395 562 LINE SMOOTH",
"562 562 OFFCURVE",
"645 494 OFFCURVE",
"645 380 CURVE SMOOTH",
"645 267 OFFCURVE",
"562 197 OFFCURVE",
"395 197 CURVE SMOOTH",
"172 197 LINE",
"172 192 LINE",
"395 192 LINE SMOOTH",
"565 192 OFFCURVE",
"650 263 OFFCURVE",
"650 380 CURVE SMOOTH",
"650 497 OFFCURVE",
"565 567 OFFCURVE",
"395 567 CURVE SMOOTH",
"171 567 LINE",
"171 562 LINE"
);
}
);
width = 680;
},
{
anchors = (
{
name = bottom;
position = "{341, 0}";
},
{
name = top;
position = "{341, 732}";
}
);
layerId = "2C5E45D0-97E8-45AA-A5B2-946753DF54E1";
paths = (
{
closed = 1;
nodes = (
"133 659 LINE",
"133 93 LINE",
"23 93 LINE",
"23 0 LINE",
"345 0 LINE",
"345 93 LINE",
"235 93 LINE",
"235 659 LINE",
"345 659 LINE",
"345 752 LINE",
"23 752 LINE",
"23 659 LINE"
);
},
{
closed = 1;
nodes = (
"389 481 LINE SMOOTH",
"485 481 OFFCURVE",
"548 449 OFFCURVE",
"548 378 CURVE SMOOTH",
"548 309 OFFCURVE",
"493 276 OFFCURVE",
"391 276 CURVE SMOOTH",
"221 276 LINE",
"221 183 LINE",
"386 183 LINE SMOOTH",
"609 183 OFFCURVE",
"652 297 OFFCURVE",
"652 378 CURVE SMOOTH",
"652 501 OFFCURVE",
"565 574 OFFCURVE",
"393 574 CURVE SMOOTH",
"208 574 LINE",
"208 481 LINE"
);
}
);
width = 681;
},
{
anchors = (
{
name = bottom;
position = "{341, 0}";
},
{
name = top;
position = "{341, 732}";
}
);
associatedMasterId = "2C5E45D0-97E8-45AA-A5B2-946753DF54E1";
layerId = "81DC54D9-03EB-4C52-B5E0-B7460E1DD03C";
name = "Regular [130]";
paths = (
{
closed = 1;
nodes = (
"133 659 LINE",
"133 93 LINE",
"23 93 LINE",
"23 0 LINE",
"235 0 LINE",
"235 752 LINE",
"23 752 LINE",
"23 659 LINE"
);
},
{
closed = 1;
nodes = (
"389 479 LINE SMOOTH",
"485 479 OFFCURVE",
"548 447 OFFCURVE",
"548 376 CURVE SMOOTH",
"548 307 OFFCURVE",
"493 274 OFFCURVE",
"391 274 CURVE SMOOTH",
"221 274 LINE",
"221 181 LINE",
"386 181 LINE SMOOTH",
"609 181 OFFCURVE",
"652 295 OFFCURVE",
"652 376 CURVE SMOOTH",
"652 499 OFFCURVE",
"565 572 OFFCURVE",
"393 572 CURVE SMOOTH",
"208 572 LINE",
"208 479 LINE"
);
}
);
width = 681;
},
{
anchors = (
{
name = bottom;
position = "{388, 0}";
},
{
name = top;
position = "{388, 772}";
}
);
layerId = "BE4E587A-F76C-447B-AA28-A45E40876AAF";
paths = (
{
closed = 1;
nodes = (
"78 565 LINE",
"78 207 LINE",
"21 207 LINE",
"21 0 LINE",
"336 0 LINE",
"336 772 LINE",
"21 772 LINE",
"21 565 LINE"
);
},
{
closed = 1;
nodes = (
"419 439 LINE SMOOTH",
"459 439 OFFCURVE",
"486 425 OFFCURVE",
"486 392 CURVE SMOOTH",
"486 359 OFFCURVE",
"463 343 OFFCURVE",
"418 343 CURVE SMOOTH",
"262 343 LINE",
"262 170 LINE",
"426 170 LINE SMOOTH",
"639 170 OFFCURVE",
"755 252 OFFCURVE",
"755 392 CURVE SMOOTH",
"755 530 OFFCURVE",
"646 612 OFFCURVE",
"429 612 CURVE SMOOTH",
"279 612 LINE",
"279 439 LINE"
);
}
);
width = 776;
},
{
anchors = (
{
name = bottom;
position = "{367, 0}";
},
{
name = top;
position = "{367, 772}";
}
);
associatedMasterId = "BE4E587A-F76C-447B-AA28-A45E40876AAF";
layerId = "713F3103-FA04-43BF-881E-CA01B5982081";
name = "Bold ]131]";
paths = (
{
closed = 1;
nodes = (
"78 565 LINE",
"78 207 LINE",
"21 207 LINE",
"21 0 LINE",
"393 0 LINE",
"393 207 LINE",
"336 207 LINE",
"336 565 LINE",
"393 565 LINE",
"393 772 LINE",
"21 772 LINE",
"21 565 LINE"
);
},
{
closed = 1;
nodes = (
"390 420 LINE SMOOTH",
"422 420 OFFCURVE",
"444 410 OFFCURVE",
"444 385 CURVE SMOOTH",
"444 363 OFFCURVE",
"426 352 OFFCURVE",
"389 352 CURVE SMOOTH",
"232 352 LINE",
"232 175 LINE",
"417 175 LINE SMOOTH",
"608 175 OFFCURVE",
"713 254 OFFCURVE",
"713 387 CURVE SMOOTH",
"713 519 OFFCURVE",
"615 597 OFFCURVE",
"420 597 CURVE SMOOTH",
"232 597 LINE",
"232 420 LINE"
);
}
);
width = 734;
}
);
leftKerningGroup = H;
leftMetricsKey = H;
rightMetricsKey = P;
unicode = 00DE;
},
{
color = 7;
glyphname = Q;
lastChange = "2018-04-25 04:32:44 +0000";
layers = (
{
anchors = (
{
name = bottom;
position = "{426, -182}";
},
{
name = top;
position = "{426, 732}";
}
);
layerId = "67AEAADB-8447-4819-9D92-8BB76BD22042";
paths = (
{
closed = 1;
nodes = (
"650 -7 OFFCURVE",
"805 151 OFFCURVE",
"805 378 CURVE SMOOTH",
"805 602 OFFCURVE",
"650 759 OFFCURVE",
"426 759 CURVE SMOOTH",
"202 759 OFFCURVE",
"47 602 OFFCURVE",
"47 378 CURVE SMOOTH",
"47 151 OFFCURVE",
"202 -7 OFFCURVE",
"426 -7 CURVE SMOOTH"
);
},
{
closed = 1;
nodes = (
"204 -2 OFFCURVE",
"52 154 OFFCURVE",
"52 378 CURVE SMOOTH",
"52 599 OFFCURVE",
"204 754 OFFCURVE",
"426 754 CURVE SMOOTH",
"648 754 OFFCURVE",
"800 599 OFFCURVE",
"800 378 CURVE SMOOTH",
"800 154 OFFCURVE",
"648 -2 OFFCURVE",
"426 -2 CURVE SMOOTH"
);
},
{
closed = 1;
nodes = (
"524 7 LINE",
"382 -21 OFFCURVE",
"328 -48 OFFCURVE",
"328 -106 CURVE SMOOTH",
"328 -151 OFFCURVE",
"359 -182 OFFCURVE",
"438 -182 CURVE SMOOTH",
"751 -182 LINE",
"751 -177 LINE",
"438 -177 LINE SMOOTH",
"362 -177 OFFCURVE",
"333 -147 OFFCURVE",
"333 -106 CURVE SMOOTH",
"333 -51 OFFCURVE",
"382 -26 OFFCURVE",
"524 4 CURVE"
);
}
);
width = 852;
},
{
anchors = (
{
name = bottom;
position = "{431, -182}";
},
{
name = top;
position = "{431, 732}";
}
);
layerId = "2C5E45D0-97E8-45AA-A5B2-946753DF54E1";
paths = (
{
closed = 1;
nodes = (
"662 -11 OFFCURVE",
"821 149 OFFCURVE",
"821 378 CURVE SMOOTH",
"821 604 OFFCURVE",
"662 763 OFFCURVE",
"431 763 CURVE SMOOTH",
"200 763 OFFCURVE",
"41 604 OFFCURVE",
"41 378 CURVE SMOOTH",
"41 149 OFFCURVE",
"199 -10 OFFCURVE",
"431 -11 CURVE SMOOTH"
);
},
{
closed = 1;
nodes = (
"265 89 OFFCURVE",
"150 208 OFFCURVE",
"150 378 CURVE SMOOTH",
"150 547 OFFCURVE",
"265 663 OFFCURVE",
"431 663 CURVE SMOOTH",
"597 663 OFFCURVE",
"712 547 OFFCURVE",
"712 378 CURVE SMOOTH",
"712 208 OFFCURVE",
"597 89 OFFCURVE",
"431 89 CURVE SMOOTH"
);
},
{
closed = 1;
nodes = (
"483 82 LINE",
"367 52 OFFCURVE",
"322 16 OFFCURVE",
"322 -56 CURVE SMOOTH",
"322 -134 OFFCURVE",
"368 -182 OFFCURVE",
"486 -182 CURVE SMOOTH",
"793 -182 LINE",
"793 -89 LINE",
"492 -89 LINE SMOOTH",
"444 -89 OFFCURVE",
"424 -78 OFFCURVE",
"424 -45 CURVE SMOOTH",
"424 -15 OFFCURVE",
"442 -1 OFFCURVE",
"485 29 CURVE"
);
}
);
width = 862;
},
{
associatedMasterId = "2C5E45D0-97E8-45AA-A5B2-946753DF54E1";
backgroundImage = {
crop = "{{0, 0}, {2448, 3264}}";
imagePath = "../../Reference/Bruce/Bruce1848/1848 George Bruce & Co. type specimen book..jpg";
locked = "1";
transform = "{6.87522, 0, 0, 6.87522, -1066, -8409}";
};
layerId = "335EA497-6E32-4BE1-8A61-C06F4C286B9A";
name = "Dec 24 17, 01:19";
paths = (
{
closed = 1;
nodes = (
"660 -11 OFFCURVE",
"819 149 OFFCURVE",
"819 378 CURVE SMOOTH",
"819 604 OFFCURVE",
"660 763 OFFCURVE",
"429 763 CURVE SMOOTH",
"198 763 OFFCURVE",
"39 604 OFFCURVE",
"39 378 CURVE SMOOTH",
"39 158 OFFCURVE",
"196 5 OFFCURVE",
"427 4 CURVE",
"429 -11 LINE"
);
},
{
closed = 1;
nodes = (
"263 89 OFFCURVE",
"148 208 OFFCURVE",
"148 378 CURVE SMOOTH",
"148 547 OFFCURVE",
"263 663 OFFCURVE",
"429 663 CURVE SMOOTH",
"595 663 OFFCURVE",
"710 547 OFFCURVE",
"710 378 CURVE SMOOTH",
"710 208 OFFCURVE",
"595 89 OFFCURVE",
"429 89 CURVE SMOOTH"
);
},
{
closed = 1;
nodes = (
"427 42 LINE",
"306 42 OFFCURVE",
"259 9 OFFCURVE",
"259 -62 CURVE SMOOTH",
"259 -134 OFFCURVE",
"305 -182 OFFCURVE",
"423 -182 CURVE SMOOTH",
"770 -182 LINE",
"770 -89 LINE",
"429 -89 LINE SMOOTH",
"381 -89 OFFCURVE",
"361 -78 OFFCURVE",
"361 -50 CURVE SMOOTH",
"361 -22 OFFCURVE",
"381 -11 OFFCURVE",
"429 -11 CURVE"
);
}
);
width = 858;
},
{
anchors = (
{
name = bottom;
position = "{434, -210}";
},
{
name = top;
position = "{434, 752}";
}
);
layerId = "BE4E587A-F76C-447B-AA28-A45E40876AAF";
paths = (
{
closed = 1;
nodes = (
"684 -14 OFFCURVE",
"857 151 OFFCURVE",
"857 388 CURVE SMOOTH",
"857 622 OFFCURVE",
"684 786 OFFCURVE",
"434 786 CURVE SMOOTH",
"184 786 OFFCURVE",
"11 622 OFFCURVE",
"11 388 CURVE SMOOTH",
"11 151 OFFCURVE",
"184 -14 OFFCURVE",
"434 -14 CURVE SMOOTH"
);
},
{
closed = 1;
nodes = (
"342 229 OFFCURVE",
"278 294 OFFCURVE",
"278 388 CURVE SMOOTH",
"278 480 OFFCURVE",
"342 543 OFFCURVE",
"434 543 CURVE SMOOTH",
"526 543 OFFCURVE",
"590 480 OFFCURVE",
"590 388 CURVE SMOOTH",
"590 294 OFFCURVE",
"526 229 OFFCURVE",
"434 229 CURVE SMOOTH"
);
},
{
closed = 1;
nodes = (
"523 92 LINE",
"327 75 OFFCURVE",
"252 10 OFFCURVE",
"252 -82 CURVE SMOOTH",
"252 -160 OFFCURVE",
"304 -210 OFFCURVE",
"437 -210 CURVE SMOOTH",
"763 -210 LINE",
"763 -34 LINE",
"518 -34 LINE SMOOTH",
"496 -34 OFFCURVE",
"487 -31 OFFCURVE",
"487 -20 CURVE SMOOTH",
"487 -8 OFFCURVE",
"497 1 OFFCURVE",
"525 9 CURVE"
);
}
);
width = 868;
}
);
leftKerningGroup = O;
leftMetricsKey = O;
rightKerningGroup = O;
rightMetricsKey = O;
unicode = 0051;
},
{
color = 6;
glyphname = R;
lastChange = "2018-04-25 04:21:15 +0000";
layers = (
{
anchors = (
{
name = bottom;
position = "{387, 0}";
},
{
name = top;
position = "{387, 732}";
}
);
layerId = "67AEAADB-8447-4819-9D92-8BB76BD22042";
paths = (
{
closed = 1;
nodes = (
"436 377 LINE",
"467 377 LINE SMOOTH",
"517 377 OFFCURVE",
"542 360 OFFCURVE",
"560 308 CURVE SMOOTH",
"667 0 LINE",
"763 0 LINE",
"763 5 LINE",
"671 5 LINE",
"565 310 LINE SMOOTH",
"548 358 OFFCURVE",
"530 381 OFFCURVE",
"461 381 CURVE"
);
},
{
closed = 1;
nodes = (
"435 747 LINE SMOOTH",
"602 747 OFFCURVE",
"685 677 OFFCURVE",
"685 574 CURVE SMOOTH",
"685 468 OFFCURVE",
"597 382 OFFCURVE",
"434 382 CURVE SMOOTH",
"172 382 LINE",
"172 377 LINE",
"458 377 LINE",
"482 378 LINE",
"482 381 LINE",
"598 390 OFFCURVE",
"690 464 OFFCURVE",
"690 574 CURVE SMOOTH",
"690 680 OFFCURVE",
"605 752 OFFCURVE",
"435 752 CURVE SMOOTH",
"296 752 LINE",
"296 747 LINE"
);
},
{
closed = 1;
nodes = (
"169 747 LINE",
"169 5 LINE",
"20 5 LINE",
"20 0 LINE",
"323 0 LINE",
"323 5 LINE",
"174 5 LINE",
"174 747 LINE",
"323 747 LINE",
"323 752 LINE",
"20 752 LINE",
"20 747 LINE"
);
}
);
width = 793;
},
{
anchors = (
{
name = bottom;
position = "{408, 0}";
},
{
name = top;
position = "{408, 772}";
}
);
layerId = "BE4E587A-F76C-447B-AA28-A45E40876AAF";
rightMetricsKey = "=P+6";
paths = (
{
closed = 1;
nodes = (
"335 297 LINE",
"427 297 LINE",
"442 297 OFFCURVE",
"449 292 OFFCURVE",
"454 272 CURVE SMOOTH",
"519 0 LINE",
"789 0 LINE",
"789 207 LINE",
"738 207 LINE",
"692 355 LINE SMOOTH",
"681 390 OFFCURVE",
"640 438 OFFCURVE",
"557 458 CURVE"
);
},
{
closed = 1;
nodes = (
"453 565 LINE SMOOTH",
"493 565 OFFCURVE",
"520 551 OFFCURVE",
"520 519 CURVE SMOOTH",
"520 489 OFFCURVE",
"496 474 OFFCURVE",
"452 474 CURVE SMOOTH",
"255 474 LINE",
"255 297 LINE",
"504 297 LINE",
"681 367 LINE",
"681 384 LINE",
"742 418 OFFCURVE",
"787 464 OFFCURVE",
"787 552 CURVE SMOOTH",
"787 690 OFFCURVE",
"676 772 OFFCURVE",
"457 772 CURVE SMOOTH",
"322 772 LINE",
"322 565 LINE"
);
},
{
closed = 1;
nodes = (
"78 565 LINE",
"78 207 LINE",
"21 207 LINE",
"21 0 LINE",
"393 0 LINE",
"393 207 LINE",
"336 207 LINE",
"336 565 LINE",
"393 565 LINE",
"393 772 LINE",
"21 772 LINE",
"21 565 LINE"
);
}
);
width = 816;
},
{
anchors = (
{
name = bottom;
position = "{373, 0}";
},
{
name = top;
position = "{373, 732}";
}
);
layerId = "2C5E45D0-97E8-45AA-A5B2-946753DF54E1";
paths = (
{
closed = 1;
nodes = (
"348 334 LINE",
"387 334 LINE",
"437 334 OFFCURVE",
"458 316 OFFCURVE",
"476 265 CURVE SMOOTH",
"568 0 LINE",
"730 0 LINE",
"730 93 LINE",
"651 93 LINE",
"559 324 LINE SMOOTH",
"543 365 OFFCURVE",
"497 390 OFFCURVE",
"458 398 CURVE"
);
},
{
closed = 1;
nodes = (
"419 659 LINE SMOOTH",
"515 659 OFFCURVE",
"578 625 OFFCURVE",
"578 546 CURVE SMOOTH",
"578 464 OFFCURVE",
"522 424 OFFCURVE",
"418 424 CURVE SMOOTH",
"221 424 LINE",
"221 334 LINE",
"410 334 LINE",
"537 345 LINE",
"537 362 LINE",
"632 387 OFFCURVE",
"682 461 OFFCURVE",
"682 553 CURVE SMOOTH",
"682 678 OFFCURVE",
"595 752 OFFCURVE",
"423 752 CURVE SMOOTH",
"288 752 LINE",
"288 659 LINE"
);
},
{
closed = 1;
nodes = (
"133 659 LINE",
"133 93 LINE",
"23 93 LINE",
"23 0 LINE",
"345 0 LINE",
"345 93 LINE",
"235 93 LINE",
"235 659 LINE",
"345 659 LINE",
"345 752 LINE",
"23 752 LINE",
"23 659 LINE"
);
}
);
width = 759;
},
{
anchors = (
{
name = bottom;
position = "{445, 0}";
},
{
name = top;
position = "{411, 732}";
}
);
associatedMasterId = "67AEAADB-8447-4819-9D92-8BB76BD22042";
layerId = "28A20D30-0F77-4469-942E-7EA5F3C357A7";
name = "Apr 14 18, 00:17";
paths = (
{
closed = 1;
nodes = (
"492 377 LINE",
"523 377 LINE SMOOTH",
"530 377 OFFCURVE",
"534 373 OFFCURVE",
"536 366 CURVE SMOOTH",
"663 0 LINE",
"759 0 LINE",
"759 5 LINE",
"667 5 LINE",
"541 367 LINE SMOOTH",
"537 378 OFFCURVE",
"533 381 OFFCURVE",
"523 381 CURVE"
);
},
{
closed = 1;
nodes = (
"440 747 LINE SMOOTH",
"607 747 OFFCURVE",
"690 677 OFFCURVE",
"690 571 CURVE SMOOTH",
"690 469 OFFCURVE",
"610 382 OFFCURVE",
"459 382 CURVE SMOOTH",
"172 382 LINE",
"172 377 LINE",
"477 377 LINE",
"501 378 LINE",
"501 381 LINE",
"609 390 OFFCURVE",
"695 464 OFFCURVE",
"695 571 CURVE SMOOTH",
"695 680 OFFCURVE",
"610 752 OFFCURVE",
"440 752 CURVE SMOOTH",
"301 752 LINE",
"301 747 LINE"
);
},
{
closed = 1;
nodes = (
"169 747 LINE",
"169 5 LINE",
"20 5 LINE",
"20 0 LINE",
"323 0 LINE",
"323 5 LINE",
"174 5 LINE",
"174 747 LINE",
"323 747 LINE",
"323 752 LINE",
"20 752 LINE",
"20 747 LINE"
);
}
);
width = 793;
}
);
leftKerningGroup = H;
leftMetricsKey = H;
rightKerningGroup = R;
rightMetricsKey = P;
unicode = 0052;
},
{
color = 7;
glyphname = S;
lastChange = "2018-04-25 04:22:43 +0000";
layers = (
{
anchors = (
{
name = bottom;
position = "{300, 0}";
},
{
name = top;
position = "{300, 732}";
}
);
layerId = "67AEAADB-8447-4819-9D92-8BB76BD22042";
leftMetricsKey = "=H+12";
rightMetricsKey = "=|+4";
paths = (
{
closed = 1;
nodes = (
"490 -10 OFFCURVE",
"574 59 OFFCURVE",
"574 183 CURVE SMOOTH",
"574 301 OFFCURVE",
"499 359 OFFCURVE",
"306 391 CURVE SMOOTH",
"106 424 OFFCURVE",
"40 473 OFFCURVE",
"40 577 CURVE SMOOTH",
"40 694 OFFCURVE",
"127 757 OFFCURVE",
"270 757 CURVE SMOOTH",
"431 757 OFFCURVE",
"518 679 OFFCURVE",
"541 524 CURVE",
"544 546 LINE",
"540 546 LINE",
"518 680 OFFCURVE",
"434 762 OFFCURVE",
"270 762 CURVE SMOOTH",
"124 762 OFFCURVE",
"35 697 OFFCURVE",
"35 577 CURVE SMOOTH",
"35 469 OFFCURVE",
"106 419 OFFCURVE",
"305 386 CURVE SMOOTH",
"498 354 OFFCURVE",
"569 298 OFFCURVE",
"569 183 CURVE SMOOTH",
"569 62 OFFCURVE",
"487 -5 OFFCURVE",
"337 -5 CURVE SMOOTH",
"163 -5 OFFCURVE",
"58 76 OFFCURVE",
"37 228 CURVE",
"35 208 LINE",
"38 208 LINE",
"61 71 OFFCURVE",
"164 -10 OFFCURVE",
"337 -10 CURVE SMOOTH"
);
},
{
closed = 1;
nodes = (
"37 0 LINE",
"37 228 LINE",
"32 228 LINE",
"32 0 LINE"
);
},
{
closed = 1;
nodes = (
"546 524 LINE",
"546 752 LINE",
"541 752 LINE",
"541 524 LINE"
);
}
);
width = 610;
},
{
anchors = (
{
name = bottom;
position = "{387, 0}";
},
{
name = top;
position = "{387, 772}";
}
);
layerId = "BE4E587A-F76C-447B-AA28-A45E40876AAF";
leftMetricsKey = "=H+4";
paths = (
{
closed = 1;
nodes = (
"672 -10 OFFCURVE",
"759 74 OFFCURVE",
"759 229 CURVE SMOOTH",
"759 407 OFFCURVE",
"642 505 OFFCURVE",
"410 522 CURVE SMOOTH",
"321 529 OFFCURVE",
"293 553 OFFCURVE",
"293 583 CURVE SMOOTH",
"293 611 OFFCURVE",
"318 625 OFFCURVE",
"358 625 CURVE SMOOTH",
"425 625 OFFCURVE",
"471 588 OFFCURVE",
"480 528 CURVE",
"495 630 LINE",
"472 630 LINE",
"462 732 OFFCURVE",
"392 786 OFFCURVE",
"272 786 CURVE SMOOTH",
"113 786 OFFCURVE",
"25 697 OFFCURVE",
"25 551 CURVE SMOOTH",
"25 371 OFFCURVE",
"140 274 OFFCURVE",
"374 255 CURVE SMOOTH",
"458 248 OFFCURVE",
"491 233 OFFCURVE",
"491 200 CURVE SMOOTH",
"491 169 OFFCURVE",
"464 151 OFFCURVE",
"420 151 CURVE SMOOTH",
"357 151 OFFCURVE",
"307 191 OFFCURVE",
"296 248 CURVE",
"281 143 LINE",
"304 143 LINE",
"316 38 OFFCURVE",
"381 -10 OFFCURVE",
"505 -10 CURVE SMOOTH"
);
},
{
closed = 1;
nodes = (
"296 0 LINE",
"296 248 LINE",
"38 248 LINE",
"38 0 LINE"
);
},
{
closed = 1;
nodes = (
"738 528 LINE",
"738 772 LINE",
"480 772 LINE",
"480 528 LINE"
);
}
);
width = 773;
},
{
anchors = (
{
name = bottom;
position = "{338, 0}";
},
{
name = top;
position = "{338, 732}";
}
);
layerId = "2C5E45D0-97E8-45AA-A5B2-946753DF54E1";
leftMetricsKey = "=O+2";
rightMetricsKey = "=O+2";
paths = (
{
closed = 1;
nodes = (
"534 -10 OFFCURVE",
"626 71 OFFCURVE",
"626 208 CURVE SMOOTH",
"626 342 OFFCURVE",
"546 408 OFFCURVE",
"344 439 CURVE SMOOTH",
"206 465 OFFCURVE",
"148 503 OFFCURVE",
"148 570 CURVE SMOOTH",
"148 634 OFFCURVE",
"204 673 OFFCURVE",
"294 673 CURVE SMOOTH",
"400 673 OFFCURVE",
"482 614 OFFCURVE",
"498 524 CURVE",
"517 600 LINE",
"494 600 LINE",
"481 707 OFFCURVE",
"408 762 OFFCURVE",
"280 762 CURVE SMOOTH",
"133 762 OFFCURVE",
"44 688 OFFCURVE",
"44 565 CURVE SMOOTH",
"44 440 OFFCURVE",
"138 364 OFFCURVE",
"328 338 CURVE SMOOTH",
"470 318 OFFCURVE",
"522 281 OFFCURVE",
"522 201 CURVE SMOOTH",
"522 122 OFFCURVE",
"465 79 OFFCURVE",
"362 79 CURVE SMOOTH",
"246 79 OFFCURVE",
"162 136 OFFCURVE",
"145 228 CURVE",
"126 149 LINE",
"149 149 LINE",
"164 47 OFFCURVE",
"246 -10 OFFCURVE",
"378 -10 CURVE SMOOTH"
);
},
{
closed = 1;
nodes = (
"145 0 LINE",
"145 228 LINE",
"43 228 LINE",
"43 0 LINE"
);
},
{
closed = 1;
nodes = (
"600 524 LINE",
"600 752 LINE",
"498 752 LINE",
"498 524 LINE"
);
}
);
width = 669;
},
{
anchors = (
{
name = bottom;
position = "{339, 0}";
},
{
name = top;
position = "{300, 732}";
}
);
associatedMasterId = "67AEAADB-8447-4819-9D92-8BB76BD22042";
layerId = "56725886-56DC-4334-8FA3-A525F4F55AA4";
leftMetricsKey = "=H+12";
rightMetricsKey = "=|+4";
name = "Light [6off]";
paths = (
{
closed = 1;
nodes = (
"490 -10 OFFCURVE",
"574 59 OFFCURVE",
"574 183 CURVE SMOOTH",
"574 301 OFFCURVE",
"499 359 OFFCURVE",
"306 391 CURVE SMOOTH",
"106 424 OFFCURVE",
"40 473 OFFCURVE",
"40 577 CURVE SMOOTH",
"40 694 OFFCURVE",
"127 757 OFFCURVE",
"270 757 CURVE SMOOTH",
"431 757 OFFCURVE",
"518 679 OFFCURVE",
"541 524 CURVE",
"544 577 LINE",
"540 577 LINE",
"514 685 OFFCURVE",
"430 762 OFFCURVE",
"270 762 CURVE SMOOTH",
"124 762 OFFCURVE",
"35 697 OFFCURVE",
"35 577 CURVE SMOOTH",
"35 469 OFFCURVE",
"106 419 OFFCURVE",
"305 386 CURVE SMOOTH",
"498 354 OFFCURVE",
"569 298 OFFCURVE",
"569 183 CURVE SMOOTH",
"569 62 OFFCURVE",
"487 -5 OFFCURVE",
"332 -5 CURVE SMOOTH",
"163 -5 OFFCURVE",
"58 76 OFFCURVE",
"37 228 CURVE",
"35 178 LINE",
"38 178 LINE",
"65 66 OFFCURVE",
"167 -10 OFFCURVE",
"332 -10 CURVE SMOOTH"
);
},
{
closed = 1;
nodes = (
"37 0 LINE",
"37 228 LINE",
"32 228 LINE",
"32 0 LINE"
);
},
{
closed = 1;
nodes = (
"546 524 LINE",
"546 752 LINE",
"541 752 LINE",
"541 524 LINE"
);
}
);
width = 610;
},
{
anchors = (
{
name = bottom;
position = "{411, 0}";
},
{
name = top;
position = "{344, 732}";
}
);
associatedMasterId = "BE4E587A-F76C-447B-AA28-A45E40876AAF";
layerId = "F8ECC15C-CBDE-49AD-B5FB-69E86B5BF4A4";
leftMetricsKey = "=H+4";
name = "Mar 20 18, 14:45";
paths = (
{
closed = 1;
nodes = (
"669 -10 OFFCURVE",
"756 74 OFFCURVE",
"756 229 CURVE SMOOTH",
"756 407 OFFCURVE",
"639 505 OFFCURVE",
"407 522 CURVE SMOOTH",
"318 529 OFFCURVE",
"290 553 OFFCURVE",
"290 585 CURVE SMOOTH",
"290 614 OFFCURVE",
"315 629 OFFCURVE",
"355 629 CURVE SMOOTH",
"422 629 OFFCURVE",
"468 590 OFFCURVE",
"477 528 CURVE",
"492 584 LINE",
"469 584 LINE",
"459 721 OFFCURVE",
"389 786 OFFCURVE",
"259 786 CURVE SMOOTH",
"110 786 OFFCURVE",
"22 697 OFFCURVE",
"22 551 CURVE SMOOTH",
"22 371 OFFCURVE",
"137 274 OFFCURVE",
"371 255 CURVE SMOOTH",
"455 248 OFFCURVE",
"488 233 OFFCURVE",
"488 198 CURVE SMOOTH",
"488 166 OFFCURVE",
"461 147 OFFCURVE",
"414 147 CURVE SMOOTH",
"354 147 OFFCURVE",
"304 189 OFFCURVE",
"293 248 CURVE",
"278 189 LINE",
"301 189 LINE",
"313 52 OFFCURVE",
"378 -10 OFFCURVE",
"512 -10 CURVE SMOOTH"
);
},
{
closed = 1;
nodes = (
"293 0 LINE",
"293 248 LINE",
"35 248 LINE",
"35 0 LINE"
);
},
{
closed = 1;
nodes = (
"735 528 LINE",
"735 772 LINE",
"477 772 LINE",
"477 528 LINE"
);
}
);
width = 767;
}
);
leftKerningGroup = S;
rightKerningGroup = S;
rightMetricsKey = "=|-11";
unicode = 0053;
},
{
color = 4;
glyphname = Germandbls;
lastChange = "2018-04-25 04:23:09 +0000";
layers = (
{
anchors = (
{
name = bottom;
position = "{439, 0}";
},
{
name = top;
position = "{439, 732}";
}
);
layerId = "67AEAADB-8447-4819-9D92-8BB76BD22042";
leftMetricsKey = "=n+12";
paths = (
{
closed = 1;
nodes = (
"422 417 LINE",
"428 417 LINE",
"428 422 LINE",
"701 667 LINE",
"701 669 LINE",
"695 671 LINE",
"695 668 LINE",
"422 423 LINE"
);
},
{
closed = 1;
nodes = (
"306 5 LINE",
"196 5 LINE",
"196 557 LINE SMOOTH",
"196 697 OFFCURVE",
"267 792 OFFCURVE",
"428 792 CURVE SMOOTH",
"532 792 OFFCURVE",
"630 753 OFFCURVE",
"697 666 CURVE",
"701 669 LINE",
"634 756 OFFCURVE",
"535 797 OFFCURVE",
"428 797 CURVE SMOOTH",
"264 797 OFFCURVE",
"191 700 OFFCURVE",
"191 557 CURVE SMOOTH",
"191 5 LINE",
"62 5 LINE",
"62 0 LINE",
"306 0 LINE"
);
},
{
closed = 1;
nodes = (
"422 417 LINE",
"669 400 OFFCURVE",
"765 331 OFFCURVE",
"765 199 CURVE SMOOTH",
"765 80 OFFCURVE",
"691 -2 OFFCURVE",
"528 -2 CURVE SMOOTH",
"396 -2 OFFCURVE",
"328 50 OFFCURVE",
"309 144 CURVE",
"304 143 LINE",
"323 49 OFFCURVE",
"393 -7 OFFCURVE",
"528 -7 CURVE SMOOTH",
"694 -7 OFFCURVE",
"770 78 OFFCURVE",
"770 199 CURVE SMOOTH",
"770 334 OFFCURVE",
"670 405 OFFCURVE",
"423 422 CURVE"
);
}
);
width = 826;
},
{
anchors = (
{
name = bottom;
position = "{438, 0}";
},
{
name = top;
position = "{438, 772}";
}
);
layerId = "BE4E587A-F76C-447B-AA28-A45E40876AAF";
leftMetricsKey = "=n+12";
paths = (
{
closed = 1;
nodes = (
"433 277 LINE",
"705 389 LINE",
"705 421 LINE",
"782 512 LINE",
"782 629 LINE",
"503 568 LINE",
"503 539 LINE",
"433 462 LINE"
);
},
{
closed = 1;
nodes = (
"395 203 LINE",
"348 203 LINE",
"348 496 LINE SMOOTH",
"348 543 OFFCURVE",
"373 565 OFFCURVE",
"417 565 CURVE SMOOTH",
"469 565 OFFCURVE",
"505 534 OFFCURVE",
"518 503 CURVE",
"782 629 LINE",
"698 745 OFFCURVE",
"575 800 OFFCURVE",
"420 800 CURVE SMOOTH",
"195 800 OFFCURVE",
"89 678 OFFCURVE",
"89 496 CURVE SMOOTH",
"90 203 LINE",
"33 203 LINE",
"33 0 LINE",
"395 0 LINE"
);
},
{
closed = 1;
nodes = (
"433 277 LINE",
"549 272 OFFCURVE",
"594 254 OFFCURVE",
"594 215 CURVE SMOOTH",
"594 192 OFFCURVE",
"579 180 OFFCURVE",
"555 180 CURVE SMOOTH",
"540 180 OFFCURVE",
"527 185 OFFCURVE",
"514 194 CURVE",
"424 16 LINE",
"462 -3 OFFCURVE",
"496 -12 OFFCURVE",
"562 -12 CURVE SMOOTH",
"766 -12 OFFCURVE",
"856 74 OFFCURVE",
"856 220 CURVE SMOOTH",
"856 344 OFFCURVE",
"784 411 OFFCURVE",
"589 440 CURVE"
);
}
);
width = 875;
},
{
associatedMasterId = "2C5E45D0-97E8-45AA-A5B2-946753DF54E1";
layerId = "FE80F295-343F-470D-BC19-20BD28AC8CD9";
rightMetricsKey = "=s-16";
name = "Jan 3 18, 14:29";
paths = (
{
closed = 1;
nodes = (
"362 337 LINE",
"483 379 LINE",
"483 411 LINE",
"631 673 LINE",
"631 759 LINE",
"532 720 LINE",
"532 691 LINE",
"362 404 LINE"
);
},
{
closed = 1;
nodes = (
"362 337 LINE",
"538 325 OFFCURVE",
"606 281 OFFCURVE",
"606 191 CURVE SMOOTH",
"606 115 OFFCURVE",
"559 78 OFFCURVE",
"472 78 CURVE SMOOTH",
"411 78 OFFCURVE",
"369 107 OFFCURVE",
"361 148 CURVE",
"264 130 LINE",
"282 42 OFFCURVE",
"342 -10 OFFCURVE",
"475 -10 CURVE SMOOTH",
"625 -10 OFFCURVE",
"700 71 OFFCURVE",
"700 198 CURVE SMOOTH",
"700 329 OFFCURVE",
"622 399 OFFCURVE",
"408 430 CURVE"
);
},
{
closed = 1;
nodes = (
"232 584 LINE SMOOTH",
"232 675 OFFCURVE",
"282 711 OFFCURVE",
"395 711 CURVE SMOOTH",
"470 711 OFFCURVE",
"536 695 OFFCURVE",
"611 672 CURVE",
"631 759 LINE",
"546 782 OFFCURVE",
"459 800 OFFCURVE",
"380 800 CURVE SMOOTH",
"212 800 OFFCURVE",
"135 717 OFFCURVE",
"135 584 CURVE SMOOTH",
"135 536 LINE",
"32 536 LINE",
"32 452 LINE",
"134 452 LINE",
"134 84 LINE",
"32 84 LINE",
"32 0 LINE",
"232 0 LINE",
"232 452 LINE",
"232 536 LINE"
);
}
);
width = 732;
},
{
associatedMasterId = "2C5E45D0-97E8-45AA-A5B2-946753DF54E1";
layerId = "EB730B4A-FF7D-4771-98D9-8E290D735F46";
rightMetricsKey = "=s-16";
name = "Jan 3 18, 14:37";
paths = (
{
closed = 1;
nodes = (
"402 367 LINE",
"523 409 LINE",
"523 441 LINE",
"685 656 LINE",
"685 690 LINE",
"575 685 LINE",
"575 656 LINE",
"402 434 LINE"
);
},
{
closed = 1;
nodes = (
"402 367 LINE",
"578 354 OFFCURVE",
"646 307 OFFCURVE",
"646 210 CURVE SMOOTH",
"646 126 OFFCURVE",
"590 76 OFFCURVE",
"500 76 CURVE SMOOTH",
"423 76 OFFCURVE",
"371 113 OFFCURVE",
"361 165 CURVE",
"264 147 LINE",
"284 47 OFFCURVE",
"355 -12 OFFCURVE",
"499 -12 CURVE SMOOTH",
"665 -12 OFFCURVE",
"740 74 OFFCURVE",
"740 211 CURVE SMOOTH",
"740 355 OFFCURVE",
"662 428 OFFCURVE",
"448 460 CURVE"
);
},
{
closed = 1;
nodes = (
"134 659 LINE",
"134 93 LINE",
"24 93 LINE",
"24 0 LINE",
"236 0 LINE",
"236 659 LINE",
"685 659 LINE",
"685 752 LINE",
"24 752 LINE",
"24 659 LINE"
);
}
);
width = 772;
},
{
anchors = (
{
name = bottom;
position = "{410, 0}";
},
{
name = top;
position = "{410, 732}";
}
);
layerId = "2C5E45D0-97E8-45AA-A5B2-946753DF54E1";
leftMetricsKey = "=H";
rightMetricsKey = "=S-16";
paths = (
{
closed = 1;
nodes = (
"427 367 LINE",
"548 417 LINE",
"548 449 LINE",
"706 576 LINE",
"706 669 LINE",
"616 664 LINE",
"616 635 LINE",
"427 471 LINE"
);
},
{
closed = 1;
nodes = (
"287 94 LINE",
"227 94 LINE",
"227 557 LINE SMOOTH",
"227 654 OFFCURVE",
"298 700 OFFCURVE",
"412 700 CURVE SMOOTH",
"538 700 OFFCURVE",
"618 643 OFFCURVE",
"646 585 CURVE",
"706 669 LINE",
"637 758 OFFCURVE",
"537 800 OFFCURVE",
"407 800 CURVE SMOOTH",
"216 800 OFFCURVE",
"126 702 OFFCURVE",
"126 557 CURVE",
"125 93 LINE",
"23 93 LINE",
"23 0 LINE",
"287 0 LINE"
);
},
{
closed = 1;
nodes = (
"427 367 LINE",
"603 354 OFFCURVE",
"671 307 OFFCURVE",
"671 212 CURVE SMOOTH",
"671 130 OFFCURVE",
"618 83 OFFCURVE",
"534 83 CURVE SMOOTH",
"462 83 OFFCURVE",
"415 117 OFFCURVE",
"406 165 CURVE",
"309 143 LINE",
"328 46 OFFCURVE",
"395 -12 OFFCURVE",
"533 -12 CURVE SMOOTH",
"699 -12 OFFCURVE",
"775 74 OFFCURVE",
"775 211 CURVE SMOOTH",
"775 355 OFFCURVE",
"694 428 OFFCURVE",
"473 460 CURVE"
);
}
);
width = 802;
},
{
associatedMasterId = "2C5E45D0-97E8-45AA-A5B2-946753DF54E1";
layerId = "7A2D836D-4BFC-4F42-A04F-CB07B7DAE8B8";
leftMetricsKey = "=H";
rightMetricsKey = "=S-16";
name = "Mar 14 18, 15:13";
paths = (
{
closed = 1;
nodes = (
"422 367 LINE",
"543 417 LINE",
"543 449 LINE",
"701 576 LINE",
"701 669 LINE",
"611 664 LINE",
"611 635 LINE",
"422 471 LINE"
);
},
{
closed = 1;
nodes = (
"252 557 LINE SMOOTH",
"252 654 OFFCURVE",
"319 700 OFFCURVE",
"425 700 CURVE SMOOTH",
"542 700 OFFCURVE",
"615 643 OFFCURVE",
"641 585 CURVE",
"701 669 LINE",
"637 758 OFFCURVE",
"543 800 OFFCURVE",
"420 800 CURVE SMOOTH",
"238 800 OFFCURVE",
"151 702 OFFCURVE",
"151 557 CURVE SMOOTH",
"151 536 LINE",
"48 536 LINE",
"48 443 LINE",
"150 443 LINE",
"150 93 LINE",
"48 93 LINE",
"48 0 LINE",
"252 0 LINE"
);
},
{
closed = 1;
nodes = (
"422 367 LINE",
"598 354 OFFCURVE",
"666 307 OFFCURVE",
"666 212 CURVE SMOOTH",
"666 130 OFFCURVE",
"613 83 OFFCURVE",
"529 83 CURVE SMOOTH",
"457 83 OFFCURVE",
"410 117 OFFCURVE",
"401 165 CURVE",
"304 143 LINE",
"323 46 OFFCURVE",
"390 -12 OFFCURVE",
"528 -12 CURVE SMOOTH",
"694 -12 OFFCURVE",
"770 74 OFFCURVE",
"770 211 CURVE SMOOTH",
"770 355 OFFCURVE",
"689 428 OFFCURVE",
"468 460 CURVE"
);
}
);
width = 810;
},
{
associatedMasterId = "67AEAADB-8447-4819-9D92-8BB76BD22042";
layerId = "5D449654-87D6-4E8D-B954-DA4B523FA6C0";
leftMetricsKey = "=n+12";
name = "Mar 14 18, 15:13";
paths = (
{
closed = 1;
nodes = (
"385 417 LINE",
"391 417 LINE",
"391 422 LINE",
"664 667 LINE",
"664 669 LINE",
"658 671 LINE",
"658 668 LINE",
"385 423 LINE"
);
},
{
closed = 1;
nodes = (
"185 557 LINE SMOOTH",
"185 697 OFFCURVE",
"252 792 OFFCURVE",
"404 792 CURVE SMOOTH",
"503 792 OFFCURVE",
"596 753 OFFCURVE",
"660 666 CURVE",
"664 669 LINE",
"600 756 OFFCURVE",
"506 797 OFFCURVE",
"404 797 CURVE SMOOTH",
"249 797 OFFCURVE",
"180 700 OFFCURVE",
"180 557 CURVE SMOOTH",
"180 524 LINE",
"51 524 LINE",
"51 519 LINE",
"180 519 LINE",
"180 5 LINE",
"51 5 LINE",
"51 0 LINE",
"185 0 LINE"
);
},
{
closed = 1;
nodes = (
"385 417 LINE",
"632 400 OFFCURVE",
"728 331 OFFCURVE",
"728 199 CURVE SMOOTH",
"728 81 OFFCURVE",
"654 -2 OFFCURVE",
"491 -2 CURVE SMOOTH",
"359 -2 OFFCURVE",
"291 50 OFFCURVE",
"272 144 CURVE",
"267 143 LINE",
"286 49 OFFCURVE",
"356 -7 OFFCURVE",
"491 -7 CURVE SMOOTH",
"657 -7 OFFCURVE",
"733 78 OFFCURVE",
"733 199 CURVE SMOOTH",
"733 334 OFFCURVE",
"633 405 OFFCURVE",
"386 422 CURVE"
);
}
);
width = 794;
},
{
associatedMasterId = "BE4E587A-F76C-447B-AA28-A45E40876AAF";
layerId = "A19A1ABD-413B-406B-8389-FADDDF7B4D8D";
leftMetricsKey = "=n+12";
name = "Mar 14 18, 15:13";
paths = (
{
closed = 1;
nodes = (
"428 277 LINE",
"700 389 LINE",
"700 421 LINE",
"777 512 LINE",
"777 629 LINE",
"498 568 LINE",
"498 539 LINE",
"428 462 LINE"
);
},
{
closed = 1;
nodes = (
"373 516 LINE SMOOTH",
"373 560 OFFCURVE",
"396 581 OFFCURVE",
"432 581 CURVE SMOOTH",
"473 581 OFFCURVE",
"498 552 OFFCURVE",
"507 523 CURVE",
"777 629 LINE",
"699 745 OFFCURVE",
"585 800 OFFCURVE",
"436 800 CURVE SMOOTH",
"222 800 OFFCURVE",
"119 714 OFFCURVE",
"119 586 CURVE SMOOTH",
"119 580 LINE",
"30 580 LINE",
"30 377 LINE",
"119 377 LINE",
"119 203 LINE",
"30 203 LINE",
"30 0 LINE",
"373 0 LINE"
);
},
{
closed = 1;
nodes = (
"428 277 LINE",
"544 272 OFFCURVE",
"589 254 OFFCURVE",
"589 215 CURVE SMOOTH",
"589 192 OFFCURVE",
"574 180 OFFCURVE",
"550 180 CURVE SMOOTH",
"535 180 OFFCURVE",
"522 185 OFFCURVE",
"509 194 CURVE",
"419 16 LINE",
"457 -3 OFFCURVE",
"491 -12 OFFCURVE",
"557 -12 CURVE SMOOTH",
"761 -12 OFFCURVE",
"851 74 OFFCURVE",
"851 220 CURVE SMOOTH",
"851 344 OFFCURVE",
"779 411 OFFCURVE",
"584 440 CURVE"
);
}
);
width = 872;
}
);
leftMetricsKey = "n+12";
rightMetricsKey = s;
unicode = 1E9E;
},
{
color = 4;
glyphname = Schwa;
lastChange = "2018-04-25 04:23:23 +0000";
layers = (
{
anchors = (
{
name = bottom;
position = "{426, 0}";
},
{
name = top;
position = "{426, 732}";
}
);
layerId = "67AEAADB-8447-4819-9D92-8BB76BD22042";
leftMetricsKey = "=O-2";
paths = (
{
closed = 1;
nodes = (
"47 386 LINE",
"47 381 LINE",
"802 381 LINE",
"802 386 LINE"
);
},
{
closed = 1;
nodes = (
"265 759 OFFCURVE",
"132 685 OFFCURVE",
"73 538 CURVE",
"78 536 LINE",
"137 682 OFFCURVE",
"268 754 OFFCURVE",
"425 754 CURVE SMOOTH",
"651 754 OFFCURVE",
"800 599 OFFCURVE",
"800 378 CURVE SMOOTH",
"800 154 OFFCURVE",
"646 -2 OFFCURVE",
"425 -2 CURVE SMOOTH",
"203 -2 OFFCURVE",
"50 154 OFFCURVE",
"50 378 CURVE SMOOTH",
"50 381 OFFCURVE",
"50 383 OFFCURVE",
"50 386 CURVE",
"45 386 LINE",
"45 384 OFFCURVE",
"45 381 OFFCURVE",
"45 378 CURVE SMOOTH",
"45 151 OFFCURVE",
"200 -7 OFFCURVE",
"425 -7 CURVE SMOOTH",
"649 -7 OFFCURVE",
"805 151 OFFCURVE",
"805 378 CURVE SMOOTH",
"805 602 OFFCURVE",
"654 759 OFFCURVE",
"425 759 CURVE SMOOTH"
);
}
);
width = 852;
},
{
anchors = (
{
name = bottom;
position = "{421, 0}";
},
{
name = top;
position = "{421, 732}";
}
);
layerId = "2C5E45D0-97E8-45AA-A5B2-946753DF54E1";
leftMetricsKey = "=O-3";
rightMetricsKey = "=O+2";
paths = (
{
closed = 1;
nodes = (
"40 428 LINE",
"48 338 LINE",
"720 338 LINE",
"720 428 LINE"
);
},
{
closed = 1;
nodes = (
"258 763 OFFCURVE",
"125 688 OFFCURVE",
"66 538 CURVE",
"166 500 LINE",
"203 598 OFFCURVE",
"299 663 OFFCURVE",
"418 663 CURVE SMOOTH",
"580 663 OFFCURVE",
"689 547 OFFCURVE",
"689 378 CURVE SMOOTH",
"689 208 OFFCURVE",
"577 89 OFFCURVE",
"418 89 CURVE SMOOTH",
"257 89 OFFCURVE",
"147 208 OFFCURVE",
"147 378 CURVE SMOOTH",
"147 391 OFFCURVE",
"147 403 OFFCURVE",
"147 417 CURVE",
"40 428 LINE",
"39 414 OFFCURVE",
"38 396 OFFCURVE",
"38 378 CURVE SMOOTH",
"38 149 OFFCURVE",
"193 -11 OFFCURVE",
"418 -11 CURVE SMOOTH",
"642 -11 OFFCURVE",
"798 149 OFFCURVE",
"798 378 CURVE SMOOTH",
"798 604 OFFCURVE",
"647 763 OFFCURVE",
"418 763 CURVE SMOOTH"
);
}
);
width = 841;
},
{
anchors = (
{
name = bottom;
position = "{435, 0}";
},
{
name = top;
position = "{435, 772}";
}
);
layerId = "BE4E587A-F76C-447B-AA28-A45E40876AAF";
leftMetricsKey = "=O+2";
paths = (
{
closed = 1;
nodes = (
"42 434 LINE",
"50 338 LINE",
"722 338 LINE",
"722 434 LINE"
);
},
{
closed = 1;
nodes = (
"252 786 OFFCURVE",
"110 697 OFFCURVE",
"47 557 CURVE",
"291 450 LINE",
"313 507 OFFCURVE",
"366 543 OFFCURVE",
"436 543 CURVE SMOOTH",
"528 543 OFFCURVE",
"592 480 OFFCURVE",
"592 388 CURVE SMOOTH",
"592 294 OFFCURVE",
"528 229 OFFCURVE",
"436 229 CURVE SMOOTH",
"344 229 OFFCURVE",
"280 294 OFFCURVE",
"280 388 CURVE SMOOTH",
"280 404 OFFCURVE",
"282 420 OFFCURVE",
"286 434 CURVE",
"15 434 LINE",
"14 419 OFFCURVE",
"13 404 OFFCURVE",
"13 388 CURVE SMOOTH",
"13 151 OFFCURVE",
"186 -14 OFFCURVE",
"436 -14 CURVE SMOOTH",
"686 -14 OFFCURVE",
"859 151 OFFCURVE",
"859 388 CURVE SMOOTH",
"859 622 OFFCURVE",
"686 786 OFFCURVE",
"436 786 CURVE SMOOTH"
);
}
);
width = 870;
},
{
associatedMasterId = "BE4E587A-F76C-447B-AA28-A45E40876AAF";
layerId = "C52F069E-406C-4236-8650-9E28C7D0ABB4";
leftMetricsKey = "=O+2";
name = "Feb 21 18, 17:49";
paths = (
{
closed = 1;
nodes = (
"42 434 LINE",
"50 338 LINE",
"722 338 LINE",
"722 434 LINE"
);
},
{
closed = 1;
nodes = (
"288 772 LINE",
"34 772 LINE",
"34 452 LINE",
"288 452 LINE"
);
},
{
closed = 1;
nodes = (
"360 786 OFFCURVE",
"305 673 OFFCURVE",
"296 506 CURVE",
"248 506 LINE",
"288 452 LINE",
"307 508 OFFCURVE",
"365 543 OFFCURVE",
"437 543 CURVE SMOOTH",
"532 543 OFFCURVE",
"592 480 OFFCURVE",
"592 388 CURVE SMOOTH",
"592 294 OFFCURVE",
"528 229 OFFCURVE",
"436 229 CURVE SMOOTH",
"344 229 OFFCURVE",
"280 294 OFFCURVE",
"280 388 CURVE SMOOTH",
"280 404 OFFCURVE",
"282 420 OFFCURVE",
"286 434 CURVE",
"15 434 LINE",
"14 419 OFFCURVE",
"13 404 OFFCURVE",
"13 388 CURVE SMOOTH",
"13 151 OFFCURVE",
"186 -14 OFFCURVE",
"436 -14 CURVE SMOOTH",
"686 -14 OFFCURVE",
"859 151 OFFCURVE",
"859 388 CURVE SMOOTH",
"859 622 OFFCURVE",
"687 786 OFFCURVE",
"509 786 CURVE SMOOTH"
);
}
);
width = 870;
}
);
rightMetricsKey = O;
unicode = 018F;
},
{
glyphname = T;
lastChange = "2018-04-25 04:23:42 +0000";
layers = (
{
anchors = (
{
name = bottom;
position = "{357, 0}";
},
{
name = top;
position = "{357, 732}";
}
);
layerId = "67AEAADB-8447-4819-9D92-8BB76BD22042";
paths = (
{
closed = 1;
nodes = (
"18 752 LINE",
"18 541 LINE",
"23 541 LINE",
"23 747 LINE",
"355 747 LINE",
"355 5 LINE",
"206 5 LINE",
"206 0 LINE",
"508 0 LINE",
"508 5 LINE",
"360 5 LINE",
"360 747 LINE",
"692 747 LINE",
"692 541 LINE",
"697 541 LINE",
"697 752 LINE"
);
}
);
width = 715;
},
{
anchors = (
{
name = bottom;
position = "{378, 0}";
},
{
name = top;
position = "{378, 732}";
}
);
layerId = "2C5E45D0-97E8-45AA-A5B2-946753DF54E1";
paths = (
{
closed = 1;
nodes = (
"17 752 LINE",
"17 500 LINE",
"119 500 LINE",
"119 659 LINE",
"327 659 LINE",
"327 93 LINE",
"217 93 LINE",
"217 0 LINE",
"539 0 LINE",
"539 93 LINE",
"429 93 LINE",
"429 659 LINE",
"637 659 LINE",
"637 500 LINE",
"739 500 LINE",
"739 752 LINE"
);
}
);
width = 756;
},
{
anchors = (
{
name = bottom;
position = "{446, 0}";
},
{
name = top;
position = "{446, 732}";
}
);
associatedMasterId = "BE4E587A-F76C-447B-AA28-A45E40876AAF";
layerId = "1DCD6A0C-C43B-49AE-9011-5337C9DC4995";
name = "Feb 18 18, 17:30";
paths = (
{
closed = 1;
nodes = (
"7 772 LINE",
"7 401 LINE",
"265 401 LINE",
"265 565 LINE",
"317 565 LINE",
"317 207 LINE",
"262 207 LINE",
"262 0 LINE",
"630 0 LINE",
"630 207 LINE",
"575 207 LINE",
"575 565 LINE",
"627 565 LINE",
"627 401 LINE",
"885 401 LINE",
"885 772 LINE"
);
}
);
width = 892;
},
{
anchors = (
{
name = bottom;
position = "{407, 0}";
},
{
name = top;
position = "{407, 772}";
}
);
layerId = "BE4E587A-F76C-447B-AA28-A45E40876AAF";
paths = (
{
closed = 1;
nodes = (
"9 772 LINE",
"9 428 LINE",
"233 428 LINE",
"233 565 LINE",
"278 565 LINE",
"278 207 LINE",
"223 207 LINE",
"223 0 LINE",
"591 0 LINE",
"591 207 LINE",
"536 207 LINE",
"536 565 LINE",
"581 565 LINE",
"581 428 LINE",
"805 428 LINE",
"805 772 LINE"
);
}
);
width = 814;
}
);
leftKerningGroup = T;
leftMetricsKey = "=|F";
rightKerningGroup = T;
rightMetricsKey = "=|";
unicode = 0054;
},
{
color = 8;
glyphname = U;
lastChange = "2018-04-25 04:24:14 +0000";
layers = (
{
anchors = (
{
name = bottom;
position = "{431, 0}";
},
{
name = horn;
position = "{855, 752}";
},
{
name = ogonek;
position = "{556, 13}";
},
{
name = top;
position = "{424, 732}";
}
);
layerId = "67AEAADB-8447-4819-9D92-8BB76BD22042";
paths = (
{
closed = 1;
nodes = (
"553 747 LINE",
"702 747 LINE",
"702 299 LINE SMOOTH",
"702 115 OFFCURVE",
"633 -2 OFFCURVE",
"431 -2 CURVE SMOOTH",
"229 -2 OFFCURVE",
"161 115 OFFCURVE",
"161 299 CURVE SMOOTH",
"161 747 LINE",
"309 747 LINE",
"309 752 LINE",
"7 752 LINE",
"7 747 LINE",
"156 747 LINE",
"156 299 LINE SMOOTH",
"156 113 OFFCURVE",
"226 -7 OFFCURVE",
"431 -7 CURVE SMOOTH",
"636 -7 OFFCURVE",
"707 113 OFFCURVE",
"707 299 CURVE SMOOTH",
"707 747 LINE",
"855 747 LINE",
"855 752 LINE",
"553 752 LINE"
);
}
);
width = 862;
},
{
anchors = (
{
name = bottom;
position = "{432, 0}";
},
{
name = horn;
position = "{829, 772}";
},
{
name = ogonek;
position = "{592, 25}";
},
{
name = top;
position = "{432, 772}";
}
);
layerId = "BE4E587A-F76C-447B-AA28-A45E40876AAF";
leftMetricsKey = "=|J";
paths = (
{
closed = 1;
nodes = (
"482 565 LINE",
"551 565 LINE",
"551 330 LINE SMOOTH",
"551 258 OFFCURVE",
"511 212 OFFCURVE",
"440 212 CURVE SMOOTH",
"369 212 OFFCURVE",
"328 258 OFFCURVE",
"328 330 CURVE SMOOTH",
"328 565 LINE",
"397 565 LINE",
"397 772 LINE",
"15 772 LINE",
"15 565 LINE",
"70 565 LINE",
"70 332 LINE SMOOTH",
"70 124 OFFCURVE",
"205 -11 OFFCURVE",
"421 -11 CURVE SMOOTH",
"640 -11 OFFCURVE",
"775 124 OFFCURVE",
"775 332 CURVE SMOOTH",
"775 565 LINE",
"830 565 LINE",
"830 772 LINE",
"482 772 LINE"
);
}
);
width = 845;
},
{
anchors = (
{
name = bottom;
position = "{413, 0}";
},
{
name = horn;
position = "{823, 752}";
},
{
name = ogonek;
position = "{560, 19}";
},
{
name = top;
position = "{413, 732}";
}
);
layerId = "2C5E45D0-97E8-45AA-A5B2-946753DF54E1";
leftMetricsKey = "=|N-4";
rightMetricsKey = "=|";
paths = (
{
closed = 1;
nodes = (
"507 659 LINE",
"617 659 LINE",
"617 282 LINE SMOOTH",
"617 163 OFFCURVE",
"542 87 OFFCURVE",
"414 87 CURVE SMOOTH",
"286 87 OFFCURVE",
"215 163 OFFCURVE",
"215 282 CURVE SMOOTH",
"215 659 LINE",
"325 659 LINE",
"325 752 LINE",
"7 752 LINE",
"7 659 LINE",
"113 659 LINE",
"113 282 LINE SMOOTH",
"113 105 OFFCURVE",
"226 -11 OFFCURVE",
"413 -11 CURVE SMOOTH",
"600 -11 OFFCURVE",
"713 105 OFFCURVE",
"713 282 CURVE SMOOTH",
"713 659 LINE",
"819 659 LINE",
"819 752 LINE",
"507 752 LINE"
);
}
);
width = 826;
}
);
leftKerningGroup = U;
rightKerningGroup = U;
rightMetricsKey = "=|";
unicode = 0055;
},
{
color = 8;
glyphname = Uhorn;
lastChange = "2018-04-25 04:24:27 +0000";
layers = (
{
anchors = (
{
name = bottom;
position = "{431, 0}";
},
{
name = ogonek;
position = "{560, 14}";
},
{
name = top;
position = "{424, 732}";
}
);
layerId = "67AEAADB-8447-4819-9D92-8BB76BD22042";
paths = (
{
closed = 1;
nodes = (
"553 747 LINE",
"702 747 LINE",
"702 299 LINE SMOOTH",
"702 115 OFFCURVE",
"633 -2 OFFCURVE",
"431 -2 CURVE SMOOTH",
"229 -2 OFFCURVE",
"161 115 OFFCURVE",
"161 299 CURVE SMOOTH",
"161 747 LINE",
"309 747 LINE",
"309 752 LINE",
"7 752 LINE",
"7 747 LINE",
"156 747 LINE",
"156 299 LINE SMOOTH",
"156 113 OFFCURVE",
"226 -7 OFFCURVE",
"431 -7 CURVE SMOOTH",
"636 -7 OFFCURVE",
"707 113 OFFCURVE",
"707 299 CURVE SMOOTH",
"707 747 LINE",
"770 747 LINE",
"770 752 LINE",
"553 752 LINE"
);
},
{
closed = 1;
nodes = (
"850 874 LINE",
"850 835 LINE SMOOTH",
"850 779 OFFCURVE",
"824 752 OFFCURVE",
"770 752 CURVE",
"760 747 LINE",
"770 747 LINE SMOOTH",
"827 747 OFFCURVE",
"855 776 OFFCURVE",
"855 835 CURVE SMOOTH",
"855 874 LINE"
);
}
);
width = 862;
},
{
anchors = (
{
name = bottom;
position = "{431, 0}";
},
{
name = ogonek;
position = "{600, 23}";
},
{
name = top;
position = "{431, 732}";
}
);
layerId = "BE4E587A-F76C-447B-AA28-A45E40876AAF";
paths = (
{
closed = 1;
nodes = (
"482 565 LINE",
"551 565 LINE",
"551 330 LINE SMOOTH",
"551 257 OFFCURVE",
"511 210 OFFCURVE",
"440 210 CURVE SMOOTH",
"369 210 OFFCURVE",
"328 257 OFFCURVE",
"328 330 CURVE SMOOTH",
"328 565 LINE",
"397 565 LINE",
"397 772 LINE",
"15 772 LINE",
"15 565 LINE",
"70 565 LINE",
"70 332 LINE SMOOTH",
"70 124 OFFCURVE",
"205 -11 OFFCURVE",
"421 -11 CURVE SMOOTH",
"640 -11 OFFCURVE",
"765 124 OFFCURVE",
"765 332 CURVE SMOOTH",
"765 625 LINE",
"780 625 LINE",
"780 772 LINE",
"482 772 LINE"
);
},
{
closed = 1;
nodes = (
"711 888 LINE",
"711 818 LINE SMOOTH",
"711 782 OFFCURVE",
"696 772 OFFCURVE",
"668 772 CURVE",
"604 561 LINE",
"668 561 LINE SMOOTH",
"830 561 OFFCURVE",
"919 663 OFFCURVE",
"919 818 CURVE SMOOTH",
"919 888 LINE"
);
}
);
width = 934;
},
{
anchors = (
{
name = bottom;
position = "{431, 0}";
},
{
name = ogonek;
position = "{567, 14}";
},
{
name = top;
position = "{431, 732}";
}
);
associatedMasterId = "2C5E45D0-97E8-45AA-A5B2-946753DF54E1";
layerId = "5DA52768-140A-494D-9C52-F280FDEA028C";
name = "Mar 9 18, 10:25";
paths = (
{
closed = 1;
nodes = (
"519 659 LINE",
"629 659 LINE",
"629 282 LINE SMOOTH",
"629 164 OFFCURVE",
"557 89 OFFCURVE",
"431 89 CURVE SMOOTH",
"305 89 OFFCURVE",
"233 164 OFFCURVE",
"233 282 CURVE SMOOTH",
"233 659 LINE",
"343 659 LINE",
"343 752 LINE",
"21 752 LINE",
"21 659 LINE",
"131 659 LINE",
"131 282 LINE SMOOTH",
"131 105 OFFCURVE",
"244 -11 OFFCURVE",
"431 -11 CURVE SMOOTH",
"618 -11 OFFCURVE",
"731 105 OFFCURVE",
"731 282 CURVE SMOOTH",
"731 648 LINE",
"731 692 OFFCURVE",
"711 723 OFFCURVE",
"687 752 CURVE",
"519 752 LINE"
);
},
{
closed = 1;
nodes = (
"774 837 LINE",
"774 793 LINE SMOOTH",
"774 765 OFFCURVE",
"762 752 OFFCURVE",
"735 752 CURVE SMOOTH",
"633 752 LINE",
"630 699 LINE",
"705 739 LINE",
"733 700 OFFCURVE",
"755 685 OFFCURVE",
"787 685 CURVE SMOOTH",
"837 685 OFFCURVE",
"866 723 OFFCURVE",
"866 794 CURVE SMOOTH",
"866 837 LINE"
);
}
);
width = 887;
},
{
anchors = (
{
name = bottom;
position = "{413, 0}";
},
{
name = ogonek;
position = "{549, 14}";
},
{
name = top;
position = "{413, 732}";
}
);
layerId = "2C5E45D0-97E8-45AA-A5B2-946753DF54E1";
rightMetricsKey = "=U-6";
paths = (
{
closed = 1;
nodes = (
"507 659 LINE",
"617 659 LINE",
"617 282 LINE SMOOTH",
"617 163 OFFCURVE",
"542 87 OFFCURVE",
"414 87 CURVE SMOOTH",
"286 87 OFFCURVE",
"215 163 OFFCURVE",
"215 282 CURVE SMOOTH",
"215 659 LINE",
"325 659 LINE",
"325 752 LINE",
"7 752 LINE",
"7 659 LINE",
"113 659 LINE",
"113 282 LINE SMOOTH",
"113 105 OFFCURVE",
"226 -11 OFFCURVE",
"413 -11 CURVE SMOOTH",
"600 -11 OFFCURVE",
"713 105 OFFCURVE",
"713 282 CURVE SMOOTH",
"713 669 LINE",
"730 669 LINE",
"730 752 LINE",
"507 752 LINE"
);
},
{
closed = 1;
nodes = (
"741 880 LINE",
"741 793 LINE SMOOTH",
"741 761 OFFCURVE",
"726 752 OFFCURVE",
"700 752 CURVE",
"636 659 LINE",
"700 659 LINE SMOOTH",
"794 659 OFFCURVE",
"843 712 OFFCURVE",
"843 792 CURVE SMOOTH",
"843 880 LINE"
);
}
);
width = 844;
}
);
leftMetricsKey = U;
rightMetricsKey = U;
unicode = 01AF;
},
{
color = 9;
glyphname = V;
lastChange = "2018-04-25 04:25:05 +0000";
layers = (
{
anchors = (
{
name = bottom;
position = "{446, 0}";
},
{
name = top;
position = "{446, 732}";
}
);
layerId = "67AEAADB-8447-4819-9D92-8BB76BD22042";
paths = (
{
closed = 1;
nodes = (
"862 747 LINE",
"862 752 LINE",
"541 752 LINE",
"541 747 LINE",
"767 747 LINE",
"444 0 LINE",
"451 6 LINE",
"442 6 LINE",
"448 0 LINE",
"125 747 LINE",
"351 747 LINE",
"351 752 LINE",
"30 752 LINE",
"30 747 LINE",
"119 747 LINE",
"442 0 LINE",
"450 0 LINE",
"773 747 LINE"
);
}
);
width = 892;
},
{
anchors = (
{
name = bottom;
position = "{441, 0}";
},
{
name = top;
position = "{441, 772}";
}
);
layerId = "BE4E587A-F76C-447B-AA28-A45E40876AAF";
paths = (
{
closed = 1;
nodes = (
"849 565 LINE",
"849 772 LINE",
"486 772 LINE",
"486 565 LINE",
"562 565 LINE",
"413 82 LINE",
"503 211 LINE",
"405 211 LINE",
"495 82 LINE",
"346 565 LINE",
"422 565 LINE",
"422 772 LINE",
"13 772 LINE",
"13 565 LINE",
"60 565 LINE",
"265 0 LINE",
"597 0 LINE",
"802 565 LINE"
);
}
);
width = 862;
},
{
anchors = (
{
name = bottom;
position = "{395, 0}";
},
{
name = top;
position = "{395, 732}";
}
);
layerId = "2C5E45D0-97E8-45AA-A5B2-946753DF54E1";
paths = (
{
closed = 1;
nodes = (
"782 659 LINE",
"782 752 LINE",
"455 752 LINE",
"455 659 LINE",
"614 659 LINE",
"387 82 LINE",
"443 118 LINE",
"345 118 LINE",
"412 82 LINE",
"185 659 LINE",
"344 659 LINE",
"344 752 LINE",
"7 752 LINE",
"7 659 LINE",
"74 659 LINE",
"335 0 LINE",
"454 0 LINE",
"715 659 LINE"
);
}
);
width = 789;
},
{
associatedMasterId = "2C5E45D0-97E8-45AA-A5B2-946753DF54E1";
layerId = "AFE836BF-BED8-4873-A40F-41FB53FF2B31";
name = "Feb 23 18, 16:00";
paths = (
{
closed = 1;
nodes = (
"855 659 LINE",
"855 752 LINE",
"496 752 LINE",
"496 659 LINE",
"659 659 LINE",
"428 82 LINE",
"484 118 LINE",
"386 118 LINE",
"453 82 LINE",
"222 659 LINE",
"385 659 LINE",
"385 752 LINE",
"14 752 LINE",
"14 659 LINE",
"111 659 LINE",
"376 0 LINE",
"493 0 LINE",
"758 659 LINE"
);
}
);
width = 869;
}
);
leftKerningGroup = V;
leftMetricsKey = A;
rightKerningGroup = V;
rightMetricsKey = A;
unicode = 0056;
},
{
color = 9;
glyphname = W;
lastChange = "2018-04-25 04:25:35 +0000";
layers = (
{
anchors = (
{
name = bottom;
position = "{665, 0}";
},
{
name = top;
position = "{665, 732}";
}
);
layerId = "67AEAADB-8447-4819-9D92-8BB76BD22042";
paths = (
{
closed = 1;
nodes = (
"986 747 LINE",
"1190 747 LINE",
"934 0 LINE",
"940 8 LINE",
"932 8 LINE",
"938 0 LINE",
"669 747 LINE",
"837 747 LINE",
"837 752 LINE",
"493 752 LINE",
"493 747 LINE",
"661 747 LINE",
"390 0 LINE",
"397 8 LINE",
"388 8 LINE",
"394 0 LINE",
"139 747 LINE",
"343 747 LINE",
"343 752 LINE",
"30 752 LINE",
"30 747 LINE",
"133 747 LINE",
"388 0 LINE",
"396 0 LINE",
"667 747 LINE",
"661 739 LINE",
"669 739 LINE",
"663 747 LINE",
"932 0 LINE",
"940 0 LINE",
"1196 747 LINE",
"1299 747 LINE",
"1299 752 LINE",
"986 752 LINE"
);
}
);
width = 1329;
},
{
anchors = (
{
name = bottom;
position = "{646, 0}";
},
{
name = top;
position = "{646, 772}";
}
);
layerId = "BE4E587A-F76C-447B-AA28-A45E40876AAF";
paths = (
{
closed = 1;
nodes = (
"935 565 LINE",
"1003 565 LINE",
"869 0 LINE",
"1018 257 LINE",
"850 257 LINE",
"1009 0 LINE",
"822 565 LINE",
"891 565 LINE",
"891 772 LINE",
"460 772 LINE",
"460 565 LINE",
"527 565 LINE",
"342 0 LINE",
"491 257 LINE",
"333 257 LINE",
"482 0 LINE",
"348 565 LINE",
"416 565 LINE",
"416 772 LINE",
"13 772 LINE",
"13 565 LINE",
"70 565 LINE",
"223 0 LINE",
"550 0 LINE",
"723 565 LINE",
"612 310 LINE",
"706 310 LINE",
"576 565 LINE",
"736 0 LINE",
"1061 0 LINE",
"1214 565 LINE",
"1271 565 LINE",
"1271 772 LINE",
"935 772 LINE"
);
}
);
width = 1284;
},
{
anchors = (
{
name = bottom;
position = "{596, 0}";
},
{
name = top;
position = "{596, 732}";
}
);
layerId = "2C5E45D0-97E8-45AA-A5B2-946753DF54E1";
paths = (
{
closed = 1;
nodes = (
"884 659 LINE",
"1023 659 LINE",
"803 0 LINE",
"888 122 LINE",
"790 122 LINE",
"882 0 LINE",
"661 659 LINE",
"769 659 LINE",
"769 752 LINE",
"429 752 LINE",
"429 659 LINE",
"543 659 LINE",
"319 0 LINE",
"404 122 LINE",
"306 122 LINE",
"397 0 LINE",
"181 659 LINE",
"311 659 LINE",
"311 752 LINE",
"7 752 LINE",
"7 659 LINE",
"69 659 LINE",
"293 0 LINE",
"418 0 LINE",
"638 659 LINE",
"550 531 LINE",
"644 531 LINE",
"557 659 LINE",
"774 0 LINE",
"901 0 LINE",
"1122 659 LINE",
"1184 659 LINE",
"1184 752 LINE",
"884 752 LINE"
);
}
);
width = 1191;
}
);
leftKerningGroup = V;
leftMetricsKey = V;
rightKerningGroup = V;
rightMetricsKey = V;
unicode = 0057;
},
{
color = 9;
glyphname = W.ss01;
lastChange = "2018-04-25 04:25:58 +0000";
layers = (
{
anchors = (
{
name = bottom;
position = "{625, 0}";
},
{
name = top;
position = "{625, 732}";
}
);
layerId = "67AEAADB-8447-4819-9D92-8BB76BD22042";
paths = (
{
closed = 1;
nodes = (
"916 747 LINE",
"1110 747 LINE",
"883 0 LINE",
"889 8 LINE",
"881 8 LINE",
"887 0 LINE",
"629 752 LINE",
"621 752 LINE",
"361 0 LINE",
"368 8 LINE",
"359 8 LINE",
"365 0 LINE",
"139 747 LINE",
"333 747 LINE",
"333 752 LINE",
"30 752 LINE",
"30 747 LINE",
"133 747 LINE",
"359 0 LINE",
"367 0 LINE",
"627 752 LINE",
"621 744 LINE",
"629 744 LINE",
"623 752 LINE",
"881 0 LINE",
"889 0 LINE",
"1116 747 LINE",
"1219 747 LINE",
"1219 752 LINE",
"916 752 LINE"
);
}
);
width = 1249;
},
{
anchors = (
{
name = bottom;
position = "{627, 0}";
},
{
name = top;
position = "{627, 772}";
}
);
layerId = "BE4E587A-F76C-447B-AA28-A45E40876AAF";
paths = (
{
closed = 1;
nodes = (
"897 565 LINE",
"961 565 LINE",
"841 0 LINE",
"990 257 LINE",
"822 257 LINE",
"972 0 LINE",
"795 772 LINE",
"512 772 LINE",
"337 0 LINE",
"477 257 LINE",
"319 257 LINE",
"468 0 LINE",
"348 565 LINE",
"412 565 LINE",
"412 772 LINE",
"13 772 LINE",
"13 565 LINE",
"70 565 LINE",
"209 0 LINE",
"545 0 LINE",
"708 772 LINE",
"588 517 LINE",
"682 517 LINE",
"543 772 LINE",
"693 0 LINE",
"1033 0 LINE",
"1172 565 LINE",
"1229 565 LINE",
"1229 772 LINE",
"897 772 LINE"
);
}
);
width = 1242;
},
{
anchors = (
{
name = bottom;
position = "{581, 0}";
},
{
name = top;
position = "{581, 732}";
}
);
layerId = "2C5E45D0-97E8-45AA-A5B2-946753DF54E1";
paths = (
{
closed = 1;
nodes = (
"854 659 LINE",
"993 659 LINE",
"798 0 LINE",
"883 122 LINE",
"785 122 LINE",
"877 0 LINE",
"647 752 LINE",
"527 752 LINE",
"294 0 LINE",
"379 122 LINE",
"281 122 LINE",
"372 0 LINE",
"181 659 LINE",
"311 659 LINE",
"311 752 LINE",
"7 752 LINE",
"7 659 LINE",
"69 659 LINE",
"268 0 LINE",
"393 0 LINE",
"622 752 LINE",
"534 624 LINE",
"628 624 LINE",
"541 752 LINE",
"767 0 LINE",
"896 0 LINE",
"1092 659 LINE",
"1154 659 LINE",
"1154 752 LINE",
"854 752 LINE"
);
}
);
width = 1161;
}
);
leftKerningGroup = V;
leftMetricsKey = V;
rightKerningGroup = V;
rightMetricsKey = V;
},
{
color = 9;
glyphname = X;
lastChange = "2018-04-25 04:26:13 +0000";
layers = (
{
anchors = (
{
name = bottom;
position = "{430, 0}";
},
{
name = top;
position = "{430, 732}";
}
);
layerId = "67AEAADB-8447-4819-9D92-8BB76BD22042";
paths = (
{
closed = 1;
nodes = (
"840 747 LINE",
"840 752 LINE",
"534 752 LINE",
"534 747 LINE",
"718 747 LINE",
"428 378 LINE",
"433 381 LINE",
"427 381 LINE",
"432 378 LINE",
"146 747 LINE",
"326 747 LINE",
"326 752 LINE",
"20 752 LINE",
"20 747 LINE",
"140 747 LINE",
"428 375 LINE",
"427 379 LINE",
"427 372 LINE",
"428 377 LINE",
"136 5 LINE",
"20 5 LINE",
"20 0 LINE",
"326 0 LINE",
"326 5 LINE",
"142 5 LINE",
"432 374 LINE",
"427 371 LINE",
"433 371 LINE",
"428 374 LINE",
"714 5 LINE",
"534 5 LINE",
"534 0 LINE",
"840 0 LINE",
"840 5 LINE",
"720 5 LINE",
"432 377 LINE",
"433 372 LINE",
"433 379 LINE",
"432 375 LINE",
"724 747 LINE"
);
}
);
width = 860;
},
{
anchors = (
{
name = bottom;
position = "{436, 0}";
},
{
name = top;
position = "{436, 772}";
}
);
layerId = "BE4E587A-F76C-447B-AA28-A45E40876AAF";
paths = (
{
closed = 1;
nodes = (
"851 565 LINE",
"851 772 LINE",
"470 772 LINE",
"470 565 LINE",
"532 565 LINE",
"413 425 LINE",
"506 484 LINE",
"410 484 LINE",
"503 425 LINE",
"387 565 LINE",
"442 565 LINE",
"442 772 LINE",
"21 772 LINE",
"21 565 LINE",
"51 565 LINE",
"291 301 LINE",
"222 440 LINE",
"222 344 LINE",
"330 478 LINE",
"65 207 LINE",
"21 207 LINE",
"21 0 LINE",
"402 0 LINE",
"402 207 LINE",
"340 207 LINE",
"459 355 LINE",
"366 293 LINE",
"462 293 LINE",
"369 355 LINE",
"485 207 LINE",
"430 207 LINE",
"430 0 LINE",
"851 0 LINE",
"851 207 LINE",
"821 207 LINE",
"581 479 LINE",
"650 340 LINE",
"650 436 LINE",
"542 302 LINE",
"807 565 LINE"
);
}
);
width = 872;
},
{
anchors = (
{
name = bottom;
position = "{401, 0}";
},
{
name = top;
position = "{401, 732}";
}
);
layerId = "2C5E45D0-97E8-45AA-A5B2-946753DF54E1";
leftMetricsKey = "=V+8";
rightMetricsKey = "=V+8";
paths = (
{
closed = 1;
nodes = (
"787 659 LINE",
"787 752 LINE",
"455 752 LINE",
"455 659 LINE",
"584 659 LINE",
"384 411 LINE",
"451 445 LINE",
"355 445 LINE",
"437 411 LINE",
"236 659 LINE",
"347 659 LINE",
"347 752 LINE",
"15 752 LINE",
"15 659 LINE",
"99 659 LINE",
"365 347 LINE",
"340 426 LINE",
"340 330 LINE",
"371 409 LINE",
"95 93 LINE",
"15 93 LINE",
"15 0 LINE",
"347 0 LINE",
"347 93 LINE",
"218 93 LINE",
"418 341 LINE",
"351 307 LINE",
"447 307 LINE",
"365 341 LINE",
"566 93 LINE",
"455 93 LINE",
"455 0 LINE",
"787 0 LINE",
"787 93 LINE",
"703 93 LINE",
"437 405 LINE",
"462 326 LINE",
"462 422 LINE",
"431 343 LINE",
"707 659 LINE"
);
}
);
width = 802;
}
);
leftMetricsKey = H;
rightMetricsKey = H;
unicode = 0058;
},
{
color = 9;
glyphname = Y;
lastChange = "2018-04-25 04:26:38 +0000";
layers = (
{
anchors = (
{
name = bottom;
position = "{459, 0}";
},
{
name = top;
position = "{459, 732}";
}
);
layerId = "67AEAADB-8447-4819-9D92-8BB76BD22042";
paths = (
{
closed = 1;
nodes = (
"888 747 LINE",
"888 752 LINE",
"583 752 LINE",
"583 747 LINE",
"776 747 LINE",
"457 355 LINE",
"464 359 LINE",
"455 359 LINE",
"462 355 LINE",
"142 747 LINE",
"335 747 LINE",
"335 752 LINE",
"30 752 LINE",
"30 747 LINE",
"136 747 LINE",
"458 352 LINE",
"461 352 LINE",
"782 747 LINE"
);
},
{
closed = 1;
nodes = (
"457 357 LINE",
"457 5 LINE",
"308 5 LINE",
"308 0 LINE",
"610 0 LINE",
"610 5 LINE",
"462 5 LINE",
"462 357 LINE"
);
}
);
width = 918;
},
{
anchors = (
{
name = bottom;
position = "{418, 0}";
},
{
name = top;
position = "{418, 772}";
}
);
layerId = "BE4E587A-F76C-447B-AA28-A45E40876AAF";
paths = (
{
closed = 1;
nodes = (
"823 565 LINE",
"823 772 LINE",
"472 772 LINE",
"472 565 LINE",
"538 565 LINE",
"390 376 LINE",
"497 411 LINE",
"399 411 LINE",
"506 376 LINE",
"358 565 LINE",
"424 565 LINE",
"424 772 LINE",
"13 772 LINE",
"13 565 LINE",
"57 565 LINE",
"294 284 LINE",
"542 284 LINE",
"779 565 LINE"
);
},
{
closed = 1;
nodes = (
"289 389 LINE",
"289 207 LINE",
"234 207 LINE",
"234 0 LINE",
"602 0 LINE",
"602 207 LINE",
"547 207 LINE",
"547 389 LINE"
);
}
);
width = 836;
},
{
anchors = (
{
name = bottom;
position = "{362, 0}";
},
{
name = top;
position = "{362, 732}";
}
);
layerId = "2C5E45D0-97E8-45AA-A5B2-946753DF54E1";
paths = (
{
closed = 1;
nodes = (
"717 659 LINE",
"717 752 LINE",
"416 752 LINE",
"416 659 LINE",
"547 659 LINE",
"344 380 LINE",
"411 417 LINE",
"313 417 LINE",
"394 380 LINE",
"191 659 LINE",
"308 659 LINE",
"308 752 LINE",
"7 752 LINE",
"7 659 LINE",
"62 659 LINE",
"313 322 LINE",
"411 322 LINE",
"662 659 LINE"
);
},
{
closed = 1;
nodes = (
"311 397 LINE",
"311 93 LINE",
"201 93 LINE",
"201 0 LINE",
"523 0 LINE",
"523 93 LINE",
"413 93 LINE",
"413 397 LINE"
);
}
);
width = 724;
}
);
leftKerningGroup = V;
leftMetricsKey = A;
rightKerningGroup = V;
rightMetricsKey = A;
unicode = 0059;
},
{
color = 9;
glyphname = Z;
lastChange = "2018-04-25 04:26:53 +0000";
layers = (
{
anchors = (
{
name = bottom;
position = "{327, 0}";
},
{
name = top;
position = "{327, 732}";
}
);
layerId = "67AEAADB-8447-4819-9D92-8BB76BD22042";
leftMetricsKey = "=H+16";
paths = (
{
closed = 1;
nodes = (
"43 3 LINE",
"43 6 LINE",
"618 747 LINE",
"611 750 LINE",
"611 746 LINE",
"36 5 LINE"
);
},
{
closed = 1;
nodes = (
"55 752 LINE",
"55 565 LINE",
"60 565 LINE",
"60 747 LINE",
"618 747 LINE",
"618 752 LINE"
);
},
{
closed = 1;
nodes = (
"602 5 LINE",
"36 5 LINE",
"36 0 LINE",
"607 0 LINE",
"607 187 LINE",
"602 187 LINE"
);
}
);
width = 654;
},
{
anchors = (
{
name = bottom;
position = "{387, 0}";
},
{
name = top;
position = "{387, 772}";
}
);
layerId = "BE4E587A-F76C-447B-AA28-A45E40876AAF";
paths = (
{
closed = 1;
nodes = (
"372 135 LINE",
"372 167 LINE",
"757 609 LINE",
"403 634 LINE",
"403 605 LINE",
"16 163 LINE"
);
},
{
closed = 1;
nodes = (
"27 772 LINE",
"27 485 LINE",
"282 485 LINE",
"282 609 LINE",
"757 609 LINE",
"757 772 LINE"
);
},
{
closed = 1;
nodes = (
"503 163 LINE",
"16 163 LINE",
"16 0 LINE",
"758 0 LINE",
"758 295 LINE",
"503 295 LINE"
);
}
);
width = 774;
},
{
anchors = (
{
name = bottom;
position = "{321, 0}";
},
{
name = top;
position = "{321, 732}";
}
);
layerId = "2C5E45D0-97E8-45AA-A5B2-946753DF54E1";
leftMetricsKey = "=H+4";
rightMetricsKey = "=H-6";
paths = (
{
closed = 1;
nodes = (
"162 65 LINE",
"162 97 LINE",
"612 659 LINE",
"477 684 LINE",
"477 655 LINE",
"27 93 LINE"
);
},
{
closed = 1;
nodes = (
"39 752 LINE",
"39 525 LINE",
"141 525 LINE",
"141 659 LINE",
"612 659 LINE",
"612 752 LINE"
);
},
{
closed = 1;
nodes = (
"523 93 LINE",
"27 93 LINE",
"27 0 LINE",
"625 0 LINE",
"625 227 LINE",
"523 227 LINE"
);
}
);
width = 642;
},
{
anchors = (
{
name = top;
position = "{383, 772}";
}
);
associatedMasterId = "BE4E587A-F76C-447B-AA28-A45E40876AAF";
layerId = "244911D9-34DE-4C53-A589-48F07330FCC3";
name = "Mar 20 18, 15:16";
paths = (
{
closed = 1;
nodes = (
"371 154 LINE",
"371 186 LINE",
"745 590 LINE",
"384 615 LINE",
"384 586 LINE",
"10 182 LINE"
);
},
{
closed = 1;
nodes = (
"21 772 LINE",
"21 500 LINE",
"268 500 LINE",
"268 590 LINE",
"745 590 LINE",
"745 772 LINE"
);
},
{
closed = 1;
nodes = (
"501 182 LINE",
"10 182 LINE",
"10 0 LINE",
"748 0 LINE",
"748 272 LINE",
"501 272 LINE"
);
}
);
width = 758;
}
);
leftMetricsKey = "=H-5";
rightMetricsKey = "=|";
unicode = 005A;
},
{
color = 5;
glyphname = a;
lastChange = "2018-04-13 18:26:47 +0000";
layers = (
{
anchors = (
{
name = bottom;
position = "{292, 0}";
},
{
name = ogonek;
position = "{576, 0}";
},
{
name = top;
position = "{292, 524}";
}
);
layerId = "67AEAADB-8447-4819-9D92-8BB76BD22042";
leftMetricsKey = "=o+8";
paths = (
{
closed = 1;
nodes = (
"576 0 LINE",
"576 5 LINE",
"489 5 LINE",
"489 365 LINE SMOOTH",
"489 490 OFFCURVE",
"410 531 OFFCURVE",
"292 531 CURVE SMOOTH",
"176 531 OFFCURVE",
"119 486 OFFCURVE",
"89 393 CURVE",
"94 391 LINE",
"123 483 OFFCURVE",
"179 526 OFFCURVE",
"292 526 CURVE SMOOTH",
"407 526 OFFCURVE",
"484 487 OFFCURVE",
"484 365 CURVE SMOOTH",
"484 301 LINE",
"484 279 LINE",
"484 247 LINE",
"484 240 LINE",
"484 4 LINE SMOOTH",
"484 1 OFFCURVE",
"485 0 OFFCURVE",
"488 0 CURVE SMOOTH"
);
},
{
closed = 1;
nodes = (
"372 -7 OFFCURVE",
"466 75 OFFCURVE",
"483 235 CURVE",
"487 235 LINE",
"484 304 LINE",
"484 75 OFFCURVE",
"365 -2 OFFCURVE",
"223 -2 CURVE SMOOTH",
"122 -2 OFFCURVE",
"69 38 OFFCURVE",
"69 118 CURVE SMOOTH",
"69 207 OFFCURVE",
"121 242 OFFCURVE",
"220 264 CURVE SMOOTH",
"486 324 LINE",
"486 329 LINE",
"220 269 LINE SMOOTH",
"118 246 OFFCURVE",
"64 210 OFFCURVE",
"64 118 CURVE SMOOTH",
"64 35 OFFCURVE",
"119 -7 OFFCURVE",
"223 -7 CURVE SMOOTH"
);
}
);
width = 601;
},
{
anchors = (
{
name = bottom;
position = "{360, 0}";
},
{
name = ogonek;
position = "{697, 0}";
},
{
name = top;
position = "{360, 580}";
}
);
layerId = "BE4E587A-F76C-447B-AA28-A45E40876AAF";
leftMetricsKey = "=o-1";
rightMetricsKey = "=n";
paths = (
{
closed = 1;
nodes = (
"697 0 LINE",
"697 204 LINE",
"647 204 LINE",
"647 384 LINE SMOOTH",
"647 543 OFFCURVE",
"532 596 OFFCURVE",
"360 596 CURVE SMOOTH",
"140 596 OFFCURVE",
"53 505 OFFCURVE",
"36 376 CURVE",
"263 349 LINE",
"272 384 OFFCURVE",
"301 394 OFFCURVE",
"331 394 CURVE SMOOTH",
"363 394 OFFCURVE",
"393 382 OFFCURVE",
"393 341 CURVE SMOOTH",
"393 289 LINE",
"399 263 LINE",
"407 207 LINE",
"393 187 LINE",
"393 92 LINE SMOOTH",
"393 33 OFFCURVE",
"426 0 OFFCURVE",
"484 0 CURVE SMOOTH"
);
},
{
closed = 1;
nodes = (
"300 -15 OFFCURVE",
"373 35 OFFCURVE",
"388 146 CURVE",
"422 146 LINE",
"399 263 LINE",
"399 188 OFFCURVE",
"359 164 OFFCURVE",
"324 164 CURVE SMOOTH",
"297 164 OFFCURVE",
"279 177 OFFCURVE",
"279 201 CURVE SMOOTH",
"279 224 OFFCURVE",
"295 241 OFFCURVE",
"335 246 CURVE SMOOTH",
"420 259 LINE",
"420 343 LINE",
"238 316 LINE SMOOTH",
"92 295 OFFCURVE",
"13 249 OFFCURVE",
"13 141 CURVE SMOOTH",
"13 47 OFFCURVE",
"72 -15 OFFCURVE",
"193 -15 CURVE SMOOTH"
);
}
);
width = 704;
},
{
associatedMasterId = "67AEAADB-8447-4819-9D92-8BB76BD22042";
layerId = "0D7E86CE-FED3-435B-B54D-A186B31830C4";
name = Serif;
paths = (
{
closed = 1;
nodes = (
"511 -7 LINE",
"511 113 LINE",
"459 113 LINE",
"459 305 LINE SMOOTH",
"459 424 OFFCURVE",
"396 464 OFFCURVE",
"311 464 CURVE SMOOTH",
"226 464 OFFCURVE",
"187 424 OFFCURVE",
"178 376 CURVE",
"159 376 LINE",
"174 283 LINE",
"183 335 OFFCURVE",
"211 350 OFFCURVE",
"245 350 CURVE SMOOTH",
"282 350 OFFCURVE",
"319 337 OFFCURVE",
"319 296 CURVE SMOOTH",
"319 239 LINE",
"324 214 LINE",
"331 172 LINE",
"319 155 LINE",
"319 48 LINE SMOOTH",
"319 13 OFFCURVE",
"339 -7 OFFCURVE",
"374 -7 CURVE SMOOTH"
);
},
{
closed = 1;
nodes = (
"244 -13 OFFCURVE",
"301 28 OFFCURVE",
"315 118 CURVE",
"343 118 LINE",
"324 214 LINE",
"324 132 OFFCURVE",
"279 104 OFFCURVE",
"240 104 CURVE SMOOTH",
"212 104 OFFCURVE",
"190 119 OFFCURVE",
"190 145 CURVE SMOOTH",
"190 171 OFFCURVE",
"212 188 OFFCURVE",
"235 193 CURVE SMOOTH",
"341 218 LINE",
"341 283 LINE",
"168 248 LINE SMOOTH",
"93 233 OFFCURVE",
"35 197 OFFCURVE",
"35 108 CURVE SMOOTH",
"35 33 OFFCURVE",
"77 -13 OFFCURVE",
"163 -13 CURVE SMOOTH"
);
},
{
closed = 1;
nodes = (
"174 283 LINE",
"174 453 LINE",
"54 453 LINE",
"54 283 LINE"
);
}
);
width = 534;
},
{
anchors = (
{
name = bottom;
position = "{296, 0}";
},
{
name = ogonek;
position = "{588, 0}";
},
{
name = top;
position = "{296, 536}";
}
);
layerId = "2C5E45D0-97E8-45AA-A5B2-946753DF54E1";
leftMetricsKey = "=o+6";
rightMetricsKey = "=n+13";
paths = (
{
closed = 1;
nodes = (
"590 0 LINE",
"590 84 LINE",
"515 84 LINE",
"515 362 LINE SMOOTH",
"515 486 OFFCURVE",
"444 547 OFFCURVE",
"299 547 CURVE SMOOTH",
"163 547 OFFCURVE",
"87 493 OFFCURVE",
"69 383 CURVE",
"163 364 LINE",
"175 426 OFFCURVE",
"219 457 OFFCURVE",
"295 457 CURVE SMOOTH",
"375 457 OFFCURVE",
"417 422 OFFCURVE",
"417 356 CURVE SMOOTH",
"417 317 LINE",
"421 280 LINE",
"426 218 LINE",
"417 198 LINE",
"417 67 LINE SMOOTH",
"417 24 OFFCURVE",
"437 0 OFFCURVE",
"474 0 CURVE SMOOTH"
);
},
{
closed = 1;
nodes = (
"335 -7 OFFCURVE",
"398 50 OFFCURVE",
"413 162 CURVE",
"447 162 LINE",
"421 280 LINE",
"421 159 OFFCURVE",
"349 77 OFFCURVE",
"244 77 CURVE SMOOTH",
"187 77 OFFCURVE",
"157 102 OFFCURVE",
"157 150 CURVE SMOOTH",
"157 193 OFFCURVE",
"181 218 OFFCURVE",
"233 230 CURVE SMOOTH",
"446 278 LINE",
"446 347 LINE",
"217 300 LINE SMOOTH",
"101 276 OFFCURVE",
"55 232 OFFCURVE",
"55 144 CURVE SMOOTH",
"55 45 OFFCURVE",
"115 -7 OFFCURVE",
"228 -7 CURVE SMOOTH"
);
}
);
width = 620;
},
{
anchors = (
{
name = top;
position = "{295, 536}";
}
);
associatedMasterId = "2C5E45D0-97E8-45AA-A5B2-946753DF54E1";
layerId = "3B3BEB8A-E073-43AE-BA7D-711103F3C888";
leftMetricsKey = "=o+12";
rightMetricsKey = "=n+16";
name = Serif;
paths = (
{
closed = 1;
nodes = (
"587 0 LINE",
"587 84 LINE",
"514 84 LINE",
"514 365 LINE SMOOTH",
"514 502 OFFCURVE",
"428 547 OFFCURVE",
"322 547 CURVE SMOOTH",
"209 547 OFFCURVE",
"173 496 OFFCURVE",
"165 419 CURVE",
"115 419 LINE",
"161 348 LINE",
"176 432 OFFCURVE",
"228 457 OFFCURVE",
"295 457 CURVE SMOOTH",
"358 457 OFFCURVE",
"416 433 OFFCURVE",
"416 356 CURVE SMOOTH",
"416 317 LINE",
"420 280 LINE",
"425 218 LINE",
"416 198 LINE",
"416 67 LINE SMOOTH",
"416 22 OFFCURVE",
"438 0 OFFCURVE",
"473 0 CURVE SMOOTH"
);
},
{
closed = 1;
nodes = (
"331 -7 OFFCURVE",
"396 46 OFFCURVE",
"412 162 CURVE",
"446 162 LINE",
"420 280 LINE",
"420 128 OFFCURVE",
"321 77 OFFCURVE",
"243 77 CURVE SMOOTH",
"192 77 OFFCURVE",
"156 97 OFFCURVE",
"156 151 CURVE SMOOTH",
"156 197 OFFCURVE",
"185 219 OFFCURVE",
"232 230 CURVE SMOOTH",
"445 278 LINE",
"445 347 LINE",
"216 300 LINE SMOOTH",
"111 278 OFFCURVE",
"54 240 OFFCURVE",
"54 146 CURVE SMOOTH",
"54 45 OFFCURVE",
"114 -7 OFFCURVE",
"227 -7 CURVE SMOOTH"
);
},
{
closed = 1;
nodes = (
"161 348 LINE",
"161 536 LINE",
"63 536 LINE",
"63 348 LINE"
);
}
);
width = 618;
},
{
anchors = (
{
name = bottom;
position = "{296, 0}";
},
{
name = ogonek;
position = "{580, 0}";
},
{
name = top;
position = "{296, 524}";
}
);
associatedMasterId = "67AEAADB-8447-4819-9D92-8BB76BD22042";
layerId = "1D059439-29F9-4FCE-B57B-5DA818D869EC";
leftMetricsKey = "=o+8";
name = "Feb 26 18, 18:02";
paths = (
{
closed = 1;
nodes = (
"580 0 LINE",
"580 5 LINE",
"493 5 LINE",
"493 365 LINE SMOOTH",
"493 490 OFFCURVE",
"414 531 OFFCURVE",
"296 531 CURVE SMOOTH",
"180 531 OFFCURVE",
"123 487 OFFCURVE",
"93 393 CURVE",
"98 391 LINE",
"127 483 OFFCURVE",
"183 526 OFFCURVE",
"296 526 CURVE SMOOTH",
"411 526 OFFCURVE",
"488 487 OFFCURVE",
"488 365 CURVE SMOOTH",
"488 301 LINE",
"488 279 LINE",
"488 216 LINE",
"488 198 LINE",
"488 4 LINE SMOOTH",
"488 1 OFFCURVE",
"489 0 OFFCURVE",
"492 0 CURVE SMOOTH"
);
},
{
closed = 1;
nodes = (
"376 -7 OFFCURVE",
"470 75 OFFCURVE",
"487 235 CURVE",
"491 235 LINE",
"488 304 LINE",
"488 75 OFFCURVE",
"369 -2 OFFCURVE",
"227 -2 CURVE SMOOTH",
"126 -2 OFFCURVE",
"73 39 OFFCURVE",
"73 118 CURVE SMOOTH",
"73 204 OFFCURVE",
"125 242 OFFCURVE",
"224 264 CURVE SMOOTH",
"490 324 LINE",
"490 329 LINE",
"224 269 LINE SMOOTH",
"122 246 OFFCURVE",
"68 210 OFFCURVE",
"68 118 CURVE SMOOTH",
"68 35 OFFCURVE",
"123 -7 OFFCURVE",
"227 -7 CURVE SMOOTH"
);
}
);
width = 615;
},
{
anchors = (
{
name = bottom;
position = "{292, 0}";
},
{
name = ogonek;
position = "{576, 0}";
},
{
name = top;
position = "{292, 524}";
}
);
associatedMasterId = "67AEAADB-8447-4819-9D92-8BB76BD22042";
layerId = "15FF914C-581F-42CF-8E2C-C59F8A82ECE1";
leftMetricsKey = "=o+8";
name = "Light [6]";
paths = (
{
closed = 1;
nodes = (
"576 0 LINE",
"576 5 LINE",
"489 5 LINE",
"489 365 LINE SMOOTH",
"489 490 OFFCURVE",
"410 531 OFFCURVE",
"292 531 CURVE SMOOTH",
"176 531 OFFCURVE",
"119 486 OFFCURVE",
"89 393 CURVE",
"94 391 LINE",
"123 483 OFFCURVE",
"179 526 OFFCURVE",
"292 526 CURVE SMOOTH",
"407 526 OFFCURVE",
"484 487 OFFCURVE",
"484 365 CURVE SMOOTH",
"484 301 LINE",
"484 279 LINE",
"484 247 LINE",
"484 240 LINE",
"484 4 LINE SMOOTH",
"484 1 OFFCURVE",
"485 0 OFFCURVE",
"488 0 CURVE SMOOTH"
);
},
{
closed = 1;
nodes = (
"370 -7 OFFCURVE",
"461 80 OFFCURVE",
"483 198 CURVE",
"487 198 LINE",
"484 304 LINE",
"484 75 OFFCURVE",
"365 -2 OFFCURVE",
"223 -2 CURVE SMOOTH",
"122 -2 OFFCURVE",
"69 38 OFFCURVE",
"69 118 CURVE SMOOTH",
"69 207 OFFCURVE",
"121 242 OFFCURVE",
"220 264 CURVE SMOOTH",
"486 324 LINE",
"486 329 LINE",
"220 269 LINE SMOOTH",
"118 246 OFFCURVE",
"64 210 OFFCURVE",
"64 118 CURVE SMOOTH",
"64 35 OFFCURVE",
"119 -7 OFFCURVE",
"223 -7 CURVE SMOOTH"
);
}
);
width = 601;
}
);
leftKerningGroup = a;
leftMetricsKey = "=o+8";
rightKerningGroup = n;
rightMetricsKey = n;
unicode = 0061;
},
{
glyphname = a.ss02;
lastChange = "2018-05-02 02:16:39 +0000";
layers = (
{
anchors = (
{
name = bottom;
position = "{320, 0}";
},
{
name = ogonek;
position = "{667, 0}";
},
{
name = top;
position = "{320, 524}";
}
);
components = (
{
name = "bowl-thick.part";
transform = "{-1, 0, 0, -1, 617, 524}";
}
);
layerId = "67AEAADB-8447-4819-9D92-8BB76BD22042";
leftMetricsKey = "=d";
rightMetricsKey = "=n+2";
paths = (
{
closed = 1;
nodes = (
"664 0 LINE",
"664 5 LINE",
"577 5 LINE",
"577 524 LINE",
"572 524 LINE",
"572 322 LINE",
"572 304 LINE",
"573 292 LINE",
"573 243 LINE",
"572 219 LINE",
"572 4 LINE SMOOTH",
"572 1 OFFCURVE",
"573 0 OFFCURVE",
"576 0 CURVE SMOOTH"
);
}
);
width = 691;
},
{
anchors = (
{
name = bottom;
position = "{357, 0}";
},
{
name = ogonek;
position = "{742, 0}";
},
{
name = top;
position = "{357, 580}";
}
);
components = (
{
name = "bowl-thick.part";
transform = "{-1, 0, 0, -1, 657, 580}";
}
);
layerId = "BE4E587A-F76C-447B-AA28-A45E40876AAF";
rightMetricsKey = "=n+2";
paths = (
{
closed = 1;
nodes = (
"742 0 LINE",
"742 204 LINE",
"692 204 LINE",
"692 590 LINE",
"682 590 LINE",
"438 404 LINE",
"456 371 LINE",
"441 331 LINE",
"441 244 LINE",
"438 227 LINE",
"438 92 LINE SMOOTH",
"438 33 OFFCURVE",
"471 0 OFFCURVE",
"529 0 CURVE SMOOTH"
);
}
);
width = 751;
},
{
associatedMasterId = "67AEAADB-8447-4819-9D92-8BB76BD22042";
layerId = "0D7E86CE-FED3-435B-B54D-A186B31830C4";
name = Serif;
paths = (
{
closed = 1;
nodes = (
"511 -7 LINE",
"511 113 LINE",
"459 113 LINE",
"459 305 LINE SMOOTH",
"459 424 OFFCURVE",
"396 464 OFFCURVE",
"311 464 CURVE SMOOTH",
"226 464 OFFCURVE",
"187 424 OFFCURVE",
"178 376 CURVE",
"159 376 LINE",
"174 283 LINE",
"183 335 OFFCURVE",
"211 350 OFFCURVE",
"245 350 CURVE SMOOTH",
"282 350 OFFCURVE",
"319 337 OFFCURVE",
"319 296 CURVE SMOOTH",
"319 239 LINE",
"324 214 LINE",
"331 172 LINE",
"319 155 LINE",
"319 48 LINE SMOOTH",
"319 13 OFFCURVE",
"339 -7 OFFCURVE",
"374 -7 CURVE SMOOTH"
);
},
{
closed = 1;
nodes = (
"244 -13 OFFCURVE",
"301 28 OFFCURVE",
"315 118 CURVE",
"343 118 LINE",
"324 214 LINE",
"324 132 OFFCURVE",
"279 104 OFFCURVE",
"240 104 CURVE SMOOTH",
"212 104 OFFCURVE",
"190 119 OFFCURVE",
"190 145 CURVE SMOOTH",
"190 171 OFFCURVE",
"212 188 OFFCURVE",
"235 193 CURVE SMOOTH",
"341 218 LINE",
"341 283 LINE",
"168 248 LINE SMOOTH",
"93 233 OFFCURVE",
"35 197 OFFCURVE",
"35 108 CURVE SMOOTH",
"35 33 OFFCURVE",
"77 -13 OFFCURVE",
"163 -13 CURVE SMOOTH"
);
},
{
closed = 1;
nodes = (
"174 283 LINE",
"174 453 LINE",
"54 453 LINE",
"54 283 LINE"
);
}
);
width = 534;
},
{
anchors = (
{
name = top;
position = "{289, 536}";
}
);
associatedMasterId = "2C5E45D0-97E8-45AA-A5B2-946753DF54E1";
layerId = "96025320-AAD0-4ED1-B37C-9B770305D1B9";
leftMetricsKey = "=d";
rightMetricsKey = "=|n";
name = "Jan 2 18, 22:23";
paths = (
{
closed = 1;
nodes = (
"404 -10 OFFCURVE",
"465 52 OFFCURVE",
"485 144 CURVE",
"508 144 LINE",
"492 270 LINE",
"492 156 OFFCURVE",
"428 78 OFFCURVE",
"320 78 CURVE SMOOTH",
"217 78 OFFCURVE",
"148 156 OFFCURVE",
"148 270 CURVE SMOOTH",
"148 382 OFFCURVE",
"212 459 OFFCURVE",
"320 459 CURVE SMOOTH",
"430 459 OFFCURVE",
"492 381 OFFCURVE",
"492 270 CURVE",
"540 355 LINE",
"509 473 OFFCURVE",
"426 546 OFFCURVE",
"309 546 CURVE SMOOTH",
"149 546 OFFCURVE",
"48 432 OFFCURVE",
"48 270 CURVE SMOOTH",
"48 106 OFFCURVE",
"152 -10 OFFCURVE",
"298 -10 CURVE SMOOTH"
);
},
{
closed = 1;
nodes = (
"660 452 LINE",
"660 536 LINE",
"489 536 LINE",
"489 399 LINE",
"492 270 LINE",
"493 237 LINE",
"489 200 LINE",
"489 67 LINE SMOOTH",
"489 22 OFFCURVE",
"511 0 OFFCURVE",
"546 0 CURVE SMOOTH",
"660 0 LINE",
"660 84 LINE",
"587 84 LINE",
"587 452 LINE"
);
}
);
width = 692;
},
{
anchors = (
{
name = bottom;
position = "{317, 0}";
},
{
name = ogonek;
position = "{664, 0}";
},
{
name = top;
position = "{317, 536}";
}
);
components = (
{
name = "bowl-thick.part";
transform = "{-1, 0, 0, -1, 605, 536}";
}
);
layerId = "2C5E45D0-97E8-45AA-A5B2-946753DF54E1";
leftMetricsKey = "=d";
rightMetricsKey = "=n+2";
paths = (
{
closed = 1;
nodes = (
"662 0 LINE",
"662 84 LINE",
"589 84 LINE",
"589 551 LINE",
"585 551 LINE",
"491 452 LINE",
"491 399 LINE",
"494 300 LINE",
"494 237 LINE",
"491 200 LINE",
"491 67 LINE SMOOTH",
"491 22 OFFCURVE",
"513 0 OFFCURVE",
"548 0 CURVE SMOOTH"
);
}
);
width = 681;
}
);
leftKerningGroup = o;
leftMetricsKey = d;
rightKerningGroup = a;
rightMetricsKey = n;
},
{
color = 5;
glyphname = ae;
lastChange = "2018-04-25 04:39:43 +0000";
layers = (
{
anchors = (
{
name = bottom;
position = "{520, 0}";
},
{
name = top;
position = "{520, 524}";
}
);
layerId = "67AEAADB-8447-4819-9D92-8BB76BD22042";
paths = (
{
closed = 1;
nodes = (
"857 -8 OFFCURVE",
"940 49 OFFCURVE",
"981 141 CURVE",
"976 143 LINE",
"935 53 OFFCURVE",
"854 -3 OFFCURVE",
"752 -3 CURVE SMOOTH",
"610 -3 OFFCURVE",
"509 106 OFFCURVE",
"509 261 CURVE SMOOTH",
"509 419 OFFCURVE",
"608 527 OFFCURVE",
"751 527 CURVE SMOOTH",
"889 527 OFFCURVE",
"985 423 OFFCURVE",
"985 270 CURVE SMOOTH",
"985 268 OFFCURVE",
"985 265 OFFCURVE",
"985 263 CURVE",
"990 263 LINE",
"990 265 OFFCURVE",
"990 268 OFFCURVE",
"990 270 CURVE SMOOTH",
"990 424 OFFCURVE",
"894 532 OFFCURVE",
"751 532 CURVE SMOOTH",
"608 532 OFFCURVE",
"522 425 OFFCURVE",
"510 311 CURVE",
"507 311 LINE",
"504 261 LINE",
"504 103 OFFCURVE",
"605 -8 OFFCURVE",
"752 -8 CURVE SMOOTH"
);
},
{
closed = 1;
nodes = (
"383 -7 OFFCURVE",
"488 77 OFFCURVE",
"503 243 CURVE",
"507 243 LINE",
"504 304 LINE",
"504 75 OFFCURVE",
"376 -2 OFFCURVE",
"223 -2 CURVE SMOOTH",
"122 -2 OFFCURVE",
"69 39 OFFCURVE",
"69 118 CURVE SMOOTH",
"69 204 OFFCURVE",
"121 242 OFFCURVE",
"220 264 CURVE SMOOTH",
"506 324 LINE",
"506 329 LINE",
"220 269 LINE SMOOTH",
"118 246 OFFCURVE",
"64 210 OFFCURVE",
"64 118 CURVE SMOOTH",
"64 35 OFFCURVE",
"119 -7 OFFCURVE",
"223 -7 CURVE SMOOTH"
);
},
{
closed = 1;
nodes = (
"509 365 LINE SMOOTH",
"509 490 OFFCURVE",
"426 531 OFFCURVE",
"302 531 CURVE SMOOTH",
"180 531 OFFCURVE",
"120 487 OFFCURVE",
"89 393 CURVE",
"94 391 LINE",
"124 483 OFFCURVE",
"183 526 OFFCURVE",
"302 526 CURVE SMOOTH",
"423 526 OFFCURVE",
"504 487 OFFCURVE",
"504 365 CURVE SMOOTH",
"504 326 LINE",
"504 304 LINE",
"504 279 LINE",
"509 279 LINE"
);
},
{
closed = 1;
nodes = (
"988 263 LINE",
"988 268 LINE",
"507 268 LINE",
"507 263 LINE"
);
}
);
width = 1040;
},
{
anchors = (
{
name = bottom;
position = "{494, 0}";
},
{
name = top;
position = "{494, 536}";
}
);
layerId = "2C5E45D0-97E8-45AA-A5B2-946753DF54E1";
paths = (
{
closed = 1;
nodes = (
"798 -10 OFFCURVE",
"883 42 OFFCURVE",
"927 126 CURVE",
"836 161 LINE",
"807 110 OFFCURVE",
"755 78 OFFCURVE",
"692 78 CURVE SMOOTH",
"587 78 OFFCURVE",
"524 156 OFFCURVE",
"524 266 CURVE SMOOTH",
"524 380 OFFCURVE",
"589 458 OFFCURVE",
"686 458 CURVE SMOOTH",
"787 458 OFFCURVE",
"845 380 OFFCURVE",
"845 273 CURVE SMOOTH",
"845 256 OFFCURVE",
"844 245 OFFCURVE",
"843 235 CURVE",
"941 235 LINE",
"942 245 OFFCURVE",
"942 256 OFFCURVE",
"942 266 CURVE SMOOTH",
"942 431 OFFCURVE",
"833 546 OFFCURVE",
"700 546 CURVE SMOOTH",
"597 546 OFFCURVE",
"548 479 OFFCURVE",
"528 377 CURVE",
"513 377 LINE",
"428 220 LINE",
"446 82 OFFCURVE",
"544 -10 OFFCURVE",
"692 -10 CURVE SMOOTH"
);
},
{
closed = 1;
nodes = (
"344 -7 OFFCURVE",
"417 49 OFFCURVE",
"435 172 CURVE",
"469 172 LINE",
"430 280 LINE",
"430 128 OFFCURVE",
"326 77 OFFCURVE",
"244 77 CURVE SMOOTH",
"193 77 OFFCURVE",
"157 97 OFFCURVE",
"157 151 CURVE SMOOTH",
"157 197 OFFCURVE",
"186 221 OFFCURVE",
"233 231 CURVE SMOOTH",
"455 278 LINE",
"455 347 LINE",
"217 301 LINE SMOOTH",
"112 281 OFFCURVE",
"55 240 OFFCURVE",
"55 146 CURVE SMOOTH",
"55 45 OFFCURVE",
"115 -7 OFFCURVE",
"228 -7 CURVE SMOOTH"
);
},
{
closed = 1;
nodes = (
"524 362 LINE SMOOTH",
"524 501 OFFCURVE",
"438 547 OFFCURVE",
"308 547 CURVE SMOOTH",
"150 547 OFFCURVE",
"85 468 OFFCURVE",
"73 378 CURVE",
"161 359 LINE",
"178 435 OFFCURVE",
"234 457 OFFCURVE",
"300 457 CURVE SMOOTH",
"369 457 OFFCURVE",
"426 432 OFFCURVE",
"426 351 CURVE",
"426 331 LINE",
"430 280 LINE",
"435 214 LINE",
"524 214 LINE"
);
},
{
closed = 1;
nodes = (
"941 235 LINE",
"911 309 LINE",
"487 309 LINE",
"487 235 LINE"
);
}
);
width = 988;
},
{
anchors = (
{
name = bottom;
position = "{535, 0}";
},
{
name = top;
position = "{535, 580}";
}
);
layerId = "BE4E587A-F76C-447B-AA28-A45E40876AAF";
paths = (
{
closed = 1;
nodes = (
"888 -14 OFFCURVE",
"1004 58 OFFCURVE",
"1049 177 CURVE",
"802 234 LINE",
"788 216 OFFCURVE",
"763 204 OFFCURVE",
"731 204 CURVE SMOOTH",
"678 204 OFFCURVE",
"645 239 OFFCURVE",
"645 290 CURVE SMOOTH",
"645 355 OFFCURVE",
"677 391 OFFCURVE",
"727 391 CURVE SMOOTH",
"776 391 OFFCURVE",
"807 357 OFFCURVE",
"807 295 CURVE SMOOTH",
"807 281 OFFCURVE",
"807 266 OFFCURVE",
"806 252 CURVE",
"1056 252 LINE",
"1056 265 OFFCURVE",
"1056 277 OFFCURVE",
"1056 290 CURVE SMOOTH",
"1056 472 OFFCURVE",
"926 594 OFFCURVE",
"814 594 CURVE SMOOTH",
"725 594 OFFCURVE",
"673 516 OFFCURVE",
"655 372 CURVE",
"448 372 LINE",
"398 195 LINE",
"439 66 OFFCURVE",
"558 -14 OFFCURVE",
"726 -14 CURVE SMOOTH"
);
},
{
closed = 1;
nodes = (
"302 -15 OFFCURVE",
"377 48 OFFCURVE",
"392 189 CURVE",
"426 189 LINE",
"399 263 LINE",
"399 188 OFFCURVE",
"359 164 OFFCURVE",
"324 164 CURVE SMOOTH",
"297 164 OFFCURVE",
"279 177 OFFCURVE",
"279 201 CURVE SMOOTH",
"279 224 OFFCURVE",
"295 240 OFFCURVE",
"335 246 CURVE SMOOTH",
"420 259 LINE",
"420 343 LINE",
"238 316 LINE SMOOTH",
"92 294 OFFCURVE",
"13 249 OFFCURVE",
"13 141 CURVE SMOOTH",
"13 47 OFFCURVE",
"72 -15 OFFCURVE",
"193 -15 CURVE SMOOTH"
);
},
{
closed = 1;
nodes = (
"647 384 LINE SMOOTH",
"647 543 OFFCURVE",
"532 596 OFFCURVE",
"360 596 CURVE SMOOTH",
"140 596 OFFCURVE",
"53 505 OFFCURVE",
"36 376 CURVE",
"263 349 LINE",
"272 384 OFFCURVE",
"301 394 OFFCURVE",
"331 394 CURVE SMOOTH",
"363 394 OFFCURVE",
"393 382 OFFCURVE",
"393 341 CURVE SMOOTH",
"393 289 LINE",
"399 263 LINE",
"407 207 LINE",
"647 204 LINE"
);
},
{
closed = 1;
nodes = (
"846 252 LINE",
"852 336 LINE",
"546 336 LINE",
"546 252 LINE"
);
}
);
width = 1070;
}
);
leftKerningGroup = a;
leftMetricsKey = a;
rightKerningGroup = o;
rightMetricsKey = e;
unicode = 00E6;
},
{
glyphname = b;
lastChange = "2018-04-25 04:44:13 +0000";
layers = (
{
anchors = (
{
name = bottom;
position = "{381, 0}";
},
{
name = top;
position = "{141, 770}";
}
);
components = (
{
name = "bowl-thick.part";
transform = "{1, 0, 0, 1, 95, 0}";
}
);
layerId = "67AEAADB-8447-4819-9D92-8BB76BD22042";
leftMetricsKey = "=l-33";
rightMetricsKey = "=o";
paths = (
{
closed = 1;
nodes = (
"140 0 LINE",
"140 212 LINE",
"139 239 LINE",
"139 272 LINE",
"140 307 LINE",
"140 790 LINE",
"6 790 LINE",
"6 785 LINE",
"135 785 LINE",
"135 0 LINE"
);
}
);
width = 712;
},
{
anchors = (
{
name = bottom;
position = "{368, 0}";
},
{
name = top;
position = "{180, 772}";
}
);
components = (
{
name = "bowl-thick.part";
transform = "{1, 0, 0, 1, 89, 0}";
}
);
layerId = "BE4E587A-F76C-447B-AA28-A45E40876AAF";
leftMetricsKey = "=h-18";
rightMetricsKey = "=o+5";
paths = (
{
closed = 1;
nodes = (
"64 -14 LINE",
"308 162 LINE",
"305 244 LINE",
"305 320 LINE",
"308 340 LINE",
"308 790 LINE",
"-1 790 LINE",
"-1 587 LINE",
"54 587 LINE",
"54 -14 LINE"
);
}
);
width = 746;
},
{
anchors = (
{
name = bottom;
position = "{336, 0}";
},
{
name = top;
position = "{148, 732}";
}
);
components = (
{
name = "bowl-thick.part";
transform = "{1, 0, 0, 1, 73, 0}";
}
);
layerId = "2C5E45D0-97E8-45AA-A5B2-946753DF54E1";
leftMetricsKey = "=l-38";
rightMetricsKey = "=o";
paths = (
{
closed = 1;
nodes = (
"93 -15 LINE",
"187 84 LINE",
"184 208 LINE",
"184 288 LINE",
"187 361 LINE",
"187 790 LINE",
"-9 790 LINE",
"-9 706 LINE",
"89 706 LINE",
"89 -15 LINE"
);
}
);
width = 678;
},
{
associatedMasterId = "2C5E45D0-97E8-45AA-A5B2-946753DF54E1";
layerId = "F6347527-681C-4956-A72F-5F29356DD99F";
leftMetricsKey = "=l-21";
rightMetricsKey = "=o+6";
name = "Feb 27 18, 15:10";
paths = (
{
closed = 1;
nodes = (
"534 -11 OFFCURVE",
"637 103 OFFCURVE",
"637 266 CURVE SMOOTH",
"637 430 OFFCURVE",
"533 546 OFFCURVE",
"387 546 CURVE SMOOTH",
"281 546 OFFCURVE",
"220 484 OFFCURVE",
"200 392 CURVE",
"177 392 LINE",
"193 268 LINE",
"193 381 OFFCURVE",
"257 458 OFFCURVE",
"365 458 CURVE SMOOTH",
"468 458 OFFCURVE",
"537 381 OFFCURVE",
"537 268 CURVE SMOOTH",
"537 152 OFFCURVE",
"478 77 OFFCURVE",
"365 77 CURVE SMOOTH",
"255 77 OFFCURVE",
"193 156 OFFCURVE",
"193 268 CURVE",
"122 174 LINE",
"154 55 OFFCURVE",
"245 -11 OFFCURVE",
"372 -11 CURVE SMOOTH"
);
},
{
closed = 1;
nodes = (
"102 -15 LINE",
"196 84 LINE",
"186 188 LINE",
"193 268 LINE",
"196 361 LINE",
"196 790 LINE",
"0 790 LINE",
"0 706 LINE",
"98 706 LINE",
"98 -15 LINE"
);
}
);
width = 685;
}
);
leftMetricsKey = "=h-14";
rightKerningGroup = o;
rightMetricsKey = "=o+7";
unicode = 0062;
},
{
color = 5;
glyphname = c;
lastChange = "2018-04-25 04:41:20 +0000";
layers = (
{
anchors = (
{
name = bottom;
position = "{311, 0}";
},
{
name = top;
position = "{311, 524}";
}
);
layerId = "67AEAADB-8447-4819-9D92-8BB76BD22042";
rightMetricsKey = "=o-10";
paths = (
{
closed = 1;
nodes = (
"424 -8 OFFCURVE",
"509 51 OFFCURVE",
"553 141 CURVE",
"548 143 LINE",
"505 54 OFFCURVE",
"421 -3 OFFCURVE",
"314 -3 CURVE SMOOTH",
"164 -3 OFFCURVE",
"61 106 OFFCURVE",
"61 261 CURVE SMOOTH",
"61 417 OFFCURVE",
"162 527 OFFCURVE",
"310 527 CURVE SMOOTH",
"437 527 OFFCURVE",
"534 440 OFFCURVE",
"549 308 CURVE",
"552 335 LINE",
"548 335 LINE",
"529 444 OFFCURVE",
"440 532 OFFCURVE",
"310 532 CURVE SMOOTH",
"159 532 OFFCURVE",
"56 420 OFFCURVE",
"56 261 CURVE SMOOTH",
"56 103 OFFCURVE",
"161 -8 OFFCURVE",
"314 -8 CURVE SMOOTH"
);
},
{
closed = 1;
nodes = (
"554 308 LINE",
"554 524 LINE",
"549 524 LINE",
"549 308 LINE"
);
}
);
width = 600;
},
{
anchors = (
{
name = bottom;
position = "{361, 0}";
},
{
name = top;
position = "{361, 580}";
}
);
layerId = "BE4E587A-F76C-447B-AA28-A45E40876AAF";
rightMetricsKey = "=o-6";
paths = (
{
closed = 1;
nodes = (
"534 -14 OFFCURVE",
"657 65 OFFCURVE",
"689 194 CURVE",
"435 261 LINE",
"429 226 OFFCURVE",
"401 204 OFFCURVE",
"359 204 CURVE SMOOTH",
"307 204 OFFCURVE",
"275 238 OFFCURVE",
"275 297 CURVE SMOOTH",
"275 354 OFFCURVE",
"307 391 OFFCURVE",
"356 391 CURVE SMOOTH",
"401 391 OFFCURVE",
"432 361 OFFCURVE",
"435 304 CURVE",
"478 417 LINE",
"427 417 LINE",
"418 538 OFFCURVE",
"369 594 OFFCURVE",
"278 594 CURVE SMOOTH",
"144 594 OFFCURVE",
"14 472 OFFCURVE",
"14 290 CURVE SMOOTH",
"14 107 OFFCURVE",
"146 -14 OFFCURVE",
"356 -14 CURVE SMOOTH"
);
},
{
closed = 1;
nodes = (
"689 304 LINE",
"689 580 LINE",
"435 580 LINE",
"435 304 LINE"
);
}
);
width = 697;
},
{
anchors = (
{
name = bottom;
position = "{324, 0}";
},
{
name = top;
position = "{324, 536}";
}
);
layerId = "2C5E45D0-97E8-45AA-A5B2-946753DF54E1";
leftMetricsKey = "=o+3";
rightMetricsKey = "=o+1";
paths = (
{
closed = 1;
nodes = (
"449 -10 OFFCURVE",
"539 41 OFFCURVE",
"574 126 CURVE",
"483 166 LINE",
"461 113 OFFCURVE",
"406 80 OFFCURVE",
"332 80 CURVE SMOOTH",
"220 80 OFFCURVE",
"152 157 OFFCURVE",
"152 266 CURVE SMOOTH",
"152 380 OFFCURVE",
"221 458 OFFCURVE",
"325 458 CURVE SMOOTH",
"409 458 OFFCURVE",
"463 406 OFFCURVE",
"475 332 CURVE",
"494 416 LINE",
"471 416 LINE",
"463 494 OFFCURVE",
"419 546 OFFCURVE",
"312 546 CURVE SMOOTH",
"156 546 OFFCURVE",
"52 430 OFFCURVE",
"52 266 CURVE SMOOTH",
"52 104 OFFCURVE",
"160 -10 OFFCURVE",
"331 -10 CURVE SMOOTH"
);
},
{
closed = 1;
nodes = (
"573 332 LINE",
"573 536 LINE",
"475 536 LINE",
"475 332 LINE"
);
}
);
width = 624;
},
{
anchors = (
{
name = bottom;
position = "{314, 0}";
},
{
name = top;
position = "{310, 524}";
}
);
associatedMasterId = "67AEAADB-8447-4819-9D92-8BB76BD22042";
layerId = "0242EC4C-37D6-4D22-AAC7-48E5D093E98C";
rightMetricsKey = "=o-10";
name = "Light [6]";
paths = (
{
closed = 1;
nodes = (
"424 -8 OFFCURVE",
"509 51 OFFCURVE",
"553 141 CURVE",
"548 143 LINE",
"505 54 OFFCURVE",
"421 -3 OFFCURVE",
"314 -3 CURVE SMOOTH",
"164 -3 OFFCURVE",
"61 106 OFFCURVE",
"61 261 CURVE SMOOTH",
"61 417 OFFCURVE",
"162 527 OFFCURVE",
"310 527 CURVE SMOOTH",
"441 527 OFFCURVE",
"534 440 OFFCURVE",
"549 308 CURVE",
"552 356 LINE",
"548 356 LINE",
"527 450 OFFCURVE",
"440 532 OFFCURVE",
"310 532 CURVE SMOOTH",
"159 532 OFFCURVE",
"56 420 OFFCURVE",
"56 261 CURVE SMOOTH",
"56 103 OFFCURVE",
"161 -8 OFFCURVE",
"314 -8 CURVE SMOOTH"
);
},
{
closed = 1;
nodes = (
"554 308 LINE",
"554 524 LINE",
"549 524 LINE",
"549 308 LINE"
);
}
);
width = 600;
}
);
leftKerningGroup = o;
leftMetricsKey = o;
rightMetricsKey = "=o-14";
unicode = 0063;
},
{
glyphname = d;
lastChange = "2018-05-02 00:17:32 +0000";
layers = (
{
associatedMasterId = "67AEAADB-8447-4819-9D92-8BB76BD22042";
layerId = "388A103D-4867-4332-B200-0EBE35D53AEB";
name = "Oct 22 17, 16:09";
paths = (
{
closed = 1;
nodes = (
"512 645 LINE",
"254 645 LINE",
"254 525 LINE",
"372 525 LINE",
"372 0 LINE",
"570 0 LINE",
"570 120 LINE",
"512 120 LINE"
);
},
{
closed = 1;
nodes = (
"222 120 OFFCURVE",
"185 162 OFFCURVE",
"185 223 CURVE SMOOTH",
"185 285 OFFCURVE",
"222 331 OFFCURVE",
"279 331 CURVE SMOOTH",
"324 331 OFFCURVE",
"372 302 OFFCURVE",
"372 223 CURVE",
"382 420 LINE",
"368 420 LINE",
"346 447 OFFCURVE",
"312 458 OFFCURVE",
"265 458 CURVE SMOOTH",
"132 458 OFFCURVE",
"40 369 OFFCURVE",
"40 223 CURVE SMOOTH",
"40 94 OFFCURVE",
"109 -12 OFFCURVE",
"234 -12 CURVE SMOOTH",
"307 -12 OFFCURVE",
"352 26 OFFCURVE",
"368 111 CURVE",
"385 111 LINE",
"372 223 LINE",
"372 146 OFFCURVE",
"324 120 OFFCURVE",
"279 120 CURVE SMOOTH"
);
}
);
width = 590;
},
{
anchors = (
{
name = bottom;
position = "{381, 0}";
},
{
name = right;
position = "{664, 524}";
},
{
name = top;
position = "{505, 770}";
}
);
components = (
{
name = "bowl-thin.part";
transform = "{-1, 0, 0, -1, 617, 524}";
}
);
layerId = "67AEAADB-8447-4819-9D92-8BB76BD22042";
leftMetricsKey = "=o";
rightMetricsKey = "=l-4";
paths = (
{
closed = 1;
nodes = (
"695 0 LINE",
"695 5 LINE",
"577 5 LINE",
"577 790 LINE",
"403 790 LINE",
"403 785 LINE",
"572 785 LINE",
"572 303 LINE",
"573 280 LINE",
"573 232 LINE",
"572 217 LINE",
"572 0 LINE"
);
}
);
width = 722;
},
{
anchors = (
{
name = bottom;
position = "{401, 0}";
},
{
name = right;
position = "{773, 580}";
},
{
name = top;
position = "{442, 772}";
}
);
components = (
{
name = "bowl-thin.part";
transform = "{-1, 0, 0, -1, 577, 568}";
}
);
layerId = "BE4E587A-F76C-447B-AA28-A45E40876AAF";
leftMetricsKey = "=o+5";
rightMetricsKey = "=l+2";
paths = (
{
closed = 1;
nodes = (
"747 0 LINE",
"747 203 LINE",
"692 203 LINE",
"692 790 LINE",
"375 790 LINE",
"375 587 LINE",
"438 587 LINE",
"438 423 LINE",
"441 331 LINE",
"441 253 LINE",
"438 231 LINE",
"438 0 LINE"
);
}
);
width = 763;
},
{
anchors = (
{
name = bottom;
position = "{370, 0}";
},
{
name = right;
position = "{591, 536}";
},
{
name = top;
position = "{541, 732}";
}
);
components = (
{
name = "bowl-thin.part";
transform = "{-1, 0, 0, -1, 597, 536}";
}
);
layerId = "2C5E45D0-97E8-45AA-A5B2-946753DF54E1";
leftMetricsKey = "=o";
rightMetricsKey = "=l+9";
paths = (
{
closed = 1;
nodes = (
"684 0 LINE",
"684 84 LINE",
"589 84 LINE",
"589 790 LINE",
"357 790 LINE",
"357 706 LINE",
"491 706 LINE",
"491 398 LINE",
"494 310 LINE",
"494 240 LINE",
"491 192 LINE",
"491 0 LINE"
);
}
);
width = 715;
},
{
anchors = (
{
name = right;
position = "{725, 536}";
},
{
name = top;
position = "{314, 536}";
}
);
associatedMasterId = "2C5E45D0-97E8-45AA-A5B2-946753DF54E1";
layerId = "BE714FEC-A930-48F2-9902-B3C9A9009C92";
leftMetricsKey = "=o+6";
name = "Feb 27 18, 15:18";
paths = (
{
closed = 1;
nodes = (
"404 -10 OFFCURVE",
"465 52 OFFCURVE",
"485 144 CURVE",
"508 144 LINE",
"492 270 LINE",
"492 156 OFFCURVE",
"428 78 OFFCURVE",
"320 78 CURVE SMOOTH",
"217 78 OFFCURVE",
"148 156 OFFCURVE",
"148 270 CURVE SMOOTH",
"148 382 OFFCURVE",
"212 459 OFFCURVE",
"320 459 CURVE SMOOTH",
"430 459 OFFCURVE",
"492 381 OFFCURVE",
"492 270 CURVE",
"540 355 LINE",
"509 473 OFFCURVE",
"426 546 OFFCURVE",
"309 546 CURVE SMOOTH",
"149 546 OFFCURVE",
"48 432 OFFCURVE",
"48 270 CURVE SMOOTH",
"48 106 OFFCURVE",
"152 -10 OFFCURVE",
"298 -10 CURVE SMOOTH"
);
},
{
closed = 1;
nodes = (
"682 0 LINE",
"682 84 LINE",
"587 84 LINE",
"587 790 LINE",
"355 790 LINE",
"355 706 LINE",
"489 706 LINE",
"489 398 LINE",
"492 270 LINE",
"489 192 LINE",
"489 0 LINE"
);
}
);
width = 697;
}
);
leftKerningGroup = o;
leftMetricsKey = "=o+7";
rightKerningGroup = l;
rightMetricsKey = "l-4";
unicode = 0064;
},
{
color = 5;
glyphname = eth;
lastChange = "2018-04-20 14:30:27 +0000";
layers = (
{
layerId = "67AEAADB-8447-4819-9D92-8BB76BD22042";
rightMetricsKey = "=o+6";
paths = (
{
closed = 1;
nodes = (
"171 531 OFFCURVE",
"56 422 OFFCURVE",
"56 268 CURVE SMOOTH",
"56 107 OFFCURVE",
"161 -7 OFFCURVE",
"315 -7 CURVE SMOOTH",
"470 -7 OFFCURVE",
"577 93 OFFCURVE",
"577 268 CURVE",
"569 349 LINE",
"565 348 LINE",
"543 438 OFFCURVE",
"450 531 OFFCURVE",
"316 531 CURVE SMOOTH"
);
},
{
closed = 1;
nodes = (
"447 526 OFFCURVE",
"572 431 OFFCURVE",
"572 268 CURVE SMOOTH",
"572 96 OFFCURVE",
"467 -2 OFFCURVE",
"315 -2 CURVE SMOOTH",
"164 -2 OFFCURVE",
"61 110 OFFCURVE",
"61 268 CURVE SMOOTH",
"61 419 OFFCURVE",
"174 526 OFFCURVE",
"316 526 CURVE SMOOTH"
);
},
{
closed = 1;
nodes = (
"245 790 LINE",
"444 687 OFFCURVE",
"572 479 OFFCURVE",
"572 268 CURVE",
"577 268 LINE",
"577 477 OFFCURVE",
"451 686 OFFCURVE",
"255 790 CURVE"
);
},
{
closed = 1;
nodes = (
"488 788 LINE",
"486 792 LINE",
"174 633 LINE",
"176 629 LINE"
);
}
);
width = 639;
},
{
layerId = "BE4E587A-F76C-447B-AA28-A45E40876AAF";
rightMetricsKey = "=o+6";
paths = (
{
closed = 1;
nodes = (
"115 592 OFFCURVE",
"14 467 OFFCURVE",
"14 304 CURVE SMOOTH",
"14 115 OFFCURVE",
"147 -10 OFFCURVE",
"358 -10 CURVE SMOOTH",
"537 -10 OFFCURVE",
"698 72 OFFCURVE",
"698 308 CURVE",
"447 381 LINE",
"424 378 LINE",
"389 521 OFFCURVE",
"344 592 OFFCURVE",
"246 592 CURVE SMOOTH"
);
},
{
closed = 1;
nodes = (
"402 378 OFFCURVE",
"436 343 OFFCURVE",
"436 293 CURVE SMOOTH",
"436 243 OFFCURVE",
"402 206 OFFCURVE",
"355 206 CURVE SMOOTH",
"308 206 OFFCURVE",
"276 243 OFFCURVE",
"276 293 CURVE SMOOTH",
"276 343 OFFCURVE",
"308 378 OFFCURVE",
"355 378 CURVE SMOOTH"
);
},
{
closed = 1;
nodes = (
"205 790 LINE",
"320 678 OFFCURVE",
"436 507 OFFCURVE",
"436 293 CURVE",
"698 308 LINE",
"698 471 OFFCURVE",
"620 653 OFFCURVE",
"506 790 CURVE"
);
},
{
closed = 1;
nodes = (
"599 757 LINE",
"586 791 LINE",
"197 649 LINE",
"210 615 LINE"
);
}
);
width = 718;
},
{
associatedMasterId = "2C5E45D0-97E8-45AA-A5B2-946753DF54E1";
layerId = "0BE3B6E5-491B-4A67-A69C-65AB1281D43E";
name = "Dec 26 17, 20:25";
paths = (
{
closed = 1;
nodes = (
"151 537 OFFCURVE",
"42 426 OFFCURVE",
"42 268 CURVE SMOOTH",
"42 105 OFFCURVE",
"157 -10 OFFCURVE",
"326 -10 CURVE SMOOTH",
"495 -10 OFFCURVE",
"612 87 OFFCURVE",
"612 268 CURVE SMOOTH",
"612 352 OFFCURVE",
"581 428 OFFCURVE",
"519 482 CURVE",
"514 416 LINE",
"479 416 LINE",
"429 493 OFFCURVE",
"374 537 OFFCURVE",
"288 537 CURVE SMOOTH"
);
},
{
closed = 1;
nodes = (
"439 456 OFFCURVE",
"514 379 OFFCURVE",
"514 282 CURVE SMOOTH",
"514 149 OFFCURVE",
"439 80 OFFCURVE",
"330 80 CURVE SMOOTH",
"221 80 OFFCURVE",
"146 156 OFFCURVE",
"146 268 CURVE SMOOTH",
"146 378 OFFCURVE",
"221 456 OFFCURVE",
"330 456 CURVE SMOOTH"
);
},
{
closed = 1;
nodes = (
"612 500 OFFCURVE",
"430 682 OFFCURVE",
"207 802 CURVE",
"158 723 LINE",
"356 613 OFFCURVE",
"514 476 OFFCURVE",
"514 282 CURVE",
"612 268 LINE"
);
},
{
closed = 1;
nodes = (
"576 641 LINE",
"567 697 LINE",
"128 619 LINE",
"137 563 LINE"
);
}
);
width = 1254;
},
{
layerId = "2C5E45D0-97E8-45AA-A5B2-946753DF54E1";
rightMetricsKey = "=o+6";
paths = (
{
closed = 1;
nodes = (
"160 546 OFFCURVE",
"49 431 OFFCURVE",
"49 268 CURVE SMOOTH",
"49 105 OFFCURVE",
"161 -10 OFFCURVE",
"339 -10 CURVE SMOOTH",
"486 -10 OFFCURVE",
"619 66 OFFCURVE",
"619 281 CURVE",
"524 412 LINE",
"501 404 LINE",
"467 499 OFFCURVE",
"416 546 OFFCURVE",
"316 546 CURVE SMOOTH"
);
},
{
closed = 1;
nodes = (
"446 458 OFFCURVE",
"521 378 OFFCURVE",
"521 271 CURVE SMOOTH",
"521 164 OFFCURVE",
"446 80 OFFCURVE",
"334 80 CURVE SMOOTH",
"228 80 OFFCURVE",
"153 156 OFFCURVE",
"153 269 CURVE SMOOTH",
"153 380 OFFCURVE",
"228 458 OFFCURVE",
"337 458 CURVE SMOOTH"
);
},
{
closed = 1;
nodes = (
"275 790 LINE",
"415 662 OFFCURVE",
"521 462 OFFCURVE",
"521 271 CURVE",
"619 281 LINE",
"619 456 OFFCURVE",
"533 647 OFFCURVE",
"406 790 CURVE"
);
},
{
closed = 1;
nodes = (
"565 735 LINE",
"538 792 LINE",
"211 640 LINE",
"238 583 LINE"
);
}
);
width = 674;
},
{
associatedMasterId = "2C5E45D0-97E8-45AA-A5B2-946753DF54E1";
layerId = "5CAA3390-BC4B-416B-8C60-38BC7146CF2A";
name = "Dec 27 17, 03:10";
paths = (
{
closed = 1;
nodes = (
"151 537 OFFCURVE",
"42 426 OFFCURVE",
"42 268 CURVE SMOOTH",
"42 105 OFFCURVE",
"157 -10 OFFCURVE",
"326 -10 CURVE SMOOTH",
"495 -10 OFFCURVE",
"612 87 OFFCURVE",
"612 268 CURVE SMOOTH",
"612 352 OFFCURVE",
"581 428 OFFCURVE",
"519 482 CURVE",
"514 416 LINE",
"479 416 LINE",
"429 493 OFFCURVE",
"374 537 OFFCURVE",
"288 537 CURVE SMOOTH"
);
},
{
closed = 1;
nodes = (
"439 456 OFFCURVE",
"514 379 OFFCURVE",
"514 282 CURVE SMOOTH",
"514 149 OFFCURVE",
"439 80 OFFCURVE",
"330 80 CURVE SMOOTH",
"221 80 OFFCURVE",
"146 156 OFFCURVE",
"146 268 CURVE SMOOTH",
"146 378 OFFCURVE",
"221 456 OFFCURVE",
"330 456 CURVE SMOOTH"
);
},
{
closed = 1;
nodes = (
"612 500 OFFCURVE",
"423 722 OFFCURVE",
"168 802 CURVE",
"129 723 LINE",
"354 653 OFFCURVE",
"514 476 OFFCURVE",
"514 282 CURVE",
"612 268 LINE"
);
},
{
closed = 1;
nodes = (
"573 640 LINE",
"560 716 LINE",
"121 638 LINE",
"134 562 LINE"
);
}
);
width = 654;
},
{
associatedMasterId = "2C5E45D0-97E8-45AA-A5B2-946753DF54E1";
layerId = "98D203CA-56D4-4B8A-88A5-5EF0A78B96BD";
name = "Jan 5 18, 01:26";
paths = (
{
closed = 1;
nodes = (
"153 537 OFFCURVE",
"42 426 OFFCURVE",
"42 268 CURVE SMOOTH",
"42 105 OFFCURVE",
"157 -10 OFFCURVE",
"326 -10 CURVE SMOOTH",
"495 -10 OFFCURVE",
"612 87 OFFCURVE",
"612 268 CURVE SMOOTH",
"612 352 OFFCURVE",
"581 428 OFFCURVE",
"519 482 CURVE",
"514 416 LINE",
"489 416 LINE",
"438 493 OFFCURVE",
"381 537 OFFCURVE",
"293 537 CURVE SMOOTH"
);
},
{
closed = 1;
nodes = (
"439 456 OFFCURVE",
"514 379 OFFCURVE",
"514 282 CURVE SMOOTH",
"514 149 OFFCURVE",
"439 80 OFFCURVE",
"330 80 CURVE SMOOTH",
"221 80 OFFCURVE",
"146 156 OFFCURVE",
"146 268 CURVE SMOOTH",
"146 378 OFFCURVE",
"221 456 OFFCURVE",
"330 456 CURVE SMOOTH"
);
},
{
closed = 1;
nodes = (
"612 494 OFFCURVE",
"478 710 OFFCURVE",
"297 816 CURVE",
"242 745 LINE",
"401 648 OFFCURVE",
"514 473 OFFCURVE",
"514 282 CURVE",
"612 268 LINE"
);
},
{
closed = 1;
nodes = (
"578 709 LINE",
"547 775 LINE",
"229 627 LINE",
"260 561 LINE"
);
}
);
width = 654;
},
{
associatedMasterId = "2C5E45D0-97E8-45AA-A5B2-946753DF54E1";
layerId = "4A0ACDA9-9014-43C4-804E-40BDC9C61A31";
name = "Feb 26 18, 11:19";
paths = (
{
closed = 1;
nodes = (
"153 537 OFFCURVE",
"42 426 OFFCURVE",
"42 268 CURVE SMOOTH",
"42 105 OFFCURVE",
"157 -10 OFFCURVE",
"326 -10 CURVE SMOOTH",
"495 -10 OFFCURVE",
"612 81 OFFCURVE",
"612 281 CURVE",
"514 416 LINE",
"489 416 LINE",
"438 493 OFFCURVE",
"381 537 OFFCURVE",
"293 537 CURVE SMOOTH"
);
},
{
closed = 1;
nodes = (
"439 456 OFFCURVE",
"514 376 OFFCURVE",
"514 270 CURVE SMOOTH",
"514 146 OFFCURVE",
"439 80 OFFCURVE",
"330 80 CURVE SMOOTH",
"221 80 OFFCURVE",
"146 156 OFFCURVE",
"146 268 CURVE SMOOTH",
"146 378 OFFCURVE",
"221 456 OFFCURVE",
"330 456 CURVE SMOOTH"
);
},
{
closed = 1;
nodes = (
"612 493 OFFCURVE",
"478 699 OFFCURVE",
"297 808 CURVE",
"248 728 LINE",
"398 636 OFFCURVE",
"514 462 OFFCURVE",
"514 270 CURVE",
"612 281 LINE"
);
},
{
closed = 1;
nodes = (
"522 745 LINE",
"489 799 LINE",
"189 618 LINE",
"222 564 LINE"
);
}
);
width = 654;
},
{
associatedMasterId = "67AEAADB-8447-4819-9D92-8BB76BD22042";
layerId = "E16F7673-988D-4607-8138-1E0ABE5C6D6F";
rightMetricsKey = "=o+6";
name = "Light [6]";
paths = (
{
closed = 1;
nodes = (
"171 531 OFFCURVE",
"56 422 OFFCURVE",
"56 268 CURVE SMOOTH",
"56 107 OFFCURVE",
"161 -7 OFFCURVE",
"315 -7 CURVE SMOOTH",
"470 -7 OFFCURVE",
"577 93 OFFCURVE",
"577 268 CURVE",
"561 386 LINE",
"557 385 LINE",
"529 450 OFFCURVE",
"441 531 OFFCURVE",
"316 531 CURVE SMOOTH"
);
},
{
closed = 1;
nodes = (
"447 526 OFFCURVE",
"572 431 OFFCURVE",
"572 268 CURVE SMOOTH",
"572 96 OFFCURVE",
"467 -2 OFFCURVE",
"315 -2 CURVE SMOOTH",
"164 -2 OFFCURVE",
"61 110 OFFCURVE",
"61 268 CURVE SMOOTH",
"61 419 OFFCURVE",
"174 526 OFFCURVE",
"316 526 CURVE SMOOTH"
);
},
{
closed = 1;
nodes = (
"245 790 LINE",
"444 687 OFFCURVE",
"572 479 OFFCURVE",
"572 268 CURVE",
"577 268 LINE",
"577 477 OFFCURVE",
"451 686 OFFCURVE",
"255 790 CURVE"
);
},
{
closed = 1;
nodes = (
"488 788 LINE",
"486 792 LINE",
"174 633 LINE",
"176 629 LINE"
);
}
);
width = 639;
}
);
leftKerningGroup = o;
leftMetricsKey = "=o";
rightMetricsKey = "o+6";
unicode = 00F0;
},
{
color = 0;
glyphname = dcroat;
lastChange = "2018-05-04 15:49:57 +0000";
layers = (
{
components = (
{
name = d;
},
{
name = strokeshortcomb;
transform = "{1, 0, 0, 1, 303, 5}";
}
);
layerId = "67AEAADB-8447-4819-9D92-8BB76BD22042";
width = 722;
},
{
components = (
{
name = d;
},
{
name = strokeshortcomb;
transform = "{0.8, 0, 0, 1, 311, 64}";
}
);
layerId = "BE4E587A-F76C-447B-AA28-A45E40876AAF";
width = 763;
},
{
anchors = (
{
name = right;
position = "{710, 536}";
},
{
name = top;
position = "{314, 536}";
}
);
associatedMasterId = "2C5E45D0-97E8-45AA-A5B2-946753DF54E1";
components = (
{
name = "bowl-thin.part";
transform = "{-1, 0, 0, -1, 595, 536}";
},
{
name = strokeshortcomb;
transform = "{1.1, 0, 0, 1, 244, -5}";
}
);
layerId = "995D160F-F76A-4237-BC26-B2B6960A43E0";
rightMetricsKey = "=|n";
name = "Regular [100]";
paths = (
{
closed = 1;
nodes = (
"682 0 LINE",
"682 84 LINE",
"587 84 LINE",
"587 790 LINE",
"489 790 LINE",
"489 398 LINE",
"492 310 LINE",
"492 240 LINE",
"489 192 LINE",
"489 0 LINE"
);
}
);
width = 725;
},
{
anchors = (
{
name = right;
position = "{783, 536}";
},
{
name = top;
position = "{324, 580}";
}
);
associatedMasterId = "BE4E587A-F76C-447B-AA28-A45E40876AAF";
components = (
{
name = "bowl-thin.part";
transform = "{-1, 0, 0, -1, 603, 568}";
},
{
name = strokeshortcomb;
transform = "{0.8, 0, 0, 1, 335, 146}";
}
);
layerId = "898D628D-0094-474E-A9F2-82CBEADA54F7";
name = "Bold [100]";
paths = (
{
closed = 1;
nodes = (
"773 0 LINE",
"773 203 LINE",
"718 203 LINE",
"718 790 LINE",
"464 790 LINE",
"464 423 LINE",
"467 331 LINE",
"467 273 LINE",
"464 231 LINE",
"464 0 LINE"
);
}
);
width = 789;
},
{
associatedMasterId = "2C5E45D0-97E8-45AA-A5B2-946753DF54E1";
components = (
{
name = d;
},
{
name = strokeshortcomb;
transform = "{1, 0, 0, 0.4, 283, 369}";
}
);
layerId = "B714EAF4-F65D-4EEA-BBA6-4D686142F195";
rightMetricsKey = "=|n";
name = "Apr 25 18, 09:58";
width = 715;
},
{
components = (
{
name = d;
},
{
name = strokeshortcomb;
transform = "{1, 0, 0, 1, 283, -5}";
}
);
layerId = "2C5E45D0-97E8-45AA-A5B2-946753DF54E1";
rightMetricsKey = "=|n";
width = 715;
},
{
anchors = (
{
name = right;
position = "{783, 536}";
},
{
name = top;
position = "{324, 580}";
}
);
associatedMasterId = "BE4E587A-F76C-447B-AA28-A45E40876AAF";
components = (
{
name = "bowl-thin.part";
transform = "{-1, 0, 0, -1, 577, 568}";
}
);
layerId = "C4C2317B-45EE-48C9-9D0D-F32627104C7B";
name = "Bold [120] May 3 18, 08:36";
paths = (
{
closed = 1;
nodes = (
"773 0 LINE",
"773 203 LINE",
"718 203 LINE",
"718 790 LINE",
"464 790 LINE",
"464 423 LINE",
"467 331 LINE",
"467 273 LINE",
"464 231 LINE",
"464 0 LINE"
);
},
{
closed = 1;
nodes = (
"553 648 LINE",
"613 525 LINE",
"773 525 LINE",
"773 729 LINE",
"612 729 LINE",
"555 684 LINE",
"367 684 LINE",
"367 648 LINE"
);
}
);
width = 789;
}
);
leftKerningGroup = o;
leftMetricsKey = d;
rightMetricsKey = d;
unicode = 0111;
},
{
color = 6;
glyphname = e;
lastChange = "2018-04-27 00:20:22 +0000";
layers = (
{
anchors = (
{
name = bottom;
position = "{315, 0}";
},
{
name = ogonek;
position = "{410, 8}";
},
{
name = top;
position = "{315, 524}";
}
);
layerId = "67AEAADB-8447-4819-9D92-8BB76BD22042";
leftMetricsKey = "=o+1";
rightMetricsKey = "=o-6";
paths = (
{
closed = 1;
nodes = (
"425 -8 OFFCURVE",
"511 49 OFFCURVE",
"554 141 CURVE",
"549 143 LINE",
"507 52 OFFCURVE",
"422 -3 OFFCURVE",
"315 -3 CURVE SMOOTH",
"165 -3 OFFCURVE",
"62 106 OFFCURVE",
"62 261 CURVE SMOOTH",
"62 417 OFFCURVE",
"164 527 OFFCURVE",
"314 527 CURVE SMOOTH",
"460 527 OFFCURVE",
"558 421 OFFCURVE",
"558 270 CURVE SMOOTH",
"558 268 OFFCURVE",
"558 265 OFFCURVE",
"558 263 CURVE",
"563 263 LINE",
"563 265 OFFCURVE",
"563 268 OFFCURVE",
"563 270 CURVE SMOOTH",
"563 424 OFFCURVE",
"463 532 OFFCURVE",
"314 532 CURVE SMOOTH",
"161 532 OFFCURVE",
"57 420 OFFCURVE",
"57 261 CURVE SMOOTH",
"57 103 OFFCURVE",
"162 -8 OFFCURVE",
"315 -8 CURVE SMOOTH"
);
},
{
closed = 1;
nodes = (
"561 263 LINE",
"561 268 LINE",
"60 268 LINE",
"60 263 LINE"
);
}
);
width = 613;
},
{
anchors = (
{
name = bottom;
position = "{320, 0}";
},
{
name = ogonek;
position = "{456, 19}";
},
{
name = top;
position = "{320, 536}";
}
);
layerId = "2C5E45D0-97E8-45AA-A5B2-946753DF54E1";
leftMetricsKey = "=o+2";
rightMetricsKey = "=o-3";
paths = (
{
closed = 1;
nodes = (
"442 -10 OFFCURVE",
"534 48 OFFCURVE",
"573 143 CURVE",
"480 178 LINE",
"455 117 OFFCURVE",
"399 80 OFFCURVE",
"324 80 CURVE SMOOTH",
"215 80 OFFCURVE",
"150 157 OFFCURVE",
"150 266 CURVE SMOOTH",
"150 380 OFFCURVE",
"218 458 OFFCURVE",
"320 458 CURVE SMOOTH",
"426 458 OFFCURVE",
"487 380 OFFCURVE",
"487 273 CURVE SMOOTH",
"487 256 OFFCURVE",
"486 245 OFFCURVE",
"485 235 CURVE",
"582 235 LINE",
"583 241 OFFCURVE",
"584 249 OFFCURVE",
"584 266 CURVE SMOOTH",
"584 431 OFFCURVE",
"484 546 OFFCURVE",
"320 546 CURVE SMOOTH",
"158 546 OFFCURVE",
"51 430 OFFCURVE",
"51 266 CURVE SMOOTH",
"51 104 OFFCURVE",
"155 -10 OFFCURVE",
"325 -10 CURVE SMOOTH"
);
},
{
closed = 1;
nodes = (
"582 235 LINE",
"553 309 LINE",
"113 309 LINE",
"113 235 LINE"
);
}
);
width = 630;
},
{
anchors = (
{
name = ogonek;
position = "{518, 15}";
},
{
name = top;
position = "{350, 580}";
}
);
associatedMasterId = "BE4E587A-F76C-447B-AA28-A45E40876AAF";
layerId = "37AC81F8-3912-4902-B0E9-A8CB1A4EB4A1";
rightMetricsKey = "=o";
name = "Jan 14 18, 01:46";
paths = (
{
closed = 1;
nodes = (
"495 -14 OFFCURVE",
"606 58 OFFCURVE",
"649 177 CURVE",
"402 234 LINE",
"391 216 OFFCURVE",
"371 204 OFFCURVE",
"346 204 CURVE SMOOTH",
"302 204 OFFCURVE",
"275 239 OFFCURVE",
"275 290 CURVE SMOOTH",
"275 355 OFFCURVE",
"301 391 OFFCURVE",
"342 391 CURVE SMOOTH",
"382 391 OFFCURVE",
"407 357 OFFCURVE",
"407 295 CURVE SMOOTH",
"407 281 OFFCURVE",
"407 266 OFFCURVE",
"406 252 CURVE",
"656 252 LINE",
"656 265 OFFCURVE",
"656 277 OFFCURVE",
"656 290 CURVE SMOOTH",
"656 472 OFFCURVE",
"532 594 OFFCURVE",
"335 594 CURVE SMOOTH",
"138 594 OFFCURVE",
"14 472 OFFCURVE",
"14 290 CURVE SMOOTH",
"14 107 OFFCURVE",
"140 -14 OFFCURVE",
"341 -14 CURVE SMOOTH"
);
},
{
closed = 1;
nodes = (
"446 252 LINE",
"452 336 LINE",
"176 336 LINE",
"176 252 LINE"
);
}
);
width = 700;
},
{
anchors = (
{
name = bottom;
position = "{356, 0}";
},
{
name = ogonek;
position = "{521, 17}";
},
{
name = top;
position = "{350, 580}";
}
);
layerId = "BE4E587A-F76C-447B-AA28-A45E40876AAF";
rightMetricsKey = "=o";
paths = (
{
closed = 1;
nodes = (
"518 -14 OFFCURVE",
"634 58 OFFCURVE",
"679 177 CURVE",
"432 234 LINE",
"418 216 OFFCURVE",
"393 204 OFFCURVE",
"361 204 CURVE SMOOTH",
"308 204 OFFCURVE",
"275 239 OFFCURVE",
"275 290 CURVE SMOOTH",
"275 355 OFFCURVE",
"307 391 OFFCURVE",
"357 391 CURVE SMOOTH",
"406 391 OFFCURVE",
"437 357 OFFCURVE",
"437 295 CURVE SMOOTH",
"437 281 OFFCURVE",
"437 266 OFFCURVE",
"436 252 CURVE",
"686 252 LINE",
"686 265 OFFCURVE",
"686 277 OFFCURVE",
"686 290 CURVE SMOOTH",
"686 472 OFFCURVE",
"556 594 OFFCURVE",
"350 594 CURVE SMOOTH",
"144 594 OFFCURVE",
"14 472 OFFCURVE",
"14 290 CURVE SMOOTH",
"14 107 OFFCURVE",
"146 -14 OFFCURVE",
"356 -14 CURVE SMOOTH"
);
},
{
closed = 1;
nodes = (
"476 252 LINE",
"482 336 LINE",
"176 336 LINE",
"176 252 LINE"
);
}
);
width = 700;
},
{
anchors = (
{
name = bottom;
position = "{321, 0}";
},
{
name = ogonek;
position = "{438, 13}";
},
{
name = top;
position = "{311, 536}";
}
);
associatedMasterId = "2C5E45D0-97E8-45AA-A5B2-946753DF54E1";
layerId = "E381435E-AA7D-463C-8760-1E6FDC933C9B";
leftMetricsKey = "=o+2";
rightMetricsKey = "=o+2";
name = "Feb 6 18, 15:52";
paths = (
{
closed = 1;
nodes = (
"430 -10 OFFCURVE",
"516 42 OFFCURVE",
"562 126 CURVE",
"471 161 LINE",
"440 110 OFFCURVE",
"387 78 OFFCURVE",
"321 78 CURVE SMOOTH",
"210 78 OFFCURVE",
"143 156 OFFCURVE",
"143 266 CURVE SMOOTH",
"143 380 OFFCURVE",
"211 458 OFFCURVE",
"313 458 CURVE SMOOTH",
"419 458 OFFCURVE",
"480 380 OFFCURVE",
"480 273 CURVE SMOOTH",
"480 256 OFFCURVE",
"479 245 OFFCURVE",
"478 235 CURVE",
"576 235 LINE",
"577 245 OFFCURVE",
"577 256 OFFCURVE",
"577 266 CURVE SMOOTH",
"577 431 OFFCURVE",
"477 546 OFFCURVE",
"313 546 CURVE SMOOTH",
"151 546 OFFCURVE",
"44 430 OFFCURVE",
"44 266 CURVE SMOOTH",
"44 104 OFFCURVE",
"151 -10 OFFCURVE",
"321 -10 CURVE SMOOTH"
);
},
{
closed = 1;
nodes = (
"576 235 LINE",
"546 309 LINE",
"106 309 LINE",
"106 235 LINE"
);
}
);
width = 621;
},
{
anchors = (
{
name = bottom;
position = "{337, 1}";
},
{
name = ogonek;
position = "{475, 18}";
},
{
name = top;
position = "{328, 548}";
}
);
associatedMasterId = "2C5E45D0-97E8-45AA-A5B2-946753DF54E1";
layerId = "90F234E9-9E12-47B8-A303-F1895A44E1F0";
leftMetricsKey = "=o+2";
rightMetricsKey = "=o-3";
name = "{140}";
paths = (
{
closed = 1;
nodes = (
"463 -11 OFFCURVE",
"562 51 OFFCURVE",
"603 152 CURVE",
"468 193 LINE",
"446 144 OFFCURVE",
"398 113 OFFCURVE",
"335 113 CURVE SMOOTH",
"241 113 OFFCURVE",
"185 179 OFFCURVE",
"185 272 CURVE SMOOTH",
"185 373 OFFCURVE",
"243 440 OFFCURVE",
"331 440 CURVE SMOOTH",
"422 440 OFFCURVE",
"475 374 OFFCURVE",
"475 279 CURVE SMOOTH",
"475 259 OFFCURVE",
"474 244 OFFCURVE",
"473 230 CURVE",
"611 230 LINE",
"612 239 OFFCURVE",
"612 252 OFFCURVE",
"612 272 CURVE SMOOTH",
"612 442 OFFCURVE",
"504 559 OFFCURVE",
"329 559 CURVE SMOOTH",
"155 559 OFFCURVE",
"42 441 OFFCURVE",
"42 272 CURVE SMOOTH",
"42 105 OFFCURVE",
"154 -11 OFFCURVE",
"334 -11 CURVE SMOOTH"
);
},
{
closed = 1;
nodes = (
"554 230 LINE",
"535 324 LINE",
"131 324 LINE",
"131 230 LINE"
);
}
);
width = 648;
}
);
leftKerningGroup = o;
leftMetricsKey = o;
rightKerningGroup = o;
unicode = 0065;
},
{
glyphname = eogonek;
lastChange = "2018-04-24 22:52:00 +0000";
layers = (
{
components = (
{
name = e;
},
{
name = ogonekcomb.alt;
transform = "{1, 0, 0, 1, 251, -3}";
}
);
layerId = "67AEAADB-8447-4819-9D92-8BB76BD22042";
width = 613;
},
{
components = (
{
name = e;
},
{
name = ogonekcomb.alt;
transform = "{1, 0, 0, 1, 267, 0}";
}
);
layerId = "2C5E45D0-97E8-45AA-A5B2-946753DF54E1";
width = 630;
},
{
components = (
{
name = e;
},
{
name = ogonekcomb.alt;
transform = "{1, 0, 0, 1, 318, -8}";
}
);
layerId = "BE4E587A-F76C-447B-AA28-A45E40876AAF";
width = 700;
},
{
anchors = (
{
name = _ogonek;
position = "{438, 13}";
},
{
name = ogonek;
position = "{438, 13}";
},
{
name = top;
position = "{311, 536}";
}
);
associatedMasterId = "2C5E45D0-97E8-45AA-A5B2-946753DF54E1";
layerId = "CDAB1D54-CB17-4AD7-B07D-E3A299D06F49";
name = "Jan 4 18, 23:30";
paths = (
{
closed = 1;
nodes = (
"438 -143 LINE",
"430 -143 LINE SMOOTH",
"384 -143 OFFCURVE",
"359 -123 OFFCURVE",
"359 -84 CURVE SMOOTH",
"359 -39 OFFCURVE",
"387 -9 OFFCURVE",
"438 13 CURVE",
"389 31 LINE",
"389 -7 LINE",
"325 -20 OFFCURVE",
"295 -49 OFFCURVE",
"295 -99 CURVE SMOOTH",
"295 -164 OFFCURVE",
"347 -201 OFFCURVE",
"426 -201 CURVE SMOOTH",
"438 -201 LINE"
);
},
{
closed = 1;
nodes = (
"364 -10 OFFCURVE",
"403 -2 OFFCURVE",
"438 13 CURVE SMOOTH",
"492 36 OFFCURVE",
"534 75 OFFCURVE",
"562 126 CURVE",
"471 161 LINE",
"440 110 OFFCURVE",
"387 78 OFFCURVE",
"321 78 CURVE SMOOTH",
"210 78 OFFCURVE",
"143 156 OFFCURVE",
"143 266 CURVE SMOOTH",
"143 380 OFFCURVE",
"211 458 OFFCURVE",
"313 458 CURVE SMOOTH",
"419 458 OFFCURVE",
"480 380 OFFCURVE",
"480 273 CURVE SMOOTH",
"480 256 OFFCURVE",
"479 245 OFFCURVE",
"478 235 CURVE",
"576 235 LINE",
"577 245 OFFCURVE",
"577 256 OFFCURVE",
"577 266 CURVE SMOOTH",
"577 431 OFFCURVE",
"477 546 OFFCURVE",
"313 546 CURVE SMOOTH",
"151 546 OFFCURVE",
"44 430 OFFCURVE",
"44 266 CURVE SMOOTH",
"44 104 OFFCURVE",
"151 -10 OFFCURVE",
"321 -10 CURVE SMOOTH"
);
},
{
closed = 1;
nodes = (
"576 235 LINE",
"546 309 LINE",
"106 309 LINE",
"106 235 LINE"
);
}
);
width = 621;
}
);
leftKerningGroup = o;
rightKerningGroup = o;
unicode = 0119;
},
{
color = 4;
glyphname = f;
lastChange = "2018-04-25 04:45:35 +0000";
layers = (
{
anchors = (
{
name = bottom;
position = "{212, 0}";
},
{
name = top;
position = "{314, 770}";
}
);
layerId = "67AEAADB-8447-4819-9D92-8BB76BD22042";
rightMetricsKey = "=|n-110";
paths = (
{
closed = 1;
nodes = (
"314 0 LINE",
"314 5 LINE",
"169 5 LINE",
"169 519 LINE",
"370 519 LINE",
"370 524 LINE",
"169 524 LINE",
"169 638 LINE SMOOTH",
"169 744 OFFCURVE",
"231 792 OFFCURVE",
"324 792 CURVE SMOOTH",
"411 792 OFFCURVE",
"459 752 OFFCURVE",
"478 671 CURVE",
"483 672 LINE",
"466 753 OFFCURVE",
"414 797 OFFCURVE",
"324 797 CURVE SMOOTH",
"228 797 OFFCURVE",
"164 747 OFFCURVE",
"164 638 CURVE SMOOTH",
"164 524 LINE",
"50 524 LINE",
"50 519 LINE",
"164 519 LINE",
"164 5 LINE",
"50 5 LINE",
"50 0 LINE"
);
}
);
width = 423;
},
{
associatedMasterId = "67AEAADB-8447-4819-9D92-8BB76BD22042";
backgroundImage = {
crop = "{{0, 0}, {2448, 3264}}";
imagePath = "../Reference/Bruce/Bruce1848/1848 George Bruce & Co. type specimen book..jpg";
locked = "1";
transform = "{6.16431, 0, 0, 6.16431, -3842, -14088}";
};
layerId = "79B3B9FF-9A06-4F89-B827-3296CCDDD8C6";
name = "Dec 8 17, 15:51";
paths = (
{
closed = 1;
nodes = (
"535 738 OFFCURVE",
"465 801 OFFCURVE",
"340 801 CURVE SMOOTH",
"203 801 OFFCURVE",
"117 724 OFFCURVE",
"117 580 CURVE SMOOTH",
"117 552 LINE",
"23 552 LINE",
"23 406 LINE",
"116 406 LINE",
"116 146 LINE",
"23 146 LINE",
"23 0 LINE",
"372 0 LINE",
"372 146 LINE",
"287 146 LINE",
"287 406 LINE",
"402 406 LINE",
"402 552 LINE",
"287 552 LINE",
"287 584 LINE SMOOTH",
"287 628 OFFCURVE",
"322 662 OFFCURVE",
"394 662 CURVE SMOOTH",
"461 662 OFFCURVE",
"501 644 OFFCURVE",
"516 619 CURVE",
"535 619 LINE"
);
}
);
width = 422;
},
{
associatedMasterId = "67AEAADB-8447-4819-9D92-8BB76BD22042";
backgroundImage = {
crop = "{{0, 0}, {2448, 3264}}";
imagePath = "../Reference/Bruce/Bruce1848/1848 George Bruce & Co. type specimen book..jpg";
locked = "1";
transform = "{6.16431, 0, 0, 6.16431, -3842, -14088}";
};
layerId = "0CAEAC39-57A6-47AF-928C-E8B67783A302";
name = "Dec 10 17, 21:39";
paths = (
{
closed = 1;
nodes = (
"287 605 LINE SMOOTH",
"287 634 OFFCURVE",
"303 650 OFFCURVE",
"335 650 CURVE SMOOTH",
"366 650 OFFCURVE",
"381 635 OFFCURVE",
"381 609 CURVE",
"535 609 LINE",
"535 731 OFFCURVE",
"476 801 OFFCURVE",
"332 801 CURVE SMOOTH",
"185 801 OFFCURVE",
"117 726 OFFCURVE",
"117 605 CURVE SMOOTH",
"117 554 LINE",
"23 554 LINE",
"23 408 LINE",
"116 408 LINE",
"116 146 LINE",
"23 146 LINE",
"23 0 LINE",
"372 0 LINE",
"372 146 LINE",
"287 146 LINE",
"287 408 LINE",
"412 408 LINE",
"412 554 LINE",
"287 554 LINE"
);
}
);
width = 440;
},
{
associatedMasterId = "67AEAADB-8447-4819-9D92-8BB76BD22042";
backgroundImage = {
crop = "{{0, 0}, {2448, 3264}}";
imagePath = "../Reference/Bruce/Bruce1848/1848 George Bruce & Co. type specimen book..jpg";
locked = "1";
transform = "{6.16431, 0, 0, 6.16431, -3852, -14088}";
};
layerId = "2214ED82-5822-4037-94AA-E449E18DBE6F";
name = "Dec 10 17, 22:57";
paths = (
{
closed = 1;
nodes = (
"277 585 LINE SMOOTH",
"277 629 OFFCURVE",
"307 654 OFFCURVE",
"371 654 CURVE SMOOTH",
"407 654 OFFCURVE",
"442 646 OFFCURVE",
"482 634 CURVE",
"482 780 LINE",
"435 792 OFFCURVE",
"387 801 OFFCURVE",
"336 801 CURVE SMOOTH",
"182 799 OFFCURVE",
"107 718 OFFCURVE",
"107 585 CURVE SMOOTH",
"107 554 LINE",
"23 554 LINE",
"23 408 LINE",
"106 408 LINE",
"106 146 LINE",
"23 146 LINE",
"23 0 LINE",
"390 0 LINE",
"390 146 LINE",
"277 146 LINE",
"277 408 LINE",
"422 408 LINE",
"422 554 LINE",
"277 554 LINE"
);
}
);
width = 450;
},
{
associatedMasterId = "2C5E45D0-97E8-45AA-A5B2-946753DF54E1";
layerId = "EA442F27-1256-48DD-ACF5-73F26FD9C8CA";
rightMetricsKey = "=|n-120";
name = Serif;
paths = (
{
closed = 1;
nodes = (
"432 688 LINE",
"399 688 LINE",
"388 761 OFFCURVE",
"357 800 OFFCURVE",
"284 800 CURVE SMOOTH",
"184 800 OFFCURVE",
"135 726 OFFCURVE",
"135 606 CURVE SMOOTH",
"135 536 LINE",
"32 536 LINE",
"32 452 LINE",
"134 452 LINE",
"134 84 LINE",
"32 84 LINE",
"32 0 LINE",
"367 0 LINE",
"367 84 LINE",
"232 84 LINE",
"232 452 LINE",
"400 452 LINE",
"400 536 LINE",
"232 536 LINE",
"232 606 LINE SMOOTH",
"232 677 OFFCURVE",
"262 711 OFFCURVE",
"318 711 CURVE SMOOTH",
"366 711 OFFCURVE",
"396 685 OFFCURVE",
"403 632 CURVE"
);
},
{
closed = 1;
nodes = (
"403 632 LINE",
"501 632 LINE",
"501 790 LINE",
"403 790 LINE"
);
}
);
width = 413;
},
{
associatedMasterId = "2C5E45D0-97E8-45AA-A5B2-946753DF54E1";
layerId = "7C68D5C0-36A9-4110-96EC-41617AB24DAF";
rightMetricsKey = "=|n-120";
name = "Feb 9 18, 10:36";
paths = (
{
closed = 1;
nodes = (
"343 0 LINE",
"343 84 LINE",
"232 84 LINE",
"232 452 LINE",
"370 452 LINE",
"370 536 LINE",
"232 536 LINE",
"232 596 LINE SMOOTH",
"232 674 OFFCURVE",
"274 711 OFFCURVE",
"365 711 CURVE SMOOTH",
"440 711 OFFCURVE",
"494 686 OFFCURVE",
"513 636 CURVE",
"519 636 LINE",
"498 742 OFFCURVE",
"437 800 OFFCURVE",
"325 800 CURVE SMOOTH",
"192 800 OFFCURVE",
"134 722 OFFCURVE",
"134 596 CURVE SMOOTH",
"134 536 LINE",
"32 536 LINE",
"32 452 LINE",
"134 452 LINE",
"134 84 LINE",
"32 84 LINE",
"32 0 LINE"
);
}
);
width = 413;
},
{
associatedMasterId = "BE4E587A-F76C-447B-AA28-A45E40876AAF";
layerId = "2394B750-9F89-4C7D-BC88-2E7775F44F80";
leftMetricsKey = "=n-2";
name = "Feb 9 18, 11:03";
paths = (
{
closed = 1;
nodes = (
"480 0 LINE",
"480 203 LINE",
"345 203 LINE",
"345 377 LINE",
"556 377 LINE",
"556 580 LINE",
"345 580 LINE",
"345 583 LINE SMOOTH",
"345 612 OFFCURVE",
"362 626 OFFCURVE",
"392 626 CURVE SMOOTH",
"415 626 OFFCURVE",
"430 618 OFFCURVE",
"435 604 CURVE",
"454 627 LINE",
"427 627 LINE",
"421 750 OFFCURVE",
"374 804 OFFCURVE",
"280 804 CURVE SMOOTH",
"163 804 OFFCURVE",
"91 720 OFFCURVE",
"91 583 CURVE SMOOTH",
"91 580 LINE",
"16 580 LINE",
"16 377 LINE",
"91 377 LINE",
"91 203 LINE",
"16 203 LINE",
"16 0 LINE"
);
},
{
closed = 1;
nodes = (
"689 604 LINE",
"689 790 LINE",
"435 790 LINE",
"435 604 LINE"
);
}
);
width = 699;
},
{
associatedMasterId = "BE4E587A-F76C-447B-AA28-A45E40876AAF";
layerId = "40940AEF-ACDD-4500-A158-AE70C741334E";
leftMetricsKey = "=n-2";
name = "Feb 9 18, 11:05";
paths = (
{
closed = 1;
nodes = (
"549 636 LINE",
"529 753 OFFCURVE",
"450 804 OFFCURVE",
"328 804 CURVE SMOOTH",
"171 804 OFFCURVE",
"91 720 OFFCURVE",
"91 583 CURVE SMOOTH",
"91 580 LINE",
"16 580 LINE",
"16 377 LINE",
"91 377 LINE",
"91 203 LINE",
"16 203 LINE",
"16 0 LINE",
"480 0 LINE",
"480 203 LINE",
"345 203 LINE",
"345 377 LINE",
"556 377 LINE",
"556 580 LINE",
"345 580 LINE",
"345 583 LINE SMOOTH",
"345 612 OFFCURVE",
"362 626 OFFCURVE",
"412 626 CURVE SMOOTH",
"444 626 OFFCURVE",
"486 626 OFFCURVE",
"542 626 CURVE"
);
}
);
width = 566;
},
{
anchors = (
{
name = bottom;
position = "{290, 0}";
},
{
name = top;
position = "{363, 772}";
}
);
layerId = "BE4E587A-F76C-447B-AA28-A45E40876AAF";
leftMetricsKey = "=n-2";
paths = (
{
closed = 1;
nodes = (
"497 0 LINE",
"497 203 LINE",
"362 203 LINE",
"362 377 LINE",
"573 377 LINE",
"573 580 LINE",
"362 580 LINE",
"362 583 LINE SMOOTH",
"362 614 OFFCURVE",
"375 629 OFFCURVE",
"399 629 CURVE SMOOTH",
"419 629 OFFCURVE",
"432 618 OFFCURVE",
"436 597 CURVE",
"634 630 LINE",
"612 751 OFFCURVE",
"529 804 OFFCURVE",
"378 804 CURVE SMOOTH",
"187 804 OFFCURVE",
"108 720 OFFCURVE",
"108 583 CURVE SMOOTH",
"108 580 LINE",
"19 580 LINE",
"19 377 LINE",
"108 377 LINE",
"108 203 LINE",
"19 203 LINE",
"19 0 LINE"
);
}
);
width = 585;
},
{
associatedMasterId = "2C5E45D0-97E8-45AA-A5B2-946753DF54E1";
layerId = "29A6E879-6439-49E8-8A75-6B5B66C51CF2";
rightMetricsKey = "=|n-120";
name = "Feb 9 18, 11:05";
paths = (
{
closed = 1;
nodes = (
"481 636 LINE",
"466 743 OFFCURVE",
"422 800 OFFCURVE",
"315 800 CURVE SMOOTH",
"192 800 OFFCURVE",
"135 726 OFFCURVE",
"135 606 CURVE SMOOTH",
"135 536 LINE",
"32 536 LINE",
"32 452 LINE",
"134 452 LINE",
"134 84 LINE",
"32 84 LINE",
"32 0 LINE",
"348 0 LINE",
"348 84 LINE",
"232 84 LINE",
"232 452 LINE",
"400 452 LINE",
"400 536 LINE",
"232 536 LINE",
"232 606 LINE SMOOTH",
"232 682 OFFCURVE",
"272 718 OFFCURVE",
"350 718 CURVE SMOOTH",
"413 718 OFFCURVE",
"450 695 OFFCURVE",
"473 636 CURVE"
);
}
);
width = 413;
},
{
anchors = (
{
name = bottom;
position = "{216, 0}";
},
{
name = top;
position = "{327, 732}";
}
);
layerId = "2C5E45D0-97E8-45AA-A5B2-946753DF54E1";
rightMetricsKey = "=|n-109";
paths = (
{
closed = 1;
nodes = (
"364 0 LINE",
"364 84 LINE",
"243 84 LINE",
"243 452 LINE",
"411 452 LINE",
"411 536 LINE",
"243 536 LINE",
"243 606 LINE SMOOTH",
"243 677 OFFCURVE",
"273 711 OFFCURVE",
"329 711 CURVE SMOOTH",
"372 711 OFFCURVE",
"400 690 OFFCURVE",
"410 648 CURVE",
"498 675 LINE",
"480 756 OFFCURVE",
"427 800 OFFCURVE",
"328 800 CURVE SMOOTH",
"201 800 OFFCURVE",
"145 726 OFFCURVE",
"145 606 CURVE SMOOTH",
"145 536 LINE",
"43 536 LINE",
"43 452 LINE",
"145 452 LINE",
"145 84 LINE",
"43 84 LINE",
"43 0 LINE"
);
}
);
width = 432;
}
);
leftKerningGroup = n;
leftMetricsKey = n;
rightKerningGroup = f;
unicode = 0066;
},
{
color = 6;
glyphname = f.ss01;
lastChange = "2018-04-25 05:01:54 +0000";
layers = (
{
anchors = (
{
name = bottom;
position = "{177, 0}";
},
{
name = top;
position = "{298, 770}";
}
);
layerId = "67AEAADB-8447-4819-9D92-8BB76BD22042";
rightMetricsKey = "=n-110";
paths = (
{
closed = 1;
nodes = (
"169 643 LINE SMOOTH",
"169 737 OFFCURVE",
"221 792 OFFCURVE",
"319 792 CURVE SMOOTH",
"357 792 OFFCURVE",
"405 784 OFFCURVE",
"453 771 CURVE",
"453 776 LINE",
"406 788 OFFCURVE",
"359 797 OFFCURVE",
"319 797 CURVE SMOOTH",
"218 797 OFFCURVE",
"164 740 OFFCURVE",
"164 643 CURVE SMOOTH",
"164 524 LINE",
"50 524 LINE",
"50 519 LINE",
"164 519 LINE",
"164 5 LINE",
"50 5 LINE",
"50 0 LINE",
"349 0 LINE",
"349 5 LINE",
"169 5 LINE",
"169 519 LINE",
"363 519 LINE",
"363 524 LINE",
"169 524 LINE"
);
}
);
width = 368;
},
{
anchors = (
{
name = bottom;
position = "{258, 0}";
},
{
name = top;
position = "{336, 772}";
}
);
layerId = "BE4E587A-F76C-447B-AA28-A45E40876AAF";
paths = (
{
closed = 1;
nodes = (
"350 583 LINE SMOOTH",
"350 613 OFFCURVE",
"364 622 OFFCURVE",
"408 622 CURVE SMOOTH",
"437 622 OFFCURVE",
"493 618 OFFCURVE",
"531 609 CURVE",
"531 781 LINE",
"493 797 OFFCURVE",
"444 804 OFFCURVE",
"387 804 CURVE SMOOTH",
"188 804 OFFCURVE",
"96 734 OFFCURVE",
"96 583 CURVE SMOOTH",
"96 580 LINE",
"21 580 LINE",
"21 377 LINE",
"96 377 LINE",
"96 203 LINE",
"21 203 LINE",
"21 0 LINE",
"449 0 LINE",
"449 203 LINE",
"350 203 LINE",
"350 377 LINE",
"498 377 LINE",
"498 580 LINE",
"350 580 LINE"
);
}
);
width = 515;
},
{
associatedMasterId = "2C5E45D0-97E8-45AA-A5B2-946753DF54E1";
layerId = "883921FD-9ADC-4BA6-A5C9-6DAB5A8FB23E";
rightMetricsKey = "=|n-109";
name = "Dec 17 17, 15:29";
paths = (
{
closed = 1;
nodes = (
"485 675 LINE",
"467 756 OFFCURVE",
"414 800 OFFCURVE",
"315 800 CURVE SMOOTH",
"189 800 OFFCURVE",
"133 726 OFFCURVE",
"133 606 CURVE SMOOTH",
"133 536 LINE",
"30 536 LINE",
"30 452 LINE",
"132 452 LINE",
"132 84 LINE",
"30 84 LINE",
"30 0 LINE",
"365 0 LINE",
"365 84 LINE",
"230 84 LINE",
"230 452 LINE",
"398 452 LINE",
"398 536 LINE",
"230 536 LINE",
"230 606 LINE SMOOTH",
"230 677 OFFCURVE",
"260 711 OFFCURVE",
"316 711 CURVE SMOOTH",
"359 711 OFFCURVE",
"387 690 OFFCURVE",
"397 648 CURVE"
);
}
);
width = 406;
},
{
associatedMasterId = "2C5E45D0-97E8-45AA-A5B2-946753DF54E1";
layerId = "1C395C3E-06F0-4D33-9CE6-6EAFE55ACD13";
rightMetricsKey = "=|n-92";
name = "Apr 10 18, 15:35";
paths = (
{
closed = 1;
nodes = (
"243 574 LINE SMOOTH",
"243 669 OFFCURVE",
"281 706 OFFCURVE",
"366 706 CURVE SMOOTH",
"467 706 LINE",
"467 790 LINE",
"366 790 LINE SMOOTH",
"215 790 OFFCURVE",
"145 707 OFFCURVE",
"145 574 CURVE SMOOTH",
"145 536 LINE",
"43 536 LINE",
"43 452 LINE",
"145 452 LINE",
"145 84 LINE",
"43 84 LINE",
"43 0 LINE",
"358 0 LINE",
"358 84 LINE",
"243 84 LINE",
"243 452 LINE",
"404 452 LINE",
"404 536 LINE",
"243 536 LINE"
);
}
);
width = 418;
},
{
anchors = (
{
name = bottom;
position = "{213, 0}";
},
{
name = top;
position = "{330, 732}";
}
);
layerId = "2C5E45D0-97E8-45AA-A5B2-946753DF54E1";
paths = (
{
closed = 1;
nodes = (
"243 584 LINE SMOOTH",
"243 674 OFFCURVE",
"281 712 OFFCURVE",
"366 712 CURVE SMOOTH",
"406 712 OFFCURVE",
"441 704 OFFCURVE",
"481 692 CURVE",
"481 782 LINE",
"445 794 OFFCURVE",
"409 800 OFFCURVE",
"369 800 CURVE SMOOTH",
"217 800 OFFCURVE",
"145 715 OFFCURVE",
"145 579 CURVE SMOOTH",
"145 536 LINE",
"43 536 LINE",
"43 452 LINE",
"145 452 LINE",
"145 84 LINE",
"43 84 LINE",
"43 0 LINE",
"358 0 LINE",
"358 84 LINE",
"243 84 LINE",
"243 452 LINE",
"404 452 LINE",
"404 536 LINE",
"243 536 LINE"
);
}
);
width = 426;
},
{
associatedMasterId = "67AEAADB-8447-4819-9D92-8BB76BD22042";
layerId = "B6D7FE74-53BC-400C-A2E9-35DDD890C89C";
rightMetricsKey = "=n-110";
name = "Apr 10 18, 15:38";
paths = (
{
closed = 1;
nodes = (
"169 636 LINE SMOOTH",
"169 730 OFFCURVE",
"221 785 OFFCURVE",
"319 785 CURVE",
"431 785 LINE",
"431 790 LINE",
"319 790 LINE",
"218 790 OFFCURVE",
"164 733 OFFCURVE",
"164 636 CURVE SMOOTH",
"164 524 LINE",
"50 524 LINE",
"50 519 LINE",
"164 519 LINE",
"164 5 LINE",
"50 5 LINE",
"50 0 LINE",
"299 0 LINE",
"299 5 LINE",
"169 5 LINE",
"169 519 LINE",
"344 519 LINE",
"344 524 LINE",
"169 524 LINE"
);
}
);
width = 346;
},
{
associatedMasterId = "BE4E587A-F76C-447B-AA28-A45E40876AAF";
layerId = "F223CDFD-3A64-4493-ABDA-C6CA20160202";
name = "Apr 10 18, 15:38";
paths = (
{
closed = 1;
nodes = (
"350 583 LINE SMOOTH",
"350 598 OFFCURVE",
"363 608 OFFCURVE",
"388 608 CURVE SMOOTH",
"541 608 LINE",
"541 790 LINE",
"367 790 LINE SMOOTH",
"182 790 OFFCURVE",
"96 720 OFFCURVE",
"96 583 CURVE SMOOTH",
"96 580 LINE",
"21 580 LINE",
"21 377 LINE",
"96 377 LINE",
"96 203 LINE",
"21 203 LINE",
"21 0 LINE",
"443 0 LINE",
"443 203 LINE",
"350 203 LINE",
"350 377 LINE",
"491 377 LINE",
"491 580 LINE",
"350 580 LINE"
);
}
);
width = 512;
},
{
associatedMasterId = "2C5E45D0-97E8-45AA-A5B2-946753DF54E1";
layerId = "62939676-09C9-442A-9BED-9896D4F3575E";
name = "Apr 10 18, 17:42";
paths = (
{
closed = 1;
nodes = (
"243 584 LINE SMOOTH",
"243 675 OFFCURVE",
"281 711 OFFCURVE",
"366 711 CURVE SMOOTH",
"406 711 OFFCURVE",
"441 703 OFFCURVE",
"481 691 CURVE",
"481 779 LINE",
"434 791 OFFCURVE",
"386 800 OFFCURVE",
"342 800 CURVE SMOOTH",
"207 800 OFFCURVE",
"145 717 OFFCURVE",
"145 584 CURVE SMOOTH",
"145 536 LINE",
"43 536 LINE",
"43 452 LINE",
"145 452 LINE",
"145 84 LINE",
"43 84 LINE",
"43 0 LINE",
"358 0 LINE",
"358 84 LINE",
"243 84 LINE",
"243 452 LINE",
"404 452 LINE",
"404 536 LINE",
"243 536 LINE"
);
}
);
width = 426;
}
);
leftKerningGroup = n;
leftMetricsKey = n;
},
